<svg width="14" height="14" viewBox="0 0 14 14" fill="none" xmlns="http://www.w3.org/2000/svg">
<path d="M12.4837 8.31185L8.31283 12.4827C8.19616 12.5993 8.06491 12.6868 7.91908 12.7452C7.77324 12.8035 7.62741 12.8327 7.48158 12.8327C7.33574 12.8327 7.18991 12.8035 7.04408 12.7452C6.89824 12.6868 6.76699 12.5993 6.65033 12.4827L1.50241 7.33477C1.39546 7.22782 1.31283 7.10396 1.25449 6.96318C1.19616 6.8224 1.16699 6.67404 1.16699 6.5181V2.33268C1.16699 2.01185 1.28133 1.73729 1.50999 1.50902C1.73866 1.28074 2.01321 1.1664 2.33366 1.16602H6.51908C6.67463 1.16602 6.82533 1.19771 6.97116 1.2611C7.11699 1.32449 7.24338 1.40946 7.35033 1.51602L12.4837 6.66393C12.6003 6.7806 12.6855 6.91185 12.7392 7.05768C12.7928 7.20352 12.8195 7.34935 12.8191 7.49518C12.8187 7.64102 12.792 7.78452 12.7392 7.92568C12.6863 8.06685 12.6011 8.19557 12.4837 8.31185ZM3.79199 4.66602C4.03505 4.66602 4.24174 4.58104 4.41208 4.4111C4.58241 4.24115 4.66738 4.03446 4.66699 3.79102C4.6666 3.54757 4.58163 3.34107 4.41208 3.17152C4.24252 3.00196 4.03583 2.91679 3.79199 2.91602C3.54816 2.91524 3.34166 3.0004 3.17249 3.17152C3.00333 3.34263 2.91816 3.54913 2.91699 3.79102C2.91583 4.0329 3.00099 4.2396 3.17249 4.4111C3.34399 4.5826 3.55049 4.66757 3.79199 4.66602Z" fill="white"/>
</svg>
