<svg width="169" height="105" viewBox="0 0 169 105" fill="none" xmlns="http://www.w3.org/2000/svg">
<path d="M66.5013 9.27996C66.5013 9.66843 67.1487 9.97057 67.8825 9.97057C68.6594 9.92741 69.2637 9.62527 69.2637 9.27996C69.2205 8.8915 68.6162 8.58936 67.8825 8.58936C67.1055 8.63252 66.5013 8.93466 66.5013 9.27996Z" fill="#111111"/>
<path d="M90.3704 84.1238C90.5431 95.6482 96.4132 104.885 103.535 104.799C110.614 104.669 116.225 95.2598 116.095 83.7353C115.923 72.2108 110.009 62.974 102.931 63.0603C95.8089 63.1898 90.1978 72.5993 90.3704 84.1238Z" fill="#3D4039"/>
<path d="M102.499 84.7284C102.628 92.4545 105.391 98.67 108.628 98.6268C111.908 98.5836 114.498 92.2819 114.368 84.5557C114.282 76.8296 111.52 70.571 108.239 70.6141C104.959 70.7004 102.412 77.0022 102.499 84.7284Z" fill="#D6E3DD"/>
<path d="M103.104 84.6854C103.19 90.8145 105.348 95.7351 107.938 95.6919C110.528 95.6488 112.556 90.685 112.47 84.5559C112.384 78.47 110.226 73.5494 107.636 73.5926C105.046 73.6357 103.017 78.5994 103.104 84.6854Z" fill="#3D4039"/>
<path d="M103.361 89.7351L102.714 84.9441L105.994 84.0376C106.023 83.7786 106.052 83.5197 106.08 83.2607L103.016 80.4983L104.224 76.5273L106.771 81.1026C106.944 80.786 107.145 80.5127 107.375 80.2825L107.03 71.8657L109.879 72.1247L109.318 80.153C109.462 80.2681 109.605 80.3976 109.749 80.5414L112.037 75.7935L112.943 79.2466L110.656 82.4838C110.713 82.6564 110.756 82.8435 110.785 83.0449L114.066 81.7932L114.238 85.1599L110.958 85.6347C110.929 85.8649 110.9 86.0951 110.872 86.3253L114.022 87.7928L113.246 90.8574L110.354 88.0518C110.181 88.4259 109.98 88.7424 109.749 89.0014L112.425 94.0946L110.613 96.857L108.109 89.6056C107.937 89.5193 107.749 89.4186 107.548 89.3035L106.814 96.9433L104.268 93.7061L106.598 87.8791C106.455 87.5626 106.339 87.2173 106.253 86.8432L103.361 89.7351Z" fill="#D6E3DD"/>
<path d="M70.1259 81.1892C70.2554 89.3038 75.996 95.8214 83.0315 95.6919C90.0239 95.6055 95.6351 88.9585 95.5056 80.8439C95.3761 72.7292 89.5923 66.2116 82.5999 66.3411C75.6075 66.4275 69.9964 73.0745 70.1259 81.1892Z" fill="#3D4039"/>
<path d="M81.0903 81.3619C81.1766 87.4479 83.939 92.3253 87.2626 92.2821C90.5861 92.2389 93.219 87.2752 93.1327 81.1892C93.0464 75.1033 90.284 70.1827 86.9604 70.2259C83.6369 70.269 81.0039 75.2759 81.0903 81.3619Z" fill="#D6E3DD"/>
<path d="M139.877 82.3977C140.007 91.4619 145.273 97.3321 154.337 97.2026C163.401 97.0731 168.451 89.5196 168.322 80.4554C168.192 71.3912 162.797 64.183 153.733 64.3125C144.669 64.442 139.748 73.3335 139.877 82.3977Z" fill="#3D4039"/>
<path d="M148.208 82.743C148.294 89.3469 151.575 93.62 157.186 93.5769C162.84 93.4906 165.948 87.9657 165.862 81.3618C165.775 74.7579 162.409 69.492 156.754 69.5783C151.143 69.6646 148.078 76.1391 148.208 82.743Z" fill="#D6E3DD"/>
<path d="M149.588 82.5704C149.674 87.8363 152.307 91.2462 156.839 91.1598C161.372 91.1167 163.918 86.7141 163.832 81.4482C163.746 76.1823 161.026 71.9956 156.494 72.0819C151.962 72.125 149.545 77.3046 149.588 82.5704Z" fill="#3D4039"/>
<path d="M152.568 81.405C152.611 84.7286 154.683 87.4047 157.186 87.3615C159.733 87.3183 161.718 84.5991 161.675 81.2756C161.632 77.9088 159.56 75.2327 157.014 75.2759C154.51 75.3191 152.525 78.0383 152.568 81.405Z" fill="#D6E3DD"/>
<path d="M157.573 79.5488C157.573 79.9372 157.919 80.2825 158.307 80.2394C158.739 80.2394 159.041 79.8941 159.041 79.5056C159.041 79.1171 158.696 78.7719 158.307 78.7719C157.876 78.7719 157.573 79.1171 157.573 79.5488Z" fill="#3D4039"/>
<path d="M154.64 79.9372C154.64 80.3689 154.985 80.671 155.374 80.671C155.762 80.671 156.107 80.3257 156.107 79.9372C156.107 79.5056 155.762 79.2035 155.33 79.2035C154.942 79.2035 154.597 79.5488 154.64 79.9372Z" fill="#3D4039"/>
<path d="M154.984 83.4333C154.984 83.8218 155.329 84.1671 155.718 84.1671C156.149 84.1671 156.495 83.8217 156.451 83.3901C156.451 83.0017 156.106 82.6564 155.718 82.6564C155.329 82.6995 154.984 83.0017 154.984 83.4333Z" fill="#3D4039"/>
<path d="M158.222 83.1312C158.222 83.5196 158.567 83.8649 158.999 83.8218C159.387 83.8218 159.732 83.5197 159.732 83.088C159.689 82.6996 159.387 82.3542 158.955 82.3542C158.567 82.3542 158.222 82.6995 158.222 83.1312Z" fill="#3D4039"/>
<path d="M155.287 75.9668L157.056 75.8373L157.1 70.7872L154.985 70.8735L155.287 75.9668Z" fill="#D6E3DD"/>
<path d="M156.452 86.3691L158.179 86.1964L158.438 91.5055L155.977 91.6781L156.452 86.3691Z" fill="#D6E3DD"/>
<path d="M153.645 85.2897L155.242 86.3687L153.645 90.9872L151.703 89.8218L153.645 85.2897Z" fill="#D6E3DD"/>
<path d="M158.178 76.4415L159.688 77.4774L161.674 72.7726L159.473 71.3483L158.178 76.4415Z" fill="#D6E3DD"/>
<path d="M160.767 78.7722L161.156 80.9304L165.213 80.3261L164.868 77.7363L160.767 78.7722Z" fill="#D6E3DD"/>
<path d="M152.61 81.5776L152.998 83.6494L148.725 84.6422L148.25 81.7071L152.61 81.5776Z" fill="#D6E3DD"/>
<path d="M154.338 76.4413L153.345 78.2109L149.935 74.8011L151.36 72.8588L154.338 76.4413Z" fill="#D6E3DD"/>
<path d="M160.034 84.2538L158.826 85.7645L161.977 89.4333L163.703 87.2752L160.034 84.2538Z" fill="#D6E3DD"/>
<path d="M3.30842 84.5992C3.43791 94.3108 9.99865 102.08 17.8975 101.951C25.8394 101.821 32.1412 93.8792 32.0117 84.2107C31.8822 74.4991 25.3215 66.7298 17.4227 66.8593C9.4807 66.9456 3.17893 74.9307 3.30842 84.5992Z" fill="#3D4039"/>
<path d="M11.5523 84.7286C11.6817 92.9295 16.2138 99.5334 21.7387 99.4471C27.2204 99.3608 31.5798 92.6705 31.4503 84.4696C31.364 76.2255 26.7887 69.6648 21.307 69.7511C15.7822 69.8374 11.4228 76.5277 11.5523 84.7286Z" fill="#D6E3DD"/>
<path d="M15.5256 83.8653C15.6119 89.6491 18.5902 94.3107 22.1727 94.2244C25.7552 94.1812 28.6039 89.4765 28.5176 83.6926C28.4313 77.9088 25.4531 73.2904 21.8705 73.3336C18.288 73.3767 15.4393 78.1246 15.5256 83.8653Z" fill="#3D4039"/>
<path d="M91.9668 89.865C91.9668 89.865 37.0637 92.6706 26.6614 91.8505C16.3023 91.0735 17.5541 82.4841 17.5541 82.4841L91.492 83.6064C91.492 83.6064 91.9668 88.2679 91.9668 89.865Z" fill="#2A2B2A"/>
<path d="M0.676117 83.9951C0.676117 83.9951 3.43854 84.5131 3.61118 81.837L30.5017 82.4413L31.9692 84.2541L52.5579 84.6426L54.0686 82.6571L88.383 83.3477L88.7283 84.1678C89.3326 85.7648 90.8001 86.887 92.4835 87.0597C93.1309 87.1028 93.8215 87.146 94.5121 87.2323C96.9724 87.405 99.1737 85.6785 99.6485 83.2613C100.728 77.3049 103.404 65.953 108.195 62.1115C109.144 61.3778 110.137 60.903 111.259 60.8167C111.259 60.8167 123.345 62.4569 115.705 88.9157L141.387 88.3114C141.387 88.3114 151.055 84.772 152.307 82.916C153.559 81.1032 157.012 54.3422 162.968 64.0107C162.968 64.0107 163.875 66.0825 163.702 67.9817L165.213 69.6219C165.213 69.6219 165.127 63.3201 162.364 56.5867C162.249 56.2702 162.12 55.9537 161.976 55.6371C160.292 51.9251 157.832 48.17 154.034 45.4075C154.034 45.4075 135.128 15.7978 119.029 13.208C119.029 13.208 70.7726 4.74813 34.0842 12.9059C34.0842 12.9059 20.5742 27.0633 18.1139 32.804C17.5096 34.2284 14.4451 35.5232 12.2438 36.5592C10.9057 37.1634 9.8698 37.7245 9.74031 38.1993C9.74031 38.1993 7.19373 46.4434 7.40953 50.3281C7.40953 50.5583 7.38075 50.7741 7.3232 50.9755C7.19371 51.4935 6.93472 51.9683 6.5031 52.3136C3.9565 54.5149 -1.99998 62.1547 0.676117 83.9951Z" fill="#EF6E0B"/>
<path d="M29.5101 80.8872L54.6309 81.362L52.559 84.6424L31.9704 84.2539L29.5101 80.8872Z" stroke="#111111" stroke-width="2" stroke-miterlimit="10"/>
<path d="M87.3904 11.4816C91.9225 12.0427 95.5481 13.2944 95.764 13.467C94.6417 11.2226 108.109 11.9132 112.641 12.2585C99.3465 10.4456 65.9384 6.51783 38.9617 11.9995C38.789 12.3017 72.9308 9.7982 87.3904 11.4816Z" fill="#EA8313"/>
<path d="M96.0666 47.7813C91.4913 66.1255 93.3473 69.8806 49.4507 69.6217C49.4507 69.6217 19.6683 69.3195 14.273 68.6721C12.2012 68.4563 12.2443 60.9891 14.5751 51.9249C14.5751 51.9249 20.2295 63.1472 36.1134 64.5285C51.9973 65.9097 96.973 44.2419 96.0666 47.7813Z" fill="#EF6E0B"/>
<path d="M86.7012 37.7242C86.7012 37.7242 20.0577 41.3068 15.094 38.6738C15.094 38.6738 13.7128 62.2839 19.7988 63.0177C30.8916 64.3126 62.9185 66.816 76.04 61.4207C81.7806 59.0467 85.8379 38.8033 86.7012 37.7242Z" fill="#F49211"/>
<path d="M66.7617 43.9832C66.7617 43.9832 66.3733 56.9752 60.7621 57.191L33.0084 57.45C33.0084 57.45 27.6562 58.9175 28.8647 44.6738L66.7617 43.9832Z" fill="#EF6E0B"/>
<g style="mix-blend-mode:multiply">
<path d="M28.7787 45.6662C28.8075 45.3497 28.8363 45.0188 28.865 44.6735H28.9082C28.8507 45.0188 28.8075 45.3497 28.7787 45.6662Z" fill="#EF6E0B"/>
<path d="M32.1021 55.3347L52.3887 57.2771L33.0086 57.4497C33.0086 57.4497 29.7713 58.3561 28.9081 52.0975C29.7713 55.7232 32.1021 55.3347 32.1021 55.3347Z" fill="#E27E05"/>
<path d="M65.252 52.6156C64.9067 53.522 64.5182 54.3853 64.0002 55.1191C64.475 54.3421 64.9067 53.4789 65.252 52.6156Z" fill="#EF6E0B"/>
</g>
<path d="M38.8758 55.8958L54.6734 55.6368C55.4503 55.6368 56.0978 54.9894 56.0546 54.2124L55.9683 47.0906C55.9683 46.3136 55.3208 45.7094 54.5439 45.7094L38.7463 45.9252C37.9694 45.9683 37.3651 46.5726 37.3651 47.3495L37.4514 54.5146C37.4946 55.2915 38.0989 55.8958 38.8758 55.8958Z" fill="#D6E3DD"/>
<path d="M7.32338 50.9755C7.84134 51.5797 12.4166 52.6588 14.9632 53.1768C15.8265 53.3926 16.6897 52.6588 16.6034 51.7524C16.5602 50.587 16.4307 48.99 16.2149 47.3498C15.7833 43.2493 15.0927 38.6741 15.0927 38.6741C15.2222 37.6813 12.3303 36.6022 12.3303 36.6022L12.2439 36.5591C10.9059 37.2065 9.87 37.7245 9.74051 38.1993C9.74051 38.1993 8.48878 42.2134 7.79818 45.9686C7.49604 47.6088 7.32339 49.1626 7.36655 50.328C7.39532 50.5582 7.38093 50.774 7.32338 50.9755Z" fill="#D6E3DD"/>
<path d="M109.749 43.3787C109.749 43.3787 118.554 63.4925 119.029 65.996C119.46 68.5426 119.892 83.1316 119.892 83.1316L152.307 82.9158C153.559 81.103 157.012 54.342 162.968 64.0105C162.968 64.0105 163.875 66.0823 163.702 67.9815L165.213 69.6217C165.213 69.6217 165.127 63.3199 162.364 56.5865C162.407 56.3707 162.235 56.0254 161.976 55.6369C161.976 55.6369 159.213 49.0762 148.466 46.0548C147.286 45.7095 146.02 45.4217 144.667 45.1915C144.667 45.1915 135.387 41.7385 125.805 38.5013C125.776 38.4725 125.748 38.4581 125.719 38.4581C116.784 35.4367 107.547 32.588 105.26 32.8038C105.26 32.8038 110.223 39.8393 109.749 43.3787Z" fill="#EF6E0B"/>
<path d="M109.749 43.3787C109.749 43.3787 118.554 63.4925 119.029 65.996C119.46 68.5426 119.892 83.1316 119.892 83.1316L152.307 82.9158C153.559 81.103 157.012 54.342 162.968 64.0105C162.968 64.0105 163.875 66.0823 163.702 67.9815L165.213 69.6217C165.213 69.6217 165.127 63.3199 162.364 56.5865C162.407 56.3707 162.235 56.0254 161.976 55.6369C161.976 55.6369 159.213 49.0762 148.466 46.0548C147.286 45.7095 146.02 45.4217 144.667 45.1915C144.667 45.1915 135.387 41.7385 125.805 38.5013C125.776 38.4725 125.748 38.4581 125.719 38.4581C116.784 35.4367 107.547 32.588 105.26 32.8038C105.26 32.8038 110.223 39.8393 109.749 43.3787Z" fill="#EF6E0B"/>
<path d="M163.789 68.0679L163.703 67.9816C163.703 67.8665 163.703 67.7658 163.703 67.6794C163.732 67.7945 163.76 67.924 163.789 68.0679Z" fill="#F7D877"/>
<path d="M105.26 32.8041C107.85 33.1062 110.785 33.9695 114.324 35.0054C114.324 35.0054 119.288 36.473 125.719 38.4584C125.748 38.4584 125.777 38.4728 125.806 38.5016C133.143 40.7892 142.38 43.7243 148.466 46.0551C151.272 47.091 154.034 47.8248 154.984 48.4722C154.984 48.4722 160.336 53.3065 161.976 55.6373C162.235 56.0257 162.408 56.371 162.365 56.5868C164.393 61.5506 164.997 66.2553 165.127 68.4135C163.357 46.832 108.756 34.7033 106.469 34.9191C106.469 34.9191 104.483 32.7178 105.26 32.8041Z" fill="#F7D877"/>
<path d="M157.704 64.658C157.704 64.658 156.193 60.2985 139.834 58.1836C134.871 57.5361 120.541 53.6083 119.979 59.9964C119.893 60.8597 118.771 63.4063 118.21 62.8451C118.21 62.8451 111.692 51.5365 118.728 51.7091C118.728 51.7091 164.437 50.6301 157.704 64.658Z" fill="#F7D877"/>
<g style="mix-blend-mode:multiply">
<path d="M71.8958 38.5876C71.8958 38.5876 75.3489 44.8463 59.9397 44.4578L28.8625 44.6736C28.8625 44.6736 23.3808 44.9758 22.2154 39.4941L71.8958 38.5876Z" fill="#EF6E0B"/>
</g>
<path d="M50.702 14.1573L66.5859 13.8983L66.5428 11.4812L50.702 11.697V14.1573Z" fill="#EF6E0B"/>
<path d="M68.3125 8.97788L67.4924 9.23685L61.6223 0.25898L62.4424 0L68.3125 8.97788Z" fill="#111111"/>
<path d="M43.0623 38.8899C43.4076 40.1847 45.3931 40.8322 47.5512 40.3574C49.6662 39.8394 51.1769 38.3719 50.8316 37.0339C50.5295 35.6958 48.544 35.0484 46.3858 35.5663C44.2709 36.0843 42.7602 37.5518 43.0623 38.8899Z" fill="#D6E3DD"/>
<path d="M3.61098 82.5276L30.5446 83.1319L31.969 84.9447L52.5577 85.3332L54.0684 83.3477L88.3828 84.0383C88.3828 84.0383 87.7354 78.6861 76.8583 78.6429C60.4133 78.6429 11.1645 78.2113 11.1645 78.2113C11.1645 78.2113 1.32336 77.8228 3.61098 82.5276Z" fill="#3D4039"/>
<path d="M57.3926 78.47L52.9036 85.4624L31.9265 85.0307L27.3081 78.2542C27.3081 78.2542 47.9831 78.3405 57.3926 78.47Z" fill="#D6E3DD"/>
<path d="M115.707 88.9157C115.707 88.9157 118.599 70.701 106.34 64.0971C106.34 64.0971 110.484 56.7162 115.491 62.0252C115.491 62.0252 124.339 65.2625 115.707 88.9157Z" fill="#2A2B2A"/>
<path d="M82.1678 52.27L92.311 50.8888C93.1743 50.8025 93.9081 50.3277 94.426 49.6371C95.0303 48.817 95.8936 47.6084 96.8431 46.2272C98.0517 44.4575 99.3897 42.4289 100.296 40.7024C101.116 39.1917 100.08 37.3788 98.3538 37.2925L88.0811 37.0335C87.0452 36.9904 86.0956 37.6378 85.664 38.5874L82.0383 47.1768L80.6571 50.3277C80.2686 51.3204 81.0887 52.4427 82.1678 52.27Z" fill="#D6E3DD"/>
<path opacity="0.6" d="M82.1684 52.2702L92.3117 50.889C93.1749 50.8026 93.9087 50.3279 94.4266 49.6372C95.0309 48.8172 95.8942 47.6086 96.8438 46.2274L93.9087 45.1483C93.9087 45.1483 88.168 47.0475 82.0389 47.177L80.6577 50.3279C80.2692 51.3206 81.0893 52.4428 82.1684 52.2702Z" fill="white"/>
<path d="M130.987 40.5299C130.987 40.5299 135.691 47.5223 135.087 57.5361C135.058 57.7087 135.044 57.8958 135.044 58.0972C134.181 68.4131 134.267 82.9158 134.267 82.9158" stroke="#EF6E0B" stroke-miterlimit="10" stroke-linecap="round"/>
<path d="M18.1169 32.8039C25.0662 37.1202 92.2707 32.9334 92.2707 32.9334C94.1267 32.027 97.4071 31.9838 100.774 32.286C105.91 32.7608 111.133 34.0556 111.133 34.0556C124.47 37.2497 152.094 47.1771 154.339 48.6447C155.893 49.6806 162.367 57.1478 162.367 57.1478V56.5866C160.727 52.5725 158.137 48.4289 154.037 45.4075C154.037 45.4075 135.131 15.7978 119.032 13.208C119.032 13.208 116.701 12.8195 112.687 12.2584C112.658 12.2584 112.644 12.2584 112.644 12.2584C99.3494 10.4456 67.8405 7.12202 40.5616 11.6541C39.9861 11.7692 39.4106 11.8699 38.8351 11.9563C38.8063 11.9563 38.7776 11.9563 38.7488 11.9563C37.1949 12.244 35.6411 12.5605 34.0872 12.9058C33.6987 13.3375 20.5341 27.1496 18.1169 32.8039Z" fill="#434443"/>
<path d="M18.1157 32.8036C25.065 37.1199 92.2695 32.9331 92.2695 32.9331C92.8306 32.631 93.5644 32.4583 94.3413 32.3288C96.1542 32.0267 98.4418 32.0699 100.773 32.2857L105.305 32.8036C105.305 32.8036 102.024 11.4812 88.8596 11.3949C88.8596 11.3949 53.3366 10.1863 38.8339 11.956C38.8051 11.956 38.7764 11.956 38.7476 11.956C36.7621 12.215 35.1219 12.5171 34.086 12.9056C33.9565 13.0351 32.3163 14.7616 30.115 17.1787C25.9282 21.8403 19.7128 29.0916 18.1157 32.8036Z" fill="#D6E3DD"/>
<path d="M126.066 38.2857C126.066 38.2857 119.721 17.9991 115.837 15.4525C115.837 15.4525 103.751 14.3734 102.241 16.3589C102.241 16.3589 110.657 30.171 110.312 33.8399C110.312 33.8399 126.066 38.2857 126.066 38.5446" fill="#D6E3DD"/>
<path d="M143.547 41.9976C143.547 41.9976 133.145 38.4582 131.504 39.4941C131.504 39.4941 125.116 20.4593 120.066 15.7977C120.066 15.7977 127.404 16.5747 138.54 27.9697C141.13 30.6026 143.158 40.9185 143.547 41.9976Z" fill="#D6E3DD"/>
<path d="M142.166 32.1132C141.95 31.8111 141.216 30.6026 141.605 32.4586L144.238 42.2134C144.238 42.2134 147.043 42.9903 147.82 41.0048C147.82 41.0048 143.288 34.0124 142.166 32.1132Z" fill="#D6E3DD"/>
<path d="M143.289 39.0624C143.289 39.0624 145.75 38.415 146.354 41.6953C146.354 41.6953 147.347 44.9757 149.073 43.6377C150.368 42.6018 148.987 37.5517 148.987 37.5517C148.987 37.5517 157.749 34.4871 158.353 40.5299C158.569 43.1197 156.627 44.9326 149.548 45.321C149.548 45.321 145.448 45.4937 144.671 45.1915C144.671 45.1915 143.505 40.271 143.289 39.0624Z" fill="#2A2B2A"/>
<mask id="mask0_203_2508" style="mask-type:luminance" maskUnits="userSpaceOnUse" x="18" y="10" width="88" height="25">
<path d="M18.1158 32.7912C25.0866 37.1291 92.2523 32.9251 92.2523 32.9251C92.8307 32.6445 93.5472 32.4503 94.3587 32.3165C96.1629 32.0316 98.4548 32.0834 100.76 32.2949L105.283 32.8042C105.283 32.8042 102.02 11.499 88.8382 11.4084C88.8382 11.4084 53.3238 10.1869 38.8297 11.9609C38.8067 11.9609 38.7836 11.9637 38.7606 11.9695C36.7449 12.2112 35.1436 12.522 34.1077 12.9018L34.099 12.9104C33.9652 13.0529 32.325 14.7708 30.1367 17.1922C25.9326 21.8365 19.6999 29.0706 18.1158 32.7912Z" fill="white"/>
</mask>
<g mask="url(#mask0_203_2508)">
<g opacity="0.5">
<path d="M93.1334 68.3706L107.334 56.6303L39.0504 -25.7244L24.893 -13.9841L93.1334 68.3706Z" fill="white"/>
<path d="M80.185 78.0823L87.2637 72.2121L19.0232 -10.1426L11.9013 -4.27243L80.185 78.0823Z" fill="white"/>
</g>
</g>
<path d="M30.1168 17.179C30.4045 17.0926 30.6923 16.9488 30.98 16.7473C37.7134 12.3016 71.0351 14.6755 84.3725 13.8554C101.422 12.8195 94.0841 32.0701 94.0841 32.0701L105.35 33.0629C105.35 33.0629 101.724 10.4455 88.8614 11.3951C88.8614 11.3951 55.1944 9.02118 38.8357 11.9562C38.8069 11.9562 38.7781 11.9562 38.7493 11.9562C36.7639 12.2152 35.1237 12.5174 34.0877 12.9058C33.9583 13.0353 32.3181 14.7618 30.1168 17.179Z" fill="#EF6E0B"/>
<path d="M75.5231 14.1145C75.5231 14.1145 86.3138 14.503 87.0907 20.5889C87.4361 23.3082 89.6805 29.6531 81.4796 29.9553C81.4796 29.9553 58.8191 32.4587 57.6537 34.3579C57.6537 34.3579 91.4934 34.66 94.1263 32.6314C96.1549 31.0775 98.5721 15.4526 88.9899 13.985C85.7959 13.4671 80.8321 12.9491 75.5231 14.1145Z" fill="#434443"/>
<path d="M30.1164 17.1791C32.3177 14.762 33.9579 13.0355 34.0874 12.906C34.8643 12.6039 35.9434 12.3881 37.2383 12.1722C36.5477 12.9492 35.5118 14.0714 34.3032 15.4095C30.0733 20.0279 23.8578 27.2792 22.2608 30.9912C29.2532 35.3507 96.1556 32.0271 94.3427 32.3293C93.5658 32.4588 93.1773 33.2357 92.2709 32.9336C92.2709 32.9336 25.0664 37.1204 18.1171 32.8041C19.7142 29.0921 25.9296 21.8407 30.1164 17.1791Z" fill="#3D4039"/>
<mask id="mask1_203_2508" style="mask-type:luminance" maskUnits="userSpaceOnUse" x="102" y="15" width="25" height="24">
<path d="M126.08 38.2809C126.08 38.2809 119.73 18.0073 115.816 15.4563C115.816 15.4563 103.752 14.3643 102.228 16.3584C102.228 16.3584 110.675 30.1533 110.304 33.8221C110.304 33.8221 126.08 38.2809 126.084 38.5657" fill="white"/>
</mask>
<g mask="url(#mask1_203_2508)">
<g opacity="0.5">
<path d="M131.291 32.5015L134.01 27.0198L102.328 11.2222L99.5658 16.6607L131.291 32.5015Z" fill="white"/>
<path d="M128.658 37.1632L130.039 34.4439L98.3144 18.6031L96.9332 21.3224L128.658 37.1632Z" fill="white"/>
</g>
</g>
<mask id="mask2_203_2508" style="mask-type:luminance" maskUnits="userSpaceOnUse" x="120" y="15" width="24" height="27">
<path d="M143.537 41.9766C143.537 41.9766 133.131 38.4632 131.525 39.4732C131.525 39.4732 125.12 20.4686 120.082 15.7854C120.082 15.7854 127.386 16.558 138.543 27.9573C141.133 30.5989 143.17 40.9278 143.537 41.9766Z" fill="white"/>
</mask>
<g mask="url(#mask2_203_2508)">
<g opacity="0.5">
<path d="M149.327 36.0844L151.701 30.4732L119.07 16.6611L116.653 22.3155L149.327 36.0844Z" fill="white"/>
<path d="M146.997 40.9188L148.162 38.1133L115.531 24.3011L114.322 27.1499L146.997 40.9188Z" fill="white"/>
</g>
</g>
</svg>
