<svg width="130" height="105" viewBox="0 0 130 105" fill="none" xmlns="http://www.w3.org/2000/svg">
<path d="M23.1211 104.8H17.8754C11.693 104.846 6.58784 99.788 6.58784 93.6056L6.54102 84.9409C6.54102 78.7585 11.5525 73.7001 17.7349 73.6533H23.0274C29.2099 73.6064 34.2682 78.6648 34.315 84.8472V93.5119C34.3619 99.6944 29.3035 104.8 23.1211 104.8Z" fill="#595958"/>
<path d="M112.346 104.472L107.054 104.519C100.871 104.519 95.8128 99.4602 95.8128 93.2778L95.7659 84.613C95.7191 78.4306 100.777 73.3723 106.96 73.3254H112.252C118.435 73.3254 123.493 78.337 123.54 84.5194V93.1841C123.587 99.3665 118.528 104.472 112.346 104.472Z" fill="#595958"/>
<path d="M124.475 93.9336C123.491 94.3083 122.554 94.4488 121.758 94.5425C119.978 94.6362 118.714 94.2615 118.714 94.2615C57.9669 106.673 10.6621 92.8564 10.6621 92.8564C9.77217 93.3716 8.36708 93.2311 7.14933 92.9501C5.74424 92.669 4.57332 92.1538 4.57332 92.1538C-1.18756 76.5573 -0.531853 65.6444 1.29477 58.8063C2.60619 53.8884 4.57331 51.1251 5.22902 50.3288C5.35392 50.1415 5.43198 50.0478 5.4632 50.0478C4.52647 45.13 5.36955 36.0906 5.36955 36.0906C4.85435 35.388 7.243 34.1703 7.99238 33.8424C8.05483 33.8112 8.10166 33.7956 8.13289 33.7956C8.19533 33.7643 8.22656 33.7487 8.22656 33.7487C9.44431 32.531 14.128 27.66 14.128 27.66C27.289 1.10371 30.9423 2.83666 30.9423 2.83666C70.6596 -3.62678 99.9324 2.97717 99.9324 2.97717C106.49 7.28612 115.857 27.3321 115.857 27.3321C116.356 27.9566 116.84 28.5655 117.309 29.1588C119.463 31.7348 121.524 33.8892 121.946 34.0766C123.023 34.5918 125.13 36.0906 125.13 36.0906C126.489 46.7224 125.13 50.0478 125.13 50.0478C125.13 50.0478 125.13 50.0634 125.13 50.0947C127.332 54.1226 128.69 58.291 129.346 62.3658C132.156 78.8991 124.475 93.9336 124.475 93.9336Z" fill="#434443"/>
<path d="M117.311 29.1588C115.203 29.2524 113.189 29.2056 114.36 28.5499C116.561 27.2853 103.634 8.64438 103.634 8.64438C100.965 5.55317 97.124 5.69368 97.124 5.69368C89.2554 4.75695 81.2933 4.33542 73.7526 4.19491C67.1955 4.0544 60.9194 4.14808 55.299 4.38226C40.4518 4.9443 29.9605 6.30255 29.9605 6.30255C23.9186 8.17601 16.331 24.9903 16.331 24.9903C14.8791 27.4258 15.207 28.8777 15.207 28.8777C13.8487 29.1119 10.336 35.2943 10.336 35.2943C9.91444 35.388 8.97771 34.6855 7.99414 33.8424C8.15026 33.78 8.22832 33.7487 8.22832 33.7487C9.44607 32.531 14.1297 27.66 14.1297 27.66C27.2908 1.10371 30.944 2.83666 30.944 2.83666C70.6614 -3.62678 99.9342 2.97717 99.9342 2.97717C106.491 7.28612 115.859 27.3321 115.859 27.3321C116.358 27.9566 116.842 28.5655 117.311 29.1588Z" fill="#EF6E0B"/>
<path d="M124.475 93.9337C123.491 94.3084 122.554 94.4489 121.758 94.5426C119.978 94.6363 118.714 94.2616 118.714 94.2616C57.9669 106.673 10.6621 92.8565 10.6621 92.8565C9.77217 93.3717 8.36708 93.2312 7.14933 92.9502C5.74424 92.6691 4.57332 92.1539 4.57332 92.1539C-1.18756 76.5574 -0.531853 65.6445 1.29477 58.8064C2.60619 53.8885 4.57331 51.1252 5.22902 50.329C5.22902 50.329 3.82394 57.9165 20.7319 58.3848C20.7319 58.3848 25.2282 70.0003 33.2841 69.1104C33.2841 69.1104 44.759 72.8573 94.3589 70.3281C94.3589 70.3281 104.71 70.1408 107.707 58.5253C107.707 58.5253 126.863 57.2608 124.803 50.0011L125.13 50.0948C127.332 54.1227 128.69 58.2912 129.346 62.3659C132.156 78.8992 124.475 93.9337 124.475 93.9337Z" fill="#EF6E0B"/>
<path d="M124.475 93.9338C123.491 94.3084 122.554 94.449 121.758 94.5426C119.978 94.6363 118.714 94.2616 118.714 94.2616C57.9669 106.673 10.6621 92.8565 10.6621 92.8565C9.77217 93.3717 8.36708 93.2312 7.14933 92.9502C5.74424 92.6692 4.57332 92.154 4.57332 92.154C-1.18756 76.5574 -0.531853 65.6445 1.29477 58.8064C1.48212 59.7431 4.01128 71.1244 15.1584 74.3093C15.1584 74.3093 38.0146 80.7259 78.3408 79.3676C78.3408 79.3676 127.191 81.1006 129.346 62.366C132.156 78.8992 124.475 93.9338 124.475 93.9338Z" fill="#EF6E0B"/>
<path d="M12.397 36.044C12.397 36.044 14.4578 37.4959 14.9261 41.477C14.9261 41.477 21.9516 71.7802 32.3961 68.7827C32.3961 68.7827 71.1768 73.7005 97.8736 69.5321C97.8736 69.5321 103.634 69.2979 105.04 64.4269C105.04 64.4269 113.517 46.067 116.795 37.5896C117.451 35.9503 120.636 34.9667 121.76 34.1705C121.76 34.1705 118.809 29.8616 115.859 27.3324C115.859 27.3324 117.732 31.7819 74.3616 34.4984C74.3616 34.4984 67.7109 32.2971 57.1258 34.1237C57.1258 34.1237 21.6238 32.3439 15.5818 28.8312C15.5818 28.8312 14.3641 28.1286 14.1299 27.6603L8.22852 33.749C8.22852 33.749 8.69689 35.1072 12.397 36.044Z" fill="#EDB220"/>
<path d="M5.36989 35.5287C5.36989 35.5287 55.3913 46.2542 74.6879 43.3035C74.6879 43.3035 122.367 39.2287 124.85 36.3249C124.85 36.3249 126.302 35.7628 121.759 33.7489C121.759 33.7489 117.403 28.0348 115.857 27.3323C115.857 27.3323 116.747 31.6881 74.36 34.0299C74.36 34.0299 65.7421 30.0956 57.1242 33.702C57.1242 33.702 17.9689 32.2501 14.1283 27.6601L8.13322 33.421C8.13322 33.421 5.08887 33.7489 5.36989 35.5287Z" fill="#F9CD5F"/>
<path d="M30.9888 9.48757C30.9888 9.48757 33.5649 6.8179 43.7752 6.34953C43.7752 6.34953 84.9445 5.0381 90.6117 6.63055C90.6117 6.63055 98.0587 8.22299 101.852 12.9535C101.852 12.9535 112.859 24.5221 102.602 27.5665C102.602 27.5665 76.6544 34.1704 29.4901 28.1285C29.4901 28.1285 18.7645 26.7234 23.9634 18.5738C23.9634 18.5738 29.4432 10.518 30.9888 9.48757Z" fill="#D6E3DD"/>
<path d="M73.7505 4.14775C73.7505 4.14775 73.7505 4.16336 73.7505 4.19458C67.1934 4.05407 60.9173 4.14775 55.2969 4.38193C55.2969 3.9604 55.4374 1.24388 57.4045 1.29072L71.4555 1.15021C71.4555 1.15021 74.4998 1.05654 73.7505 4.14775Z" fill="#D6E3DD"/>
<path d="M70.3771 39.4156C70.3771 41.3828 67.7542 42.9752 64.5225 42.9752C61.244 43.0221 58.6211 41.4296 58.6211 39.4625C58.6211 38.5726 59.0895 37.8232 59.9325 37.2143C60.9629 36.3713 62.649 35.8561 64.4757 35.8561C66.396 35.8561 68.1289 36.4181 69.2062 37.2612C69.9555 37.87 70.3771 38.5726 70.3771 39.4156Z" stroke="#D6E3DD" stroke-width="2" stroke-miterlimit="10"/>
<path d="M69.2072 37.2612C64.0084 40.6334 60.6361 37.9169 59.9336 37.2143C60.964 36.3713 62.6501 35.8561 64.4767 35.8561C66.397 35.8561 68.13 36.4181 69.2072 37.2612Z" stroke="#D6E3DD" stroke-width="2" stroke-miterlimit="10"/>
<path d="M65.7869 39.6499C65.7869 41.5234 65.2249 43.069 64.4755 43.069C63.7729 43.069 63.1641 41.5234 63.1641 39.6499C63.1641 37.7764 63.7261 36.2308 64.4755 36.2308C65.178 36.2308 65.7869 37.7764 65.7869 39.6499Z" stroke="#D6E3DD" stroke-width="2" stroke-miterlimit="10"/>
<path d="M100.402 45.7387C100.402 45.7387 100.917 47.8464 97.2173 48.5489C97.2173 48.5489 68.085 54.2162 32.5829 48.1742C32.5829 48.1742 30.4284 46.7223 29.398 45.0362C29.117 44.521 28.9296 44.0058 28.8828 43.4906C28.8828 43.4906 95.1565 46.3476 100.449 44.0995L100.402 45.7387Z" fill="#E27E05"/>
<path d="M100.449 44.0995L100.402 45.7387C63.5418 51.7338 29.4449 45.0362 29.4449 45.0362C29.4449 45.0362 29.4293 45.0362 29.398 45.0362C29.117 44.521 28.9296 44.0058 28.8828 43.4906C28.8828 43.4906 91.7374 44.4742 100.449 44.0995Z" fill="#EF6E0B"/>
<path d="M97.5911 48.2679L93.0011 63.9113C93.0323 64.0986 92.9699 64.2859 92.8137 64.4733C89.2073 68.5012 37.6872 65.3164 37.6872 65.3164C37.3594 65.2227 37.0315 64.9885 36.7036 64.567C34.0808 61.1947 32.582 48.1742 32.582 48.1742C61.3865 53.5136 97.5911 48.2679 97.5911 48.2679Z" fill="#EF6E0B"/>
<path d="M20.2643 57.4478C20.2643 57.4478 19.2339 73.8405 29.6784 74.8709C29.6784 74.8709 76.0466 80.9128 98.8091 76.1355C98.8091 76.1355 109.956 77.1659 110.752 58.0566L107.989 58.0098L104.945 64.1454C104.945 64.1454 104.242 68.829 98.1066 69.5316C98.1066 69.5316 72.206 73.6532 32.5823 68.7353C32.5823 68.7353 25.8379 70.3278 20.2643 57.4478Z" fill="#E27E05"/>
<path d="M36.9395 48.9707C36.9395 48.9707 39.1408 63.7711 44.2928 63.9584L84.7595 64.1926C84.7595 64.1926 88.9748 64.8952 89.8179 59.6026L92.0192 48.8771C92.0192 48.8771 76.9378 51.6873 36.9395 48.9707Z" fill="#EF6E0B"/>
<path d="M92.8132 64.4731C89.2068 68.501 37.6867 65.3161 37.6867 65.3161C37.3589 65.2225 37.031 64.9883 36.7031 64.5668C36.7031 64.5668 40.6374 64.1921 42.3704 63.2085C42.3704 63.2085 71.4558 65.0351 87.0992 63.8642C87.0992 63.8642 90.5182 65.2693 92.8132 64.4731Z" fill="#F7D877"/>
<path d="M20.125 57.3075C20.125 57.3075 28.6024 61.5228 32.3961 68.7824C32.3961 68.7824 25.7922 71.3116 20.125 57.3075Z" fill="#EF6E0B"/>
<path d="M107.849 58.0098C107.849 58.0098 99.4188 62.2719 95.6719 69.5784C95.6719 69.5784 104.243 71.967 107.849 58.0098Z" fill="#EF6E0B"/>
<path d="M74.3128 64.1925L54.5009 64.2862C52.5338 64.2862 50.9414 62.6937 50.9414 60.7266L50.8945 54.1695C50.8945 52.2023 52.487 50.5631 54.4541 50.5631L74.2659 50.5162C76.2331 50.5162 77.8255 52.1087 77.8255 54.0758L77.8724 60.5861C77.8724 62.6 76.2799 64.1925 74.3128 64.1925Z" fill="#D6E3DD"/>
<path d="M20.6374 58.4311C19.7475 58.5248 18.3893 58.2437 17.4994 58.1969C3.6826 57.2133 5.2282 50.422 5.2282 50.422V50.3284C5.35309 50.141 5.43115 50.0474 5.46238 50.0474C5.2282 48.7828 5.0877 47.284 5.04087 45.7384C4.90036 41.1016 5.2282 36.0901 5.2282 36.0901C5.19697 35.8715 5.19697 35.6842 5.2282 35.5281C5.50921 33.5141 8.08523 33.4204 8.13206 33.4204C9.02196 34.9192 12.3942 36.0432 12.3942 36.0432C12.8157 36.3711 13.2373 36.7458 13.5651 37.1673C14.9702 38.994 15.1575 41.4294 15.1575 41.4294C14.5018 43.1156 20.6374 58.4311 20.6374 58.4311Z" fill="#D6E3DD"/>
<g opacity="0.8">
<path d="M17.4058 58.1501C3.49539 57.2133 5.22834 50.3284 5.22834 50.3284C5.35324 50.141 5.4313 50.0474 5.46253 50.0474C5.22834 48.7828 5.08785 47.284 5.04102 45.7384C5.13469 45.7696 5.21275 45.8165 5.2752 45.8789C5.2752 45.8789 16.9843 51.1714 17.4058 58.1501Z" fill="#C6C6C6"/>
</g>
<path d="M125.13 51.2185L124.943 51.3122C124.943 51.3122 127.05 56.3705 107.566 58.6655C107.566 58.6655 113.421 44.0525 115.013 42.0854C115.013 42.0854 115.248 40.3993 116.325 38.5727C116.7 37.9638 117.168 37.3081 117.73 36.6992C117.73 36.6992 121.711 33.8422 122.741 34.2169C123.819 34.5916 125.645 35.8093 125.083 36.5118C125.083 36.5118 125.099 36.6055 125.13 36.7929C125.411 38.2916 126.582 45.7855 124.896 50.9375C124.927 50.9375 125.005 51.0312 125.13 51.2185Z" fill="#D6E3DD"/>
<g opacity="0.8">
<path d="M124.99 51.3122C124.99 51.2654 125.177 51.2186 125.177 51.2186C125.037 51.0312 124.943 50.9375 124.943 50.9375C125.458 49.6261 125.693 47.8932 125.739 46.3944C125.646 46.4412 113.562 50.9844 112.906 57.8225C112.906 57.9162 125.927 55.9491 124.99 51.3122Z" fill="#C6C6C6"/>
</g>
<path opacity="0.5" d="M13.5654 37.1676C13.2844 37.1207 8.55391 36.7929 5.22852 35.5283C5.50953 33.5143 8.08555 33.4207 8.13238 33.4207C9.02228 34.9194 12.3945 36.0435 12.3945 36.0435C12.816 36.3713 13.2376 36.746 13.5654 37.1676Z" fill="#FCFCFC"/>
<path opacity="0.5" d="M125.083 36.5118C125.083 36.5118 125.098 36.6055 125.129 36.7929C122.085 37.6359 116.324 38.5727 116.324 38.5727C116.699 37.9638 117.167 37.3081 117.729 36.6992C117.729 36.6992 121.71 33.8422 122.741 34.2169C123.818 34.5916 125.645 35.8093 125.083 36.5118Z" fill="#FCFCFC"/>
<mask id="mask0_203_2431" style="mask-type:luminance" maskUnits="userSpaceOnUse" x="22" y="5" width="85" height="26">
<path d="M30.981 9.47799C30.981 9.47799 33.5476 6.81768 43.7767 6.33995C43.7767 6.33995 84.9553 5.02853 90.5898 6.6116C90.5898 6.6116 98.0508 8.24151 101.877 12.972C101.877 12.972 112.846 24.5266 102.594 27.5428C102.594 27.5428 76.67 34.1515 29.5056 28.1423C29.5056 28.1423 18.752 26.7466 23.9508 18.5549C23.9508 18.5549 29.4401 10.5131 30.981 9.47799Z" fill="white"/>
</mask>
<g mask="url(#mask0_203_2431)">
<g opacity="0.5">
<path d="M37.8276 44.9899L25.3223 31.6415L82.5565 -21.8926L95.015 -8.54418L37.8276 44.9899Z" fill="#FFFEFD"/>
<path d="M47.0083 56.3711L40.4512 49.3925L97.6854 -4.1416L104.242 2.88387L47.0083 56.3711Z" fill="#FFFEFD"/>
</g>
</g>
<path d="M121.757 94.73C121.757 94.7612 121.757 94.7924 121.757 94.8236C119.978 94.9641 118.713 94.5426 118.713 94.5426C105.365 97.3996 92.625 98.9452 80.9159 99.6009C68.8321 100.303 57.8255 100.022 48.2709 99.2731C25.1336 97.4933 10.6612 93.0438 10.6612 93.0438C9.77128 93.559 8.36619 93.4185 7.14844 93.1844L7.28894 93.0907C7.28894 93.0907 7.10159 87.3298 15.3916 89.9526C15.3916 89.9526 27.1945 92.0603 44.3834 93.4654C55.9052 94.4489 69.8156 95.0578 84.2413 94.5426C94.0301 94.1679 104.053 93.278 113.701 91.5919C113.701 91.5919 122.085 88.3134 121.757 94.73Z" fill="#434443"/>
<path d="M84.2407 94.2614C83.0229 96.6032 81.8988 98.102 80.9153 99.0856C79.0886 100.912 77.824 100.865 77.824 100.865L51.3146 100.444C50.2842 100.491 49.3475 99.7881 48.2702 98.7577C46.2094 96.6969 44.3828 93.2778 44.3828 93.2778C55.9046 94.1677 69.815 94.7766 84.2407 94.2614Z" fill="#8696A9"/>
</svg>
