<svg width="169" height="105" viewBox="0 0 169 105" fill="none" xmlns="http://www.w3.org/2000/svg">
<path d="M101.823 9.27996C101.823 9.66843 101.176 9.97057 100.442 9.97057C99.6648 9.92741 99.0605 9.62527 99.0605 9.27996C99.1037 8.8915 99.708 8.58936 100.442 8.58936C101.219 8.63252 101.823 8.93466 101.823 9.27996Z" fill="#111111"/>
<path d="M77.9538 84.1236C77.7812 95.6481 71.911 104.885 64.7891 104.799C57.7104 104.669 52.0993 95.2597 52.2288 83.7352C52.4014 72.2107 58.3147 62.9738 65.3934 63.0602C72.5153 63.1897 78.1265 72.5992 77.9538 84.1236Z" fill="#3D4039"/>
<path d="M65.8256 84.7282C65.6961 92.4544 62.9337 98.6698 59.6965 98.6267C56.4161 98.5835 53.8263 92.2817 53.9558 84.5556C54.0421 76.8294 56.8046 70.5708 60.0849 70.614C63.3653 70.7003 65.9119 77.0021 65.8256 84.7282Z" fill="#D6E3DD"/>
<path d="M65.2206 84.6852C65.1342 90.8143 62.9761 95.7348 60.3863 95.6917C57.7965 95.6485 55.7679 90.6848 55.8542 84.5557C55.9405 78.4697 58.0987 73.5492 60.6885 73.5923C63.2782 73.6355 65.3069 78.5992 65.2206 84.6852Z" fill="#3D4039"/>
<path d="M64.963 89.7349L65.6104 84.9438L62.33 84.0374C62.3013 83.7784 62.2725 83.5194 62.2437 83.2605L65.3083 80.498L64.0997 76.5271L61.5531 81.1023C61.3805 80.7858 61.179 80.5124 60.9488 80.2822L61.2941 71.8655L58.4454 72.1244L59.0065 80.1527C58.8626 80.2678 58.7188 80.3973 58.5749 80.5412L56.2872 75.7933L55.3808 79.2463L57.6685 82.4835C57.6109 82.6562 57.5677 82.8432 57.539 83.0446L54.2586 81.7929L54.0859 85.1596L57.3663 85.6344C57.3951 85.8646 57.4239 86.0948 57.4526 86.325L54.3018 87.7926L55.0787 90.8571L57.9706 88.0515C58.1432 88.4256 58.3447 88.7421 58.5749 89.0011L55.8988 94.0943L57.7116 96.8567L60.2151 89.6054C60.3877 89.5191 60.5748 89.4184 60.7762 89.3033L61.51 96.9431L64.0566 93.7059L61.7258 87.8789C61.8696 87.5624 61.9847 87.217 62.0711 86.843L64.963 89.7349Z" fill="#D6E3DD"/>
<path d="M98.1984 81.189C98.0689 89.3037 92.3282 95.8212 85.2927 95.6917C78.3003 95.6054 72.6891 88.9584 72.8186 80.8437C72.9481 72.7291 78.7319 66.2115 85.7243 66.341C92.7167 66.4273 98.3278 73.0744 98.1984 81.189Z" fill="#3D4039"/>
<path d="M87.234 81.3618C87.1476 87.4477 84.3852 92.3251 81.0617 92.282C77.7381 92.2388 75.1052 87.2751 75.1915 81.1891C75.2778 75.1032 78.0403 70.1826 81.3638 70.2257C84.6873 70.2689 87.3203 75.2758 87.234 81.3618Z" fill="#D6E3DD"/>
<path d="M28.4467 82.3977C28.3173 91.4619 23.0514 97.3321 13.9872 97.2026C4.92299 97.0731 -0.127058 89.5196 0.00243019 80.4554C0.131919 71.3912 5.52728 64.183 14.5915 64.3125C23.6557 64.442 28.5762 73.3335 28.4467 82.3977Z" fill="#3D4039"/>
<path d="M20.1163 82.743C20.03 89.3469 16.7496 93.62 11.1384 93.5769C5.48409 93.4905 2.37636 87.9657 2.46269 81.3618C2.54901 74.7579 5.91571 69.492 11.57 69.5783C17.1812 69.6646 20.2458 76.1391 20.1163 82.743Z" fill="#D6E3DD"/>
<path d="M18.7361 82.5704C18.6498 87.8363 16.0168 91.2462 11.4847 91.1598C6.95264 91.1167 4.40603 86.7141 4.49236 81.4482C4.57869 76.1823 7.29794 71.9956 11.83 72.0819C16.3621 72.125 18.7793 77.3046 18.7361 82.5704Z" fill="#3D4039"/>
<path d="M15.7565 81.4049C15.7133 84.7285 13.6415 87.4045 11.1381 87.3614C8.59146 87.3182 6.60597 84.599 6.64913 81.2754C6.69229 77.9087 8.76411 75.2326 11.3107 75.2758C13.8142 75.3189 15.7997 78.0382 15.7565 81.4049Z" fill="#D6E3DD"/>
<path d="M10.7507 79.5487C10.7507 79.9371 10.4054 80.2824 10.017 80.2392C9.58534 80.2392 9.2832 79.8939 9.2832 79.5055C9.2832 79.117 9.62851 78.7717 10.017 78.7717C10.4486 78.7717 10.7507 79.117 10.7507 79.5487Z" fill="#3D4039"/>
<path d="M13.6843 79.9371C13.6843 80.3687 13.339 80.6709 12.9506 80.6709C12.5621 80.6709 12.2168 80.3256 12.2168 79.9371C12.2168 79.5055 12.5621 79.2034 12.9937 79.2034C13.3822 79.2034 13.7275 79.5487 13.6843 79.9371Z" fill="#3D4039"/>
<path d="M13.3403 83.4337C13.3403 83.8221 12.995 84.1674 12.6066 84.1674C12.1749 84.1674 11.8296 83.8221 11.8728 83.3905C11.8728 83.002 12.2181 82.6567 12.6066 82.6567C12.995 82.6999 13.3403 83.002 13.3403 83.4337Z" fill="#3D4039"/>
<path d="M10.1025 83.1312C10.1025 83.5196 9.75719 83.8649 9.32556 83.8218C8.9371 83.8218 8.5918 83.5196 8.5918 83.088C8.63496 82.6996 8.9371 82.3542 9.36873 82.3542C9.75719 82.3542 10.1025 82.6995 10.1025 83.1312Z" fill="#3D4039"/>
<path d="M13.0375 75.9668L11.2678 75.8373L11.2246 70.7872L13.3396 70.8735L13.0375 75.9668Z" fill="#D6E3DD"/>
<path d="M11.8722 86.3691L10.1457 86.1964L9.88672 91.5055L12.347 91.6781L11.8722 86.3691Z" fill="#D6E3DD"/>
<path d="M14.6791 85.2897L13.082 86.3687L14.6791 90.9872L16.6214 89.8218L14.6791 85.2897Z" fill="#D6E3DD"/>
<path d="M10.1466 76.4415L8.63588 77.4774L6.65039 72.7726L8.85169 71.3483L10.1466 76.4415Z" fill="#D6E3DD"/>
<path d="M7.5571 78.7724L7.16863 80.9305L3.11133 80.3262L3.45663 77.7365L7.5571 78.7724Z" fill="#D6E3DD"/>
<path d="M15.7146 81.5778L15.3262 83.6496L19.5993 84.6423L20.0741 81.7072L15.7146 81.5778Z" fill="#D6E3DD"/>
<path d="M13.9863 76.4413L14.9791 78.2109L18.3889 74.8011L16.9646 72.8588L13.9863 76.4413Z" fill="#D6E3DD"/>
<path d="M8.28994 84.2538L9.49849 85.7645L6.34761 89.4333L4.62109 87.2752L8.28994 84.2538Z" fill="#D6E3DD"/>
<path d="M165.016 84.5991C164.886 94.3107 158.326 102.08 150.427 101.951C142.485 101.821 136.183 93.8791 136.313 84.2106C136.442 74.499 143.003 66.7297 150.902 66.8591C158.844 66.9455 165.145 74.9306 165.016 84.5991Z" fill="#3D4039"/>
<path d="M156.772 84.7285C156.642 92.9294 152.11 99.5333 146.586 99.447C141.104 99.3607 136.744 92.6704 136.874 84.4695C136.96 76.2254 141.535 69.6646 147.017 69.751C152.542 69.8373 156.901 76.5275 156.772 84.7285Z" fill="#D6E3DD"/>
<path d="M152.799 83.8652C152.712 89.649 149.734 94.3106 146.152 94.2243C142.569 94.1811 139.72 89.4763 139.807 83.6925C139.893 77.9087 142.871 73.2903 146.454 73.3334C150.036 73.3766 152.885 78.1245 152.799 83.8652Z" fill="#3D4039"/>
<path d="M76.3574 89.865C76.3574 89.865 131.261 92.6706 141.663 91.8505C152.022 91.0735 150.77 82.4841 150.77 82.4841L76.8322 83.6064C76.8322 83.6064 76.3574 88.2679 76.3574 89.865Z" fill="#2A2B2A"/>
<path d="M167.648 83.9951C167.648 83.9951 164.886 84.5131 164.713 81.837L137.823 82.4413L136.355 84.2541L115.766 84.6425L114.256 82.6571L79.9412 83.3477L79.5959 84.1678C78.9916 85.7648 77.5241 86.887 75.8407 87.0597C75.1933 87.1028 74.5027 87.146 73.8121 87.2323C71.3518 87.405 69.1505 85.6785 68.6757 83.2613C67.5966 77.3049 64.9205 65.953 60.1294 62.1115C59.1799 61.3778 58.1871 60.903 57.0649 60.8167C57.0649 60.8167 44.9793 62.4569 52.6191 88.9157L26.9372 88.3114C26.9372 88.3114 17.2687 84.772 16.017 82.916C14.7653 81.1032 11.3123 54.3422 5.35579 64.0107C5.35579 64.0107 4.44938 66.0825 4.62203 67.9817L3.11133 69.6219C3.11133 69.6219 3.19765 63.3201 5.96008 56.5867C6.07518 56.2702 6.20467 55.9536 6.34854 55.6371C8.03189 51.9251 10.4922 48.17 14.2905 45.4075C14.2905 45.4075 33.1958 15.7978 49.2956 13.208C49.2956 13.208 97.5516 4.74813 134.24 12.9059C134.24 12.9059 147.75 27.0633 150.21 32.804C150.815 34.2283 153.879 35.5232 156.08 36.5591C157.419 37.1634 158.454 37.7245 158.584 38.1993C158.584 38.1993 161.13 46.4434 160.915 50.3281C160.915 50.5583 160.943 50.7741 161.001 50.9755C161.13 51.4935 161.389 51.9683 161.821 52.3136C164.368 54.5149 170.324 62.1547 167.648 83.9951Z" fill="#EF6E0B"/>
<path d="M138.814 80.8871L113.693 81.3619L115.765 84.6423L136.354 84.2538L138.814 80.8871Z" stroke="#111111" stroke-width="2" stroke-miterlimit="10"/>
<path d="M80.9339 11.4816C76.4018 12.0427 72.7761 13.2944 72.5603 13.467C73.6825 11.2226 60.2157 11.9132 55.6836 12.2585C68.9777 10.4456 102.386 6.51783 129.363 11.9995C129.535 12.3017 95.3934 9.7982 80.9339 11.4816Z" fill="#EA8313"/>
<path d="M72.2576 47.7813C76.8329 66.1255 74.9769 69.8806 118.874 69.6217C118.874 69.6217 148.656 69.3195 154.051 68.6721C156.123 68.4563 156.08 60.9891 153.749 51.9249C153.749 51.9249 148.095 63.1472 132.211 64.5285C116.327 65.9097 71.3512 44.2419 72.2576 47.7813Z" fill="#EF6E0B"/>
<path d="M81.623 37.7242C81.623 37.7242 148.266 41.3068 153.23 38.6738C153.23 38.6738 154.611 62.2839 148.525 63.0177C137.433 64.3126 105.406 66.816 92.2843 61.4207C86.5436 59.0467 82.4863 38.8033 81.623 37.7242Z" fill="#F49211"/>
<path d="M101.562 43.9832C101.562 43.9832 101.951 56.9752 107.562 57.191L135.316 57.45C135.316 57.45 140.668 58.9175 139.459 44.6738L101.562 43.9832Z" fill="#EF6E0B"/>
<g style="mix-blend-mode:multiply">
<path d="M139.545 45.6661C139.517 45.3496 139.488 45.0186 139.459 44.6733H139.416C139.474 45.0186 139.517 45.3496 139.545 45.6661Z" fill="#EF6E0B"/>
<path d="M136.222 55.3346L115.936 57.2769L135.316 57.4496C135.316 57.4496 138.553 58.356 139.416 52.0974C138.553 55.7231 136.222 55.3346 136.222 55.3346Z" fill="#E27E05"/>
<path d="M103.072 52.6155C103.418 53.5219 103.806 54.3852 104.324 55.1189C103.849 54.342 103.418 53.4787 103.072 52.6155Z" fill="#EF6E0B"/>
</g>
<path d="M129.448 55.8958L113.651 55.6368C112.874 55.6368 112.226 54.9894 112.27 54.2124L112.356 47.0906C112.356 46.3136 113.003 45.7094 113.78 45.7094L129.578 45.9252C130.355 45.9683 130.959 46.5726 130.959 47.3495L130.873 54.5146C130.83 55.2915 130.225 55.8958 129.448 55.8958Z" fill="#D6E3DD"/>
<path d="M161.001 50.9755C160.483 51.5797 155.908 52.6588 153.361 53.1768C152.498 53.3926 151.634 52.6588 151.721 51.7524C151.764 50.587 151.893 48.99 152.109 47.3498C152.541 43.2493 153.232 38.6741 153.232 38.6741C153.102 37.6813 155.994 36.6022 155.994 36.6022L156.08 36.5591C157.418 37.2065 158.454 37.7245 158.584 38.1993C158.584 38.1993 159.835 42.2134 160.526 45.9686C160.828 47.6088 161.001 49.1626 160.958 50.328C160.929 50.5582 160.943 50.774 161.001 50.9755Z" fill="#D6E3DD"/>
<path d="M58.5756 43.3787C58.5756 43.3787 49.7704 63.4925 49.2956 65.996C48.8639 68.5426 48.4323 83.1316 48.4323 83.1316L16.017 82.9158C14.7653 81.103 11.3123 54.342 5.35579 64.0105C5.35579 64.0105 4.44938 66.0823 4.62203 67.9815L3.11133 69.6217C3.11133 69.6217 3.19765 63.3199 5.96008 56.5865C5.91691 56.3707 6.08956 56.0254 6.34854 55.6369C6.34854 55.6369 9.11096 49.0762 19.8585 46.0548C21.0383 45.7095 22.3044 45.4217 23.6568 45.1915C23.6568 45.1915 32.9369 41.7385 42.519 38.5013C42.5478 38.4725 42.5766 38.4581 42.6053 38.4581C51.54 35.4367 60.7769 32.588 63.0645 32.8038C63.0645 32.8038 58.1008 39.8393 58.5756 43.3787Z" fill="#EF6E0B"/>
<path d="M58.5756 43.3787C58.5756 43.3787 49.7704 63.4925 49.2956 65.996C48.8639 68.5426 48.4323 83.1316 48.4323 83.1316L16.017 82.9158C14.7653 81.103 11.3123 54.342 5.35579 64.0105C5.35579 64.0105 4.44938 66.0823 4.62203 67.9815L3.11133 69.6217C3.11133 69.6217 3.19765 63.3199 5.96008 56.5865C5.91691 56.3707 6.08956 56.0254 6.34854 55.6369C6.34854 55.6369 9.11096 49.0762 19.8585 46.0548C21.0383 45.7095 22.3044 45.4217 23.6568 45.1915C23.6568 45.1915 32.9369 41.7385 42.519 38.5013C42.5478 38.4725 42.5766 38.4581 42.6053 38.4581C51.54 35.4367 60.7769 32.588 63.0645 32.8038C63.0645 32.8038 58.1008 39.8393 58.5756 43.3787Z" fill="#EF6E0B"/>
<path d="M4.53516 68.0678L4.62148 67.9815C4.62148 67.8664 4.62148 67.7656 4.62148 67.6793C4.59271 67.7944 4.56393 67.9239 4.53516 68.0678Z" fill="#F7D877"/>
<path d="M63.0641 32.804C60.4744 33.1061 57.5393 33.9694 53.9999 35.0053C53.9999 35.0053 49.0362 36.4728 42.6049 38.4583C42.5762 38.4583 42.5474 38.4727 42.5186 38.5015C35.1809 40.7891 25.9441 43.7242 19.8581 46.055C17.0525 47.0909 14.2901 47.8247 13.3405 48.4721C13.3405 48.4721 7.98834 53.3063 6.34815 55.6371C6.08918 56.0256 5.91653 56.3709 5.95969 56.5867C3.93103 61.5504 3.32675 66.2552 3.19727 68.4133C4.96694 46.8319 59.5679 34.7032 61.8556 34.919C61.8556 34.919 63.8411 32.7177 63.0641 32.804Z" fill="#F7D877"/>
<path d="M10.6204 64.658C10.6204 64.658 12.1311 60.2985 28.4898 58.1836C33.4535 57.5361 47.7836 53.6083 48.3447 59.9964C48.4311 60.8597 49.5533 63.4062 50.1144 62.8451C50.1144 62.8451 56.632 51.5365 49.5964 51.7091C49.5964 51.7091 3.88699 50.6301 10.6204 64.658Z" fill="#F7D877"/>
<g style="mix-blend-mode:multiply">
<path d="M96.4284 38.5876C96.4284 38.5876 92.9754 44.8463 108.384 44.4578L139.462 44.6736C139.462 44.6736 144.943 44.9757 146.109 39.4941L96.4284 38.5876Z" fill="#EF6E0B"/>
</g>
<path d="M117.622 14.1573L101.738 13.8983L101.781 11.4812L117.622 11.697V14.1573Z" fill="#EF6E0B"/>
<path d="M100.012 8.97788L100.832 9.23685L106.702 0.25898L105.882 0L100.012 8.97788Z" fill="#111111"/>
<path d="M125.262 38.8899C124.917 40.1847 122.931 40.8322 120.773 40.3574C118.658 39.8394 117.147 38.3719 117.493 37.0339C117.795 35.6958 119.78 35.0484 121.938 35.5663C124.053 36.0843 125.564 37.5518 125.262 38.8899Z" fill="#D6E3DD"/>
<path d="M164.713 82.5276L137.78 83.1319L136.355 84.9447L115.767 85.3332L114.256 83.3477L79.9414 84.0383C79.9414 84.0383 80.5888 78.6861 91.4659 78.6429C107.911 78.6429 157.16 78.2113 157.16 78.2113C157.16 78.2113 167.001 77.8228 164.713 82.5276Z" fill="#3D4039"/>
<path d="M110.932 78.4698L115.421 85.4622L136.398 85.0306L141.016 78.254C141.016 78.254 120.341 78.3404 110.932 78.4698Z" fill="#D6E3DD"/>
<path d="M52.6175 88.9156C52.6175 88.9156 49.7256 70.7009 61.9838 64.097C61.9838 64.097 57.8402 56.7161 52.8333 62.0251C52.8333 62.0251 43.9849 65.2624 52.6175 88.9156Z" fill="#2A2B2A"/>
<path d="M86.1565 52.27L76.0132 50.8888C75.1499 50.8025 74.4162 50.3277 73.8982 49.6371C73.2939 48.817 72.4307 47.6084 71.4811 46.2272C70.2725 44.4575 68.9345 42.4289 68.0281 40.7024C67.208 39.1917 68.2439 37.3788 69.9704 37.2925L80.2431 37.0335C81.279 36.9904 82.2286 37.6378 82.6603 38.5874L86.2859 47.1768L87.6672 50.3277C88.0556 51.3204 87.2355 52.4427 86.1565 52.27Z" fill="#D6E3DD"/>
<path opacity="0.6" d="M86.1558 52.2702L76.0126 50.889C75.1493 50.8026 74.4155 50.3279 73.8976 49.6372C73.2933 48.8172 72.4301 47.6086 71.4805 46.2274L74.4155 45.1483C74.4155 45.1483 80.1562 47.0475 86.2853 47.177L87.6665 50.3279C88.055 51.3206 87.2349 52.4428 86.1558 52.2702Z" fill="white"/>
<path d="M37.3377 40.5299C37.3377 40.5299 32.6329 47.5223 33.2372 57.5361C33.266 57.7087 33.2804 57.8958 33.2804 58.0972C34.1436 68.4131 34.0573 82.9158 34.0573 82.9158" stroke="#EF6E0B" stroke-miterlimit="10" stroke-linecap="round"/>
<path d="M150.207 32.8039C143.258 37.1202 76.0535 32.9334 76.0535 32.9334C74.1975 32.027 70.9171 31.9838 67.5504 32.286C62.414 32.7608 57.1913 34.0556 57.1913 34.0556C43.854 37.2497 16.2298 47.1771 13.9853 48.6447C12.4315 49.6806 5.95703 57.1478 5.95703 57.1478V56.5866C7.59722 52.5725 10.187 48.4289 14.2875 45.4075C14.2875 45.4075 33.1928 15.7978 49.2925 13.208C49.2925 13.208 51.6233 12.8195 55.6375 12.2584C55.6662 12.2584 55.6806 12.2584 55.6806 12.2584C68.9748 10.4456 100.484 7.12202 127.763 11.6541C128.338 11.7692 128.914 11.8699 129.489 11.9563C129.518 11.9563 129.547 11.9563 129.575 11.9563C131.129 12.244 132.683 12.5605 134.237 12.9058C134.625 13.3375 147.79 27.1496 150.207 32.8039Z" fill="#434443"/>
<path d="M150.207 32.8038C143.257 37.12 76.0528 32.9333 76.0528 32.9333C75.4916 32.6311 74.7579 32.4585 73.9809 32.329C72.1681 32.0268 69.8805 32.07 67.5497 32.2858L63.0176 32.8038C63.0176 32.8038 66.2979 11.4813 79.4626 11.395C79.4626 11.395 114.986 10.1864 129.488 11.9561C129.517 11.9561 129.546 11.9561 129.575 11.9561C131.56 12.2151 133.2 12.5172 134.236 12.9057C134.366 13.0352 136.006 14.7617 138.207 17.1788C142.394 21.8404 148.609 29.0918 150.207 32.8038Z" fill="#D6E3DD"/>
<path d="M42.2578 38.2857C42.2578 38.2857 48.6027 17.9991 52.4874 15.4525C52.4874 15.4525 64.573 14.3734 66.0837 16.3589C66.0837 16.3589 57.6669 30.171 58.0122 33.8399C58.0122 33.8399 42.2578 38.2857 42.2578 38.5446" fill="#D6E3DD"/>
<path d="M24.7773 41.9976C24.7773 41.9976 35.1796 38.4582 36.8198 39.4941C36.8198 39.4941 43.2079 20.4593 48.2579 15.7977C48.2579 15.7977 40.9202 16.5747 29.7842 27.9697C27.1945 30.6026 25.1658 40.9185 24.7773 41.9976Z" fill="#D6E3DD"/>
<path d="M26.1582 32.1132C26.3741 31.8111 27.1078 30.6026 26.7194 32.4586L24.0864 42.2134C24.0864 42.2134 21.2808 42.9903 20.5039 41.0048C20.5039 41.0048 25.036 34.0124 26.1582 32.1132Z" fill="#D6E3DD"/>
<path d="M25.0347 39.0624C25.0347 39.0624 22.5745 38.415 21.9702 41.6953C21.9702 41.6953 20.9774 44.9757 19.2509 43.6377C17.956 42.6018 19.3372 37.5517 19.3372 37.5517C19.3372 37.5517 10.5752 34.4871 9.97091 40.5299C9.7551 43.1197 11.6974 44.9326 18.7761 45.321C18.7761 45.321 22.8766 45.4937 23.6535 45.1915C23.6535 45.1915 24.8189 40.271 25.0347 39.0624Z" fill="#2A2B2A"/>
<mask id="mask0_203_2277" style="mask-type:luminance" maskUnits="userSpaceOnUse" x="63" y="10" width="88" height="25">
<path d="M150.208 32.7912C143.238 37.1291 76.0719 32.9251 76.0719 32.9251C75.4935 32.6445 74.777 32.4503 73.9655 32.3165C72.1613 32.0316 69.8694 32.0834 67.5645 32.2949L63.041 32.8042C63.041 32.8042 66.3041 11.499 79.4861 11.4084C79.4861 11.4084 115 10.1869 129.495 11.9609C129.518 11.9609 129.541 11.9637 129.564 11.9695C131.579 12.2112 133.181 12.522 134.217 12.9018L134.225 12.9104C134.359 13.0529 135.999 14.7708 138.188 17.1922C142.392 21.8365 148.624 29.0706 150.208 32.7912Z" fill="white"/>
</mask>
<g mask="url(#mask0_203_2277)">
<g opacity="0.5">
<path d="M75.1908 68.3701L60.9902 56.6298L129.274 -25.7249L143.431 -13.9846L75.1908 68.3701Z" fill="white"/>
<path d="M88.1393 78.0819L81.0605 72.2118L149.301 -10.1429L156.423 -4.2728L88.1393 78.0819Z" fill="white"/>
</g>
</g>
<path d="M138.207 17.179C137.92 17.0926 137.632 16.9488 137.344 16.7473C130.611 12.3016 97.2891 14.6755 83.9518 13.8554C66.9024 12.8195 74.2401 32.0701 74.2401 32.0701L62.9746 33.0629C62.9746 33.0629 66.6003 10.4455 79.4628 11.3951C79.4628 11.3951 113.13 9.02118 129.489 11.9562C129.517 11.9562 129.546 11.9562 129.575 11.9562C131.56 12.2152 133.201 12.5174 134.236 12.9058C134.366 13.0353 136.006 14.7618 138.207 17.179Z" fill="#EF6E0B"/>
<path d="M92.8011 14.1145C92.8011 14.1145 82.0104 14.503 81.2335 20.5889C80.8882 23.3082 78.6437 29.6531 86.8446 29.9553C86.8446 29.9553 109.505 32.4587 110.671 34.3579C110.671 34.3579 76.8309 34.66 74.1979 32.6314C72.1693 31.0775 69.7522 15.4526 79.3343 13.985C82.5284 13.4671 87.4921 12.9491 92.8011 14.1145Z" fill="#434443"/>
<path d="M138.208 17.1791C136.006 14.762 134.366 13.0355 134.237 12.906C133.46 12.6039 132.381 12.3881 131.086 12.1722C131.777 12.9492 132.812 14.0714 134.021 15.4095C138.251 20.0279 144.466 27.2792 146.063 30.9912C139.071 35.3507 72.1686 32.0271 73.9815 32.3293C74.7584 32.4588 75.1469 33.2357 76.0533 32.9336C76.0533 32.9336 143.258 37.1204 150.207 32.8041C148.61 29.0921 142.395 21.8407 138.208 17.1791Z" fill="#3D4039"/>
<mask id="mask1_203_2277" style="mask-type:luminance" maskUnits="userSpaceOnUse" x="42" y="15" width="25" height="24">
<path d="M42.2445 38.2809C42.2445 38.2809 48.5938 18.0073 52.5087 15.4563C52.5087 15.4563 64.5727 14.3643 66.0963 16.3584C66.0963 16.3584 57.6494 30.1533 58.0206 33.8221C58.0206 33.8221 42.2446 38.2809 42.2402 38.5657" fill="white"/>
</mask>
<g mask="url(#mask1_203_2277)">
<g opacity="0.5">
<path d="M37.0337 32.5015L34.3145 27.0198L65.996 11.2222L68.7584 16.6607L37.0337 32.5015Z" fill="white"/>
<path d="M39.6664 37.1632L38.2852 34.4439L70.0098 18.6031L71.3911 21.3224L39.6664 37.1632Z" fill="white"/>
</g>
</g>
<mask id="mask2_203_2277" style="mask-type:luminance" maskUnits="userSpaceOnUse" x="24" y="15" width="25" height="27">
<path d="M24.7871 41.9767C24.7871 41.9767 35.1937 38.4633 36.7993 39.4733C36.7993 39.4733 43.2047 20.4687 48.2418 15.7855C48.2418 15.7855 40.9386 16.5581 29.781 27.9574C27.1913 30.599 25.154 40.9279 24.7871 41.9767Z" fill="white"/>
</mask>
<g mask="url(#mask2_203_2277)">
<g opacity="0.5">
<path d="M18.997 36.0845L16.623 30.4734L49.2542 16.6613L51.6713 22.3156L18.997 36.0845Z" fill="white"/>
<path d="M21.3275 40.919L20.1621 38.1134L52.7932 24.3013L54.0018 27.15L21.3275 40.919Z" fill="white"/>
</g>
</g>
</svg>
