<svg width="20" height="20" viewBox="0 0 20 20" fill="none" xmlns="http://www.w3.org/2000/svg">
<path d="M18.8992 10.266C18.8992 15.2918 14.825 19.366 9.79922 19.366C4.77343 19.366 0.699219 15.2918 0.699219 10.266C0.699219 5.24022 4.77343 1.16602 9.79922 1.16602C14.825 1.16602 18.8992 5.24022 18.8992 10.266Z" fill="white" stroke="#EF6E0B"/>
<path d="M10.8664 7.06641C11.0458 7.06635 11.2186 7.13411 11.3501 7.25609C11.4817 7.37808 11.5622 7.54528 11.5757 7.72418L11.5775 7.77752C11.5775 7.8646 11.6095 7.94866 11.6673 8.01374C11.7252 8.07882 11.8049 8.12039 11.8914 8.13058L11.933 8.13307H12.2886C12.5607 8.13306 12.8225 8.23701 13.0204 8.42366C13.2184 8.61031 13.3375 8.86556 13.3535 9.13716L13.3553 9.19974V12.3997C13.3553 12.6718 13.2513 12.9336 13.0647 13.1316C12.878 13.3295 12.6228 13.4487 12.3512 13.4646L12.2886 13.4664H7.31081C7.03873 13.4664 6.77694 13.3625 6.57898 13.1758C6.38103 12.9892 6.26188 12.7339 6.24592 12.4623L6.24414 12.3997V9.19974C6.24413 8.92766 6.34808 8.66587 6.53473 8.46791C6.72138 8.26996 6.97662 8.15081 7.24823 8.13485L7.31081 8.13307H7.66636C7.76066 8.13307 7.8511 8.09561 7.91778 8.02893C7.98446 7.96225 8.02192 7.87182 8.02192 7.77752C8.02186 7.59811 8.08962 7.42532 8.21161 7.29377C8.33359 7.16222 8.5008 7.08164 8.6797 7.06818L8.73303 7.06641H10.8664ZM9.7997 9.5553C9.53537 9.55527 9.28046 9.65339 9.08437 9.83063C8.88827 10.0079 8.76497 10.2516 8.73836 10.5146L8.73445 10.5686L8.73303 10.622L8.73445 10.6753C8.74489 10.8837 8.81624 11.0845 8.93967 11.2528C9.0631 11.4211 9.23318 11.5495 9.42886 11.6221C9.62453 11.6946 9.8372 11.7082 10.0405 11.6611C10.2438 11.614 10.4289 11.5083 10.5727 11.3571C10.7165 11.2059 10.8128 11.0158 10.8497 10.8103C10.8865 10.6049 10.8623 10.3932 10.78 10.2014C10.6978 10.0096 10.561 9.84618 10.3868 9.73133C10.2125 9.61648 10.0084 9.55528 9.7997 9.5553Z" fill="#EF6E0B"/>
</svg>
