<svg width="123" height="102" viewBox="0 0 123 102" fill="none" xmlns="http://www.w3.org/2000/svg">
<path d="M19.8113 40.7296C19.8113 40.7296 23.3167 29.8443 30.8811 28.6912C30.8811 28.6912 54.1739 24.8168 61.9689 25.9699C61.9689 25.9699 80.8337 25.1858 96.516 38.0544C96.516 38.0544 105.418 45.0192 106.387 46.6336C106.387 46.6336 117.41 52.7681 118.563 59.779C118.563 59.779 122.023 63.2844 121.1 69.6035C121.1 69.6035 121.469 74.4004 120.823 75.2306C120.823 75.2306 121.054 76.8911 121.515 77.4446C121.515 77.4446 121.146 79.7047 116.119 79.2434C116.119 79.2434 96.9772 83.7175 90.1508 82.3338C90.1508 82.3338 80.9721 85.9776 69.5794 82.795C69.5794 82.795 69.9945 70.8488 64.2751 66.1441C64.2751 66.1441 54.6812 56.8731 56.3878 79.8892C56.3878 79.8892 28.252 72.417 27.1912 71.1256C27.1912 71.1256 27.3756 53.6444 19.719 55.3972C19.719 55.3972 16.4442 55.6739 17.6434 66.1441C17.6434 66.1441 15.4756 65.729 17.2744 51.8456C17.2744 51.8456 18.9349 48.7091 18.8888 46.5874C18.8888 46.5874 18.7043 43.6816 19.8113 40.7296Z" stroke="white" stroke-width="2" stroke-miterlimit="10"/>
<path d="M120.362 83.7635C120.362 83.7635 117.871 97.5085 103.942 98.1543C103.942 98.1543 67.2268 106.549 16.5823 98.2004C16.5823 98.2004 0.807764 99.0768 0.715515 77.4445C0.715515 77.4445 -2.05194 63.1459 3.29848 49.6315C3.29848 49.6008 3.29848 49.5854 3.29848 49.5854C3.29848 49.5854 3.16011 43.3125 8.51053 36.3016C8.51053 36.3016 13.2613 28.645 13.2613 28.3221C13.2613 28.3221 23.547 5.99793 31.9417 2.21574C31.9417 2.21574 41.8584 0.0478975 54.1275 0.00177323C54.1275 0.00177323 72.5772 -0.136595 83.2319 2.03125C83.3241 2.03125 90.1044 2.07737 101.082 19.6968C101.082 19.6968 110.676 35.1485 111.368 36.1632C111.368 36.1632 119.947 43.4509 119.209 53.0447C119.209 53.0755 119.209 53.1062 119.209 53.137C119.439 53.9211 124.19 70.8026 120.362 83.7635Z" fill="#EF6E0B"/>
<path d="M2.46724 73.2933C2.46724 73.2933 0.806761 70.4798 0.806761 73.7085C0.806761 73.7085 -0.992085 86.9461 5.09632 91.1896C5.09632 91.1896 9.01689 93.6803 9.43201 89.5752C9.43201 89.5752 10.3084 84.2248 6.29556 79.9814C6.29556 79.9814 2.60561 73.893 2.46724 73.2933Z" fill="#3D4039"/>
<path d="M13.2149 30.49C12.892 31.0435 12.523 31.5047 12.1079 31.9659C12.1079 31.9659 7.91061 31.7815 4.86641 29.4752C4.86641 29.4752 4.58966 27.0306 4.82029 26.8923C5.05091 26.8 5.74277 22.8795 14.737 23.5713C14.737 23.5713 14.7831 27.6303 13.2149 30.49Z" fill="#1C1C1C"/>
<path d="M113.534 26.5694C113.534 26.5694 113.519 26.5848 113.488 26.6156C110.49 28.8756 106.339 29.1063 106.339 29.1063C105.785 28.5528 105.232 27.8609 104.724 27.1229C102.925 24.4477 101.818 21.0345 101.818 21.0345C101.911 21.0345 102.003 21.0345 102.095 21.0345C111.366 19.8353 113.396 23.8942 113.58 23.9865C113.811 24.1248 113.534 26.5694 113.534 26.5694Z" fill="#1C1C1C"/>
<path d="M113.581 23.9865L105.555 24.2632L102.096 21.0806C102.096 21.0499 102.096 21.0345 102.096 21.0345C111.367 19.8353 113.396 23.8942 113.581 23.9865Z" fill="#7A7974"/>
<path d="M113.488 26.6156C110.49 28.8757 106.339 29.1063 106.339 29.1063C105.785 28.5528 105.232 27.861 104.725 27.123C106.062 27.1691 112.427 27.3075 113.488 26.6156Z" fill="#050505"/>
<path d="M14.737 23.5713C14.737 23.5713 13.3072 25.9698 11.739 27.2613C10.1707 28.5527 4.82031 26.8923 4.82031 26.8923C5.05093 26.8 5.78892 22.8795 14.737 23.5713Z" fill="#7A7974"/>
<path d="M13.2137 30.4901C12.8909 31.0436 12.5219 31.5048 12.1067 31.9661C12.1067 31.9661 7.90944 31.7816 4.86523 29.4753C4.86523 29.4753 12.3374 30.6284 12.9831 30.3978C13.0754 30.3671 13.1522 30.3978 13.2137 30.4901Z" fill="#050505"/>
<path d="M120.362 83.7636C120.362 83.7636 118.794 92.3888 111.229 96.3094C109.246 97.3241 106.801 98.016 103.942 98.1544C103.942 98.1544 67.2268 106.549 16.5823 98.2005C16.5823 98.2005 14.2761 98.2927 11.4625 97.278C6.85005 95.6175 0.761639 90.8667 0.715515 77.4445C0.715515 77.4445 -2.05194 63.146 3.29848 49.6316C3.02173 50.4618 0.0697775 59.5944 2.60661 64.8526C2.60661 64.8526 15.5675 73.3856 19.442 73.6623C19.4727 73.6623 19.4881 73.6623 19.4881 73.6623C19.4881 73.6623 73.4074 80.9961 103.388 72.417C110.353 70.3875 116.026 67.5739 119.439 63.6073C119.439 63.6073 119.855 55.5816 119.209 53.1832C119.532 54.2901 124.144 70.941 120.362 83.7636Z" fill="#EF6E0B"/>
<path d="M4.31318 57.1499C4.31318 57.1499 2.28372 62.0851 2.60659 64.8526C2.60659 64.8526 -0.299245 59.0409 3.29845 49.6316C3.29845 49.6316 2.65271 52.7219 4.31318 57.1499Z" fill="#E27E05"/>
<path d="M117.732 57.3343C117.732 57.3343 119.531 61.0704 119.439 63.6072C119.439 63.6072 120.131 55.0281 119.347 53.8289C119.347 53.8289 118.055 57.0576 117.732 57.3343Z" fill="#E27E05"/>
<path d="M118.795 69.1882C118.795 69.1882 120.409 66.3747 120.455 69.6034C120.455 69.6034 122.346 82.841 116.258 87.1306C116.258 87.1306 112.383 89.6674 111.922 85.5162C111.922 85.5162 111.046 80.2119 115.012 75.9224C115.012 75.9224 118.656 69.834 118.795 69.1882Z" fill="#3D4039"/>
<path d="M117.042 84.686C117.042 84.686 113.167 87.2229 112.706 83.0717C112.706 83.0717 112.429 81.3651 112.891 79.1511C111.415 82.4721 111.922 85.5163 111.922 85.5163C112.383 89.6675 116.258 87.1306 116.258 87.1306C118.287 85.7469 119.44 83.3023 120.04 80.7194C119.394 82.3337 118.426 83.7636 117.042 84.686Z" fill="#E27E05"/>
<path d="M118.656 82.2414C117.227 83.9941 115.059 84.6399 113.767 83.6251C112.522 82.6104 112.66 80.3503 114.09 78.5515C115.52 76.7987 117.688 76.1991 118.933 77.2138C120.225 78.2286 120.086 80.4887 118.656 82.2414Z" fill="#D6E3DD"/>
<path d="M9.25024 85.793C9.25024 86.4848 9.20412 86.8538 9.20412 86.8538C8.789 91.005 4.86843 88.5143 4.86843 88.5143C2.23935 86.7154 1.08624 83.2561 0.625 79.889C0.809497 83.948 1.77811 88.8833 5.09906 91.1895C5.09906 91.1895 9.01963 93.6802 9.43474 89.5751C9.43474 89.5751 9.71149 87.9608 9.25024 85.793Z" fill="#E27E05"/>
<path d="M3.11504 85.9776C4.54489 87.7303 6.66661 88.4222 7.7736 87.4535C8.9267 86.5311 8.69608 84.3632 7.22011 82.6105C5.79025 80.8578 3.71466 80.1659 2.60768 81.0884C1.45457 82.057 1.68519 84.2248 3.11504 85.9776Z" fill="#D6E3DD"/>
<path d="M28.252 61.3471C28.252 61.3471 8.41851 55.9045 4.31345 57.1498C4.31345 57.1498 2.46848 52.1684 3.29872 49.5854C3.85221 47.925 3.52934 46.0339 4.68245 42.9435C5.32819 41.1908 6.43517 39.023 8.51077 36.3016C8.51077 36.3016 11.6011 36.071 11.7856 36.1633C11.7856 36.1633 14.8298 43.4509 23.6857 49.3087C23.6857 49.3087 28.252 60.1479 28.252 61.3471Z" fill="#D6E3DD"/>
<path d="M117.733 57.3343C113.581 56.0889 95.639 61.8083 95.639 61.8083C95.5929 60.6091 99.9747 49.6776 99.9747 49.6776C108.831 43.7276 109.891 36.6706 109.891 36.6706C110.122 36.5783 111.552 36.4399 111.552 36.4399C114.227 38.4694 115.934 41.1446 117.087 43.6815C118.424 46.7718 118.978 49.7237 119.439 51.1536C120.316 53.7366 117.733 57.3343 117.733 57.3343Z" fill="#D6E3DD"/>
<path d="M32.6334 3.36891C42.5963 2.4003 64.0902 3.7379 86.5989 4.06077C86.5989 4.06077 100.851 16.8372 103.434 27.1691C103.434 27.1691 18.2888 27.907 17.5508 26.3849C17.5508 26.3849 29.6353 3.64565 32.6334 3.36891Z" fill="#3D4039"/>
<path d="M77.8357 25.8314C44.5339 25.9698 29.6819 25.7391 23.1323 25.4624C21.564 25.4163 20.6416 23.7558 21.3795 22.4182C25.623 14.8077 30.1432 7.52004 32.2188 5.3522C32.5416 5.02933 33.0029 4.7987 33.5102 4.75258C35.632 4.56808 38.3072 4.52195 41.6742 4.47583C47.901 4.47583 55.8344 4.70645 64.2751 4.9832C71.0554 5.1677 78.0202 5.39832 85.2156 5.49057C85.7691 5.49057 86.2303 5.72119 86.5993 6.09018C89.2284 8.53477 96.3777 15.684 100.068 22.6949C100.806 24.0787 99.837 25.7391 98.2688 25.7391C93.6102 25.7853 86.2303 25.8314 77.8357 25.8314Z" fill="#D6E3DD"/>
<path d="M17.5511 26.3849C17.5511 26.3849 13.1693 32.6117 13.5844 34.0415C13.5844 34.0415 65.5203 27.3074 84.1546 34.3183C84.1546 34.3183 108.37 34.5489 110.584 36.6706C112.752 38.7923 105.141 27.169 103.435 27.169C101.774 27.169 18.7042 29.014 17.5511 26.3849Z" fill="#F7D877"/>
<mask id="mask0_203_1870" style="mask-type:luminance" maskUnits="userSpaceOnUse" x="21" y="4" width="80" height="22">
<path d="M77.8227 25.8454C44.5117 25.9653 29.6689 25.7301 23.1147 25.4764C21.5741 25.4164 20.6424 23.7513 21.3896 22.4045C25.61 14.8217 30.1256 7.51558 32.215 5.36619C32.5609 5.01564 33.0176 4.79885 33.5111 4.75734C35.6236 4.59129 38.3126 4.49904 41.6982 4.48982C47.9019 4.46676 55.8583 4.70661 64.2806 4.96491C71.0424 5.16785 78.021 5.38002 85.2349 5.50456C85.7515 5.51378 86.245 5.71212 86.6186 6.06728C89.2246 8.54876 96.3693 15.6796 100.087 22.6812C100.82 24.0604 99.8425 25.7208 98.2834 25.7347C93.6249 25.767 86.2312 25.8131 77.8227 25.8454Z" fill="white"/>
</mask>
<g mask="url(#mask0_203_1870)">
<path opacity="0.6" d="M18.7949 35.9329L30.695 47.095L82.8616 -8.2542L70.9615 -19.4624L18.7949 35.9329Z" fill="white"/>
<path opacity="0.5" d="M35.123 51.2923L40.7963 56.6427L92.9629 1.24739L87.2896 -4.10303L35.123 51.2923Z" fill="white"/>
</g>
<path opacity="0.6" d="M23.6849 49.3087C10.5855 50.4618 4.95839 43.3587 4.68164 42.9435C5.32738 41.1908 6.48049 39.023 8.50996 36.3016C8.50996 36.3016 11.6003 36.071 11.7848 36.1633C11.7848 36.1633 14.829 43.4509 23.6849 49.3087Z" fill="white"/>
<path opacity="0.5" d="M117.087 43.6816C117.056 43.7123 117.01 43.7431 116.948 43.7738C110.076 49.8161 99.9746 49.6777 99.9746 49.6777C108.83 43.7277 109.891 36.6707 109.891 36.6707C110.122 36.5784 111.552 36.4401 111.552 36.4401C114.227 38.4695 115.934 41.1447 117.087 43.6816Z" fill="white"/>
<path d="M111.23 96.171C111.23 96.2017 111.23 96.2478 111.23 96.3093C109.846 97.0012 108.278 97.5547 106.479 97.8776C105.679 98.0006 104.834 98.0928 103.942 98.1543C103.942 98.1543 67.2272 106.549 16.5827 98.2004C16.5827 98.2004 15.3835 98.2465 13.6769 97.8776C12.985 97.7853 12.247 97.5547 11.4629 97.2779C11.4629 96.8628 11.509 94.0031 13.2617 90.3132C13.2617 90.3132 13.8614 80.0275 19.4424 73.6623C21.1951 71.679 23.4552 70.0646 26.2688 69.2805C26.2688 69.2805 46.0561 63.2843 47.3937 63.1921C48.7313 63.146 70.6404 57.8417 99.4219 69.6956C99.4219 69.6956 101.267 70.3875 103.389 72.4169C106.387 75.1844 109.938 80.5809 109.754 90.2209C109.754 90.2209 111.46 94.6027 111.23 96.171Z" fill="#434443"/>
<mask id="mask1_203_1870" style="mask-type:luminance" maskUnits="userSpaceOnUse" x="11" y="61" width="101" height="41">
<path d="M111.25 96.1617C111.243 96.1986 111.233 96.2432 111.217 96.2955C109.838 97.0058 108.265 97.55 106.467 97.8683C105.667 98.0098 104.821 98.102 103.93 98.1451C103.93 98.1451 67.2101 106.567 16.5795 98.1773C16.5795 98.1773 15.3941 98.2465 13.6737 97.9006C13.0002 97.7714 12.2484 97.5731 11.4551 97.2825C11.4551 96.8397 11.5335 94.0215 13.277 90.2947C13.277 90.2947 13.8582 80.0274 19.4669 73.6577C21.2104 71.6697 23.4382 70.0692 26.2933 69.262C26.2933 69.262 46.0437 63.2889 47.3951 63.2105C48.742 63.1321 70.6372 57.8647 99.4141 69.7094C99.4141 69.7094 101.278 70.3921 103.413 72.3985C106.407 75.1936 109.944 80.5625 109.732 90.2255C109.732 90.2255 111.457 94.6119 111.25 96.1617Z" fill="white"/>
</mask>
<g mask="url(#mask1_203_1870)">
<path d="M4.82227 65.7752L126.867 65.3601" stroke="#4B4C4B" stroke-width="2" stroke-miterlimit="10"/>
<path d="M5.05273 69.3729L127.098 68.9116" stroke="#4B4C4B" stroke-width="2" stroke-miterlimit="10"/>
<path d="M5.2832 72.9244L127.328 72.4631" stroke="#4B4C4B" stroke-width="2" stroke-miterlimit="10"/>
<path d="M5.51172 76.476L127.557 76.0609" stroke="#4B4C4B" stroke-width="2" stroke-miterlimit="10"/>
<path d="M5.74414 80.0274L127.789 79.6123" stroke="#4B4C4B" stroke-width="2" stroke-miterlimit="10"/>
<path d="M5.97461 83.6253L128.02 83.1641" stroke="#4B4C4B" stroke-width="2" stroke-miterlimit="10"/>
<path d="M6.20508 87.1768L128.25 86.7156" stroke="#4B4C4B" stroke-width="2" stroke-miterlimit="10"/>
<path d="M6.43555 90.7285L128.48 90.2672" stroke="#4B4C4B" stroke-width="2" stroke-miterlimit="10"/>
<path d="M6.66602 94.28L128.711 93.8649" stroke="#4B4C4B" stroke-width="2" stroke-miterlimit="10"/>
<path d="M109.754 90.221C109.938 80.5811 106.387 75.1845 103.389 72.4171C102.328 71.3562 101.267 70.6643 100.529 70.2492C99.8371 69.8802 99.4219 69.6957 99.4219 69.6957C70.6404 57.8418 48.7313 63.1461 47.3937 63.1922C47.363 63.1922 47.3015 63.2076 47.2092 63.2383C47.1785 63.2383 47.1477 63.2383 47.117 63.2383C47.0555 63.2691 46.9786 63.2845 46.8864 63.2845C46.8556 63.3152 46.8249 63.3306 46.7941 63.3306C46.7019 63.3613 46.5942 63.3767 46.4712 63.3767C46.4405 63.4075 46.3944 63.4228 46.3329 63.4228C46.2406 63.4536 46.1176 63.4843 45.9639 63.5151C45.9331 63.5458 45.887 63.5612 45.8255 63.5612C45.6717 63.5919 45.518 63.6381 45.3643 63.6996C45.3335 63.6996 45.2874 63.6996 45.2259 63.6996C45.0414 63.7611 44.8569 63.8226 44.6724 63.8841C44.6416 63.8841 44.6109 63.8841 44.5801 63.8841C44.3649 63.9456 44.1343 64.0071 43.8883 64.0686C43.8883 64.0993 43.8729 64.1147 43.8421 64.1147C37.7999 65.7752 26.2688 69.2806 26.2688 69.2806C23.4552 70.0647 21.1951 71.6791 19.4424 73.6624C13.8614 80.0276 13.2617 90.3133 13.2617 90.3133C11.509 94.0032 11.4629 96.8629 11.4629 97.2781C12.1548 97.5548 12.8466 97.7393 13.4924 97.8316C13.5385 96.9091 13.8152 94.3722 15.2912 91.1897C15.2912 91.1897 15.8908 80.9501 21.4719 74.5849C23.2246 72.5554 25.4386 70.9872 28.2983 70.157C28.2983 70.157 48.0395 64.2069 49.4232 64.1147C50.2073 64.0686 57.8178 62.3158 69.7179 63.1C77.6051 63.9763 87.0606 66.0058 97.3925 70.2492C97.3925 70.2492 99.2836 70.9411 101.405 72.9706C104.403 75.738 107.448 81.0423 107.217 90.7284C107.217 90.7284 109.016 92.2505 109.062 97.2319C109.016 97.3242 110.031 96.9091 111.23 96.3095C111.23 96.248 111.23 96.2018 111.23 96.1711C111.46 94.6029 109.754 90.221 109.754 90.221Z" fill="#2A2B2A"/>
</g>
<path d="M81.6644 86.1159L43.3351 86.2543C41.2133 86.3004 39.5067 84.5477 39.5067 82.426V79.5663C39.4606 77.4446 41.2133 75.738 43.3351 75.6918L81.6182 75.5535C83.74 75.5535 85.4466 77.2601 85.4927 79.3818V82.2876C85.4927 84.4093 83.7861 86.1159 81.6644 86.1159Z" fill="#BFC4C1"/>
<path d="M109.015 97.0936C108 97.4626 107.17 97.6932 106.478 97.8316C105.279 98.1083 104.495 98.1083 103.941 98.1544C103.941 98.1544 67.2261 106.549 16.5817 98.2006C16.5817 98.2006 15.3824 98.2467 13.6758 97.8777C13.6451 97.8162 13.6297 97.7547 13.6297 97.6932C12.984 94.9257 15.2902 90.8668 15.2902 90.8668C17.4119 89.3908 19.672 91.7893 19.672 91.7893C55.9257 102.721 93.7476 94.28 104.356 91.4664C106.247 91.0052 107.262 90.6823 107.262 90.6823C108.969 92.2966 109.061 96.3095 109.015 97.0936Z" fill="#EF6E0B"/>
<path d="M19.6728 91.7431C19.6728 91.7431 17.0899 91.9737 16.5825 98.2005C16.5825 98.2005 15.1988 98.2004 13.4922 97.8315C12.6619 95.064 15.291 90.8206 15.291 90.8206C17.4127 89.3907 19.6728 91.7431 19.6728 91.7431Z" fill="#2A2B2A"/>
<path d="M109.062 97.2318C108.047 97.6008 107.171 97.693 106.479 97.8314C107.448 95.0178 104.773 91.9736 104.357 91.4662C106.249 91.005 107.263 90.6821 107.263 90.6821C108.97 92.2965 109.108 96.4477 109.062 97.2318Z" fill="#2A2B2A"/>
<path d="M104.356 91.4664C94.9467 103.366 36.5534 98.4773 36.5534 98.4773C24.5149 97.232 19.6719 91.7893 19.6719 91.7893C55.9256 102.721 93.7475 94.28 104.356 91.4664Z" fill="#E27E05"/>
<path d="M23.6855 49.3087C23.6855 49.3087 43.7496 53.5983 50.8989 53.1832C50.8989 53.1832 62.5222 49.2626 75.2525 53.2754C75.2525 53.2754 95.5011 51.6149 99.9751 49.6777L99.0527 51.8456C99.0527 51.8456 69.9944 57.934 69.9021 58.1646C69.856 58.3491 64.6901 52.9987 55.6036 57.8417L24.5619 51.4304L23.6855 49.3087Z" fill="#EF6E0B"/>
<path d="M24.2383 51.1075L55.2338 58.1646C55.2338 58.1646 62.6137 52.3068 69.8552 58.2568L99.4209 51.5688L95.7771 59.3638L77.0506 63.0999C77.0506 63.0999 65.5657 84.8244 46.1935 62.8231L27.7899 59.1332L24.2383 51.1075Z" fill="#2E302A"/>
<path d="M25.7148 53.9211L50.7142 59.5483C50.7142 59.5483 53.8968 60.7475 53.7584 62.8231C53.7584 62.8231 61.9685 73.893 71.1934 62.6386C71.1934 62.6386 71.5624 59.3638 76.1748 59.3177L97.7149 54.244L97.1153 55.5816L76.9128 60.7937C76.9128 60.7937 74.9295 62.1774 73.269 64.2069C73.269 64.2069 62.1069 76.5682 51.8212 63.884C51.8212 63.884 49.3305 61.2088 48.039 60.8398C46.7475 60.4708 26.4067 55.351 26.4067 55.351L25.7148 53.9211Z" fill="#D6E3DD"/>
<path d="M69.3487 61.8085C69.3487 64.2992 66.3506 66.3286 62.6607 66.3286C59.0169 66.3286 56.0188 64.3453 55.9727 61.8546C55.9727 59.41 58.9707 57.3805 62.6607 57.3805C66.3506 57.3344 69.3026 59.3639 69.3487 61.8085Z" fill="#D6E3DD"/>
</svg>
