<svg width="36" height="36" viewBox="0 0 36 36" fill="none" xmlns="http://www.w3.org/2000/svg">
<circle cx="18" cy="18" r="18" fill="white"/>
<circle cx="18" cy="18" r="17.5" stroke="black" stroke-opacity="0.1"/>
<g clip-path="url(#clip0_40_272)">
<path d="M18.0008 20.16C19.1938 20.16 20.1608 19.1929 20.1608 18C20.1608 16.807 19.1938 15.84 18.0008 15.84C16.8079 15.84 15.8408 16.807 15.8408 18C15.8408 19.1929 16.8079 20.16 18.0008 20.16Z" fill="#EF6E0B"/>
<path d="M26.0678 17.8163C25.4326 16.1735 24.33 14.7527 22.8962 13.7297C21.4624 12.7066 19.7603 12.1261 18.0002 12.0599C16.24 12.1261 14.5379 12.7066 13.1041 13.7297C11.6703 14.7527 10.5677 16.1735 9.93256 17.8163C9.88967 17.935 9.88967 18.0649 9.93256 18.1835C10.5677 19.8264 11.6703 21.2472 13.1041 22.2702C14.5379 23.2933 16.24 23.8737 18.0002 23.9399C19.7603 23.8737 21.4624 23.2933 22.8962 22.2702C24.33 21.2472 25.4326 19.8264 26.0678 18.1835C26.1107 18.0649 26.1107 17.935 26.0678 17.8163ZM18.0002 21.5099C17.3059 21.5099 16.6273 21.3041 16.0501 20.9184C15.4729 20.5327 15.023 19.9845 14.7573 19.3432C14.4917 18.7018 14.4222 17.996 14.5576 17.3152C14.693 16.6343 15.0273 16.0089 15.5182 15.518C16.0091 15.0271 16.6345 14.6928 17.3154 14.5574C17.9963 14.4219 18.702 14.4915 19.3434 14.7571C19.9847 15.0228 20.5329 15.4727 20.9186 16.0499C21.3043 16.6271 21.5102 17.3057 21.5102 17.9999C21.5087 18.9304 21.1385 19.8224 20.4805 20.4803C19.8226 21.1382 18.9306 21.5085 18.0002 21.5099Z" fill="#EF6E0B"/>
</g>
<defs>
<clipPath id="clip0_40_272">
<rect width="17.28" height="17.28" fill="white" transform="translate(9.36035 9.35999)"/>
</clipPath>
</defs>
</svg>
