<svg width="231" height="165" viewBox="0 0 231 165" fill="none" xmlns="http://www.w3.org/2000/svg">
<path d="M229.295 128.997H202.298C202.298 128.997 215.624 92.3574 223.343 92.3574C231.042 92.3574 229.295 128.997 229.295 128.997Z" fill="#263238"/>
<path opacity="0.3" d="M229.295 128.997H202.298C202.298 128.997 215.624 92.3574 223.343 92.3574C231.042 92.3574 229.295 128.997 229.295 128.997Z" fill="black"/>
<path d="M167.357 138.337H131.443C131.443 138.337 142.21 92.7051 154.783 92.7051C167.357 92.7051 167.357 138.337 167.357 138.337Z" fill="#263238"/>
<path opacity="0.3" d="M167.357 138.337H131.443C131.443 138.337 142.21 92.7051 154.783 92.7051C167.357 92.7051 167.357 138.337 167.357 138.337Z" fill="black"/>
<path d="M62.8057 61.6777C63.2932 61.6777 64.7964 61.6777 65.1214 61.6777C65.4668 61.6777 65.9746 63.8011 65.9746 64.4295C65.9746 65.0579 64.5527 67.723 64.3902 67.5713C64.248 67.3979 54.0101 67.5713 52.5069 67.5713C51.0037 67.5713 44.4019 66.2062 43.5284 65.3179C42.6549 64.4295 41.883 61.5477 41.9846 60.6593C42.0658 59.771 45.4785 56.6725 48.8708 55.4808C52.2631 54.2891 58.2352 54.4841 59.3525 54.5924C60.4697 54.7008 62.3182 58.9259 62.6635 59.7926C62.9885 60.681 62.8057 61.6777 62.8057 61.6777Z" fill="#263238"/>
<path d="M61.7486 60.6593C61.6877 61.3744 60.2251 64.1695 59.6361 64.2128C53.9686 64.7978 45.5386 64.0611 42.6744 63.7795C42.2072 62.6311 41.9025 61.2227 41.9838 60.6593C42.0651 59.771 45.4777 56.6725 48.87 55.4808C52.2623 54.2891 58.2345 54.4841 59.3517 54.5924C59.697 54.6141 60.083 55.0258 60.4892 55.5891C60.5028 55.6036 60.5095 55.6108 60.5095 55.6108C62.094 59.0343 61.8299 59.9443 61.7486 60.6593Z" fill="#EF6E0B"/>
<path d="M51.5723 64.4309L42.736 63.9758C42.5735 63.5642 42.411 63.1091 42.2891 62.6758C43.5688 62.7625 49.6831 63.0441 50.1706 63.2175C50.7191 63.4125 51.5723 64.4309 51.5723 64.4309Z" fill="#DBDBDB"/>
<path d="M115.702 134.155C115.702 150.904 124.051 164.511 134.37 164.511H147.736V103.777H134.37C124.051 103.777 115.702 117.385 115.702 134.155Z" fill="#37474F"/>
<path d="M129.068 134.155C129.068 150.926 137.417 164.511 147.736 164.511C158.035 164.511 166.404 150.926 166.404 134.155C166.404 117.385 158.035 103.777 147.736 103.777C137.417 103.777 129.068 117.385 129.068 134.155Z" fill="#263238"/>
<path d="M134.107 134.154C134.107 146.397 140.201 156.32 147.737 156.32C155.253 156.32 161.367 146.397 161.367 134.154C161.367 121.912 155.253 111.967 147.737 111.967C140.201 111.967 134.107 121.912 134.107 134.154Z" fill="#DBDBDB"/>
<path d="M135.163 134.155C135.163 145.444 140.789 154.588 147.737 154.588C154.684 154.588 160.311 145.444 160.311 134.155C160.311 122.867 154.684 113.701 147.737 113.701C140.789 113.701 135.163 122.867 135.163 134.155Z" fill="#A6A6A6"/>
<path d="M145.096 132.941C145.767 132.053 146.417 130.926 147.209 129.865C146.457 129.605 146.031 126.614 147.676 122.844C148.996 119.226 152.368 114.871 152.328 114.979C151.861 114.524 151.434 113.961 151.028 113.311C146.782 120.006 146.579 121.414 145.502 121.956C144.67 122.108 144.121 121.739 144.426 113.311C143.552 114.156 142.74 115.001 141.988 115.781C142.049 115.716 142.252 121.978 143.024 125.683C143.695 129.843 144.913 131.446 145.096 132.941Z" fill="#DBDBDB"/>
<path d="M147.493 129.822C148.245 130.602 149.139 131.23 150.032 132.119C150.012 131.057 151.454 129.15 154.258 130.667C156.858 131.685 160.798 136.127 160.819 136.322C160.832 135.109 160.846 133.903 160.859 132.704C155.294 127.958 154.542 128.305 153.709 126.745C153.14 125.51 154.42 123.668 157.934 120.981C157.244 120.093 156.655 119.335 156.228 118.555C156.37 118.62 152.47 121.935 150.825 124.34C148.935 126.745 148.265 129.128 147.493 129.822Z" fill="#DBDBDB"/>
<path d="M150.175 132.551C149.952 133.916 149.87 135.454 149.627 137.058C150.256 136.733 151.861 138.336 151.82 143.103C152.024 147.393 150.541 154.847 150.398 154.998C151.313 154.175 152.145 153.373 152.897 152.615C153.77 143.558 153.364 142.388 153.974 140.741C154.502 139.528 155.842 141.066 158.422 145.508C158.727 144.62 159.072 143.97 159.479 143.493C159.438 143.515 156.35 137.838 154.441 135.953C152.43 133.656 150.845 133.612 150.175 132.551Z" fill="#DBDBDB"/>
<path d="M149.424 137.383C148.53 137.448 147.596 137.773 146.539 137.881C147.088 138.791 146.397 141.543 143.98 143.125C141.827 144.858 136.505 145.79 136.525 145.725C137.276 146.7 137.926 147.523 138.434 148.303C142.639 146.462 144.914 145.205 145.808 145.638C146.397 146.223 146.844 146.938 143.716 153.33C144.183 153.785 144.63 154.327 145.056 154.999C145.158 154.782 147.738 148.953 148.53 145.161C149.627 140.98 148.896 138.856 149.424 137.383Z" fill="#DBDBDB"/>
<path d="M146.275 137.643C145.93 136.3 145.443 134.978 145.036 133.418C144.671 134.588 142.802 134.025 141.136 130.948C139.47 128.218 137.48 121.046 137.52 121.263C137.195 122.259 136.87 123.039 136.484 123.624C138.841 129.626 140.161 132.681 140.161 134.155C139.938 135.217 139.734 136.192 134.616 132.703C134.629 133.931 134.643 135.159 134.656 136.387C134.778 136.408 138.963 138.51 141.421 138.553C144.203 138.943 145.239 137.297 146.275 137.643Z" fill="#DBDBDB"/>
<path d="M145.747 136.929C146.762 138.684 148.469 138.814 149.525 137.232C150.602 135.651 150.642 132.942 149.627 131.209C148.611 129.475 146.945 129.324 145.869 130.884C144.772 132.444 144.711 135.174 145.747 136.929Z" fill="#DBDBDB"/>
<path d="M3.93857 126.985C3.93857 143.756 12.3077 157.341 22.6065 157.341H35.9727V96.6289H22.6065C12.3077 96.6289 3.93857 110.214 3.93857 126.985Z" fill="#37474F"/>
<path d="M17.3048 126.985C17.3048 143.756 25.6535 157.341 35.9727 157.341C46.2918 157.341 54.6406 143.756 54.6406 126.985C54.6406 110.214 46.2918 96.6289 35.9727 96.6289C25.6535 96.6289 17.3048 110.214 17.3048 126.985Z" fill="#263238"/>
<path d="M22.343 126.984C22.343 139.226 28.437 149.15 35.9733 149.15C43.5095 149.15 49.6035 139.226 49.6035 126.984C49.6035 114.742 43.5095 104.818 35.9733 104.818C28.437 104.818 22.343 114.742 22.343 126.984Z" fill="#DBDBDB"/>
<path d="M23.399 126.985C23.399 138.274 29.0258 147.418 35.9729 147.418C42.9201 147.418 48.5469 138.274 48.5469 126.985C48.5469 115.697 42.9201 106.531 35.9729 106.531C29.0258 106.531 23.399 115.697 23.399 126.985Z" fill="#A6A6A6"/>
<path d="M33.3325 125.773C34.0232 124.885 34.6529 123.758 35.4451 122.697C34.6935 122.437 34.2873 119.446 35.9123 115.698C37.2327 112.079 40.6047 107.703 40.5641 107.811C40.0969 107.356 39.6703 106.814 39.264 106.143C35.0185 112.86 34.8154 114.246 33.7388 114.788C32.9263 114.94 32.3575 114.571 32.6825 106.143C31.7887 106.988 30.9762 107.854 30.2246 108.634C30.2855 108.548 30.4887 114.81 31.2606 118.515C31.9309 122.675 33.17 124.278 33.3325 125.773Z" fill="#DBDBDB"/>
<path d="M35.7295 122.654C36.4811 123.434 37.3749 124.062 38.2687 124.951C38.2484 123.889 39.6906 121.982 42.4939 123.499C45.094 124.517 49.0347 128.959 49.0551 129.154C49.0686 127.955 49.0822 126.749 49.0957 125.536C43.5299 120.79 42.7782 121.159 41.9657 119.599C41.3766 118.342 42.6564 116.5 46.1706 113.813C45.4799 112.947 44.8908 112.167 44.4643 111.387C44.6065 111.452 40.7063 114.789 39.0609 117.172C37.1718 119.577 36.5014 121.96 35.7295 122.654Z" fill="#DBDBDB"/>
<path d="M38.4113 125.383C38.1879 126.748 38.1066 128.286 37.8832 129.89C38.4926 129.565 40.1177 131.168 40.0567 135.957C40.2599 140.225 38.777 147.679 38.6348 147.83C39.5489 147.029 40.3817 146.205 41.1333 145.447C42.0068 136.39 41.6005 135.22 42.2099 133.573C42.7381 132.36 44.0788 133.898 46.6586 138.34C46.9633 137.473 47.3086 136.802 47.7148 136.325C47.6742 136.347 44.5866 130.67 42.6771 128.785C40.6661 126.488 39.0817 126.445 38.4113 125.383Z" fill="#DBDBDB"/>
<path d="M37.6602 130.215C36.7664 130.28 35.832 130.605 34.7757 130.713C35.3241 131.623 34.6335 134.375 32.2162 135.957C30.063 137.69 24.7409 138.622 24.7612 138.557C25.5128 139.532 26.1628 140.355 26.6707 141.157C30.8755 139.294 33.1506 138.037 34.0444 138.47C34.6335 139.055 35.0804 139.792 31.9521 146.162C32.4193 146.617 32.8662 147.181 33.2928 147.831C33.3944 147.614 35.9741 141.785 36.7664 137.993C37.8633 133.833 37.132 131.688 37.6602 130.215Z" fill="#DBDBDB"/>
<path d="M34.5117 130.475C34.1664 129.132 33.6789 127.81 33.2726 126.25C32.907 127.42 31.0381 126.878 29.3724 123.78C27.7067 121.05 25.7161 113.878 25.7567 114.095C25.4317 115.113 25.1067 115.871 24.7207 116.456C27.0771 122.48 28.3974 125.513 28.3974 126.987C28.174 128.07 27.9708 129.045 22.8519 125.535C22.8654 126.763 22.879 127.991 22.8925 129.219C23.0144 129.24 27.1989 131.342 29.6568 131.407C32.4398 131.797 33.4757 130.129 34.5117 130.475Z" fill="#DBDBDB"/>
<path d="M33.9816 129.759C34.9972 131.514 36.7036 131.644 37.7599 130.062C38.8568 128.481 38.8771 125.772 37.8614 124.039C36.8458 122.305 35.1801 122.154 34.1035 123.714C33.0065 125.296 32.9659 128.026 33.9816 129.759Z" fill="#DBDBDB"/>
<path d="M198.193 127.048C198.193 140.222 201.423 150.925 205.404 150.925H219.807V103.148H205.404C201.423 103.148 198.193 113.852 198.193 127.048Z" fill="#37474F"/>
<path d="M212.595 127.048C212.595 140.222 215.825 150.925 219.806 150.925C223.788 150.925 227.018 140.222 227.018 127.048C227.018 113.852 223.788 103.148 219.806 103.148C215.825 103.148 212.595 113.852 212.595 127.048Z" fill="#263238"/>
<path d="M214.546 127.048C214.546 136.668 216.902 144.469 219.807 144.469C222.712 144.469 225.068 136.668 225.068 127.048C225.068 117.406 222.712 109.605 219.807 109.605C216.902 109.605 214.546 117.406 214.546 127.048Z" fill="#DBDBDB"/>
<path d="M214.952 127.048C214.952 135.91 217.126 143.125 219.807 143.125C222.489 143.125 224.662 135.91 224.662 127.048C224.662 118.164 222.489 110.971 219.807 110.971C217.126 110.971 214.952 118.164 214.952 127.048Z" fill="#A6A6A6"/>
<path d="M218.791 126.093C219.055 125.378 219.299 124.49 219.604 123.667C219.319 123.472 219.157 121.11 219.786 118.163C220.294 115.303 221.594 111.88 221.574 111.966C221.391 111.598 221.229 111.165 221.066 110.645C219.441 115.931 219.36 117.015 218.933 117.448C218.629 117.578 218.405 117.275 218.527 110.645C218.182 111.316 217.877 111.988 217.593 112.595C217.613 112.53 217.694 117.47 217.979 120.373C218.243 123.645 218.71 124.902 218.791 126.093Z" fill="#DBDBDB"/>
<path d="M219.706 123.624C220.01 124.252 220.356 124.75 220.701 125.444C220.681 124.599 221.249 123.104 222.326 124.295C223.321 125.097 224.845 128.585 224.845 128.737C224.858 127.798 224.865 126.852 224.865 125.899C222.712 122.172 222.428 122.454 222.123 121.218C221.899 120.243 222.387 118.792 223.748 116.69C223.464 115.997 223.24 115.39 223.078 114.783C223.139 114.827 221.635 117.448 220.985 119.312C220.274 121.218 220.01 123.082 219.706 123.624Z" fill="#DBDBDB"/>
<path d="M220.742 125.768C220.661 126.851 220.641 128.064 220.539 129.343C220.783 129.083 221.392 130.339 221.392 134.088C221.453 137.468 220.885 143.318 220.844 143.427C221.189 142.798 221.494 142.17 221.799 141.563C222.144 134.435 221.982 133.525 222.205 132.225C222.408 131.271 222.936 132.485 223.932 135.973C224.054 135.28 224.175 134.76 224.338 134.391C224.318 134.413 223.139 129.949 222.388 128.454C221.616 126.656 221.007 126.613 220.742 125.768Z" fill="#DBDBDB"/>
<path d="M220.457 129.582C220.112 129.647 219.746 129.885 219.34 129.972C219.543 130.687 219.279 132.854 218.344 134.111C217.532 135.454 215.48 136.191 215.48 136.147C215.765 136.906 216.029 137.556 216.212 138.184C217.837 136.732 218.71 135.736 219.055 136.082C219.299 136.537 219.462 137.101 218.263 142.128C218.426 142.496 218.609 142.929 218.771 143.428C218.812 143.276 219.807 138.682 220.112 135.692C220.538 132.42 220.254 130.752 220.457 129.582Z" fill="#DBDBDB"/>
<path d="M219.238 129.777C219.116 128.737 218.913 127.697 218.771 126.462C218.629 127.393 217.898 126.96 217.268 124.512C216.618 122.366 215.846 116.733 215.866 116.906C215.744 117.686 215.623 118.293 215.46 118.748C216.374 123.493 216.882 125.877 216.882 127.047C216.801 127.892 216.719 128.65 214.749 125.898C214.749 126.866 214.749 127.834 214.749 128.802C214.81 128.823 216.415 130.47 217.369 130.513C218.446 130.817 218.852 129.517 219.238 129.777Z" fill="#DBDBDB"/>
<path d="M219.035 129.236C219.441 130.601 220.091 130.709 220.497 129.474C220.924 128.217 220.924 126.094 220.538 124.729C220.152 123.364 219.502 123.255 219.075 124.469C218.669 125.704 218.649 127.849 219.035 129.236Z" fill="#DBDBDB"/>
<path d="M86.8769 127.048C86.8769 140.222 90.1067 150.925 94.0881 150.925H108.49V103.148H94.0881C90.1067 103.148 86.8769 113.852 86.8769 127.048Z" fill="#37474F"/>
<path d="M101.279 127.048C101.279 140.222 104.509 150.925 108.49 150.925C112.471 150.925 115.701 140.222 115.701 127.048C115.701 113.852 112.471 103.148 108.49 103.148C104.509 103.148 101.279 113.852 101.279 127.048Z" fill="#263238"/>
<path d="M103.23 127.048C103.23 136.668 105.586 144.469 108.491 144.469C111.396 144.469 113.752 136.668 113.752 127.048C113.752 117.406 111.396 109.605 108.491 109.605C105.586 109.605 103.23 117.406 103.23 127.048Z" fill="#DBDBDB"/>
<path d="M103.636 127.048C103.636 135.91 105.809 143.125 108.491 143.125C111.172 143.125 113.346 135.91 113.346 127.048C113.346 118.164 111.172 110.971 108.491 110.971C105.809 110.971 103.636 118.164 103.636 127.048Z" fill="#A6A6A6"/>
<path d="M107.473 126.095C107.737 125.38 107.981 124.492 108.285 123.669C108.001 123.474 107.838 121.112 108.468 118.165C108.976 115.305 110.276 111.882 110.256 111.968C110.073 111.6 109.91 111.167 109.768 110.646C108.123 115.933 108.041 117.017 107.635 117.45C107.31 117.58 107.107 117.277 107.209 110.646C106.884 111.318 106.559 111.99 106.274 112.597C106.295 112.532 106.376 117.472 106.68 120.375C106.924 123.647 107.412 124.904 107.473 126.095Z" fill="#DBDBDB"/>
<path d="M108.408 123.626C108.692 124.254 109.037 124.752 109.383 125.446C109.362 124.601 109.931 123.105 111.008 124.297C112.003 125.099 113.527 128.587 113.547 128.739C113.547 127.8 113.547 126.854 113.547 125.901C111.414 122.174 111.109 122.455 110.805 121.22C110.581 120.245 111.069 118.794 112.43 116.692C112.166 115.999 111.942 115.392 111.78 114.785C111.82 114.828 110.317 117.45 109.687 119.314C108.956 121.22 108.692 123.084 108.408 123.626Z" fill="#DBDBDB"/>
<path d="M109.424 125.77C109.343 126.853 109.323 128.066 109.221 129.345C109.465 129.085 110.094 130.341 110.074 134.09C110.135 137.47 109.566 143.32 109.526 143.429C109.871 142.8 110.196 142.172 110.48 141.565C110.826 134.437 110.663 133.527 110.907 132.226C111.09 131.273 111.618 132.486 112.613 135.975C112.735 135.282 112.857 134.762 113.02 134.393C113.02 134.415 111.821 129.951 111.069 128.456C110.298 126.658 109.688 126.615 109.424 125.77Z" fill="#DBDBDB"/>
<path d="M109.139 129.584C108.793 129.649 108.428 129.887 108.042 129.974C108.245 130.689 107.981 132.856 107.046 134.112C106.214 135.456 104.162 136.193 104.162 136.149C104.467 136.908 104.71 137.558 104.893 138.186C106.518 136.734 107.392 135.738 107.737 136.084C107.981 136.539 108.143 137.103 106.945 142.129C107.128 142.498 107.29 142.931 107.453 143.43C107.493 143.278 108.489 138.684 108.793 135.694C109.22 132.422 108.936 130.754 109.139 129.584Z" fill="#DBDBDB"/>
<path d="M107.939 129.779C107.797 128.739 107.594 127.699 107.452 126.464C107.31 127.395 106.578 126.962 105.949 124.514C105.299 122.368 104.527 116.735 104.547 116.908C104.425 117.688 104.303 118.295 104.161 118.75C105.055 123.495 105.563 125.879 105.563 127.049C105.482 127.894 105.4 128.652 103.43 125.9C103.43 126.868 103.437 127.836 103.45 128.804C103.491 128.825 105.096 130.472 106.05 130.515C107.127 130.819 107.533 129.519 107.939 129.779Z" fill="#DBDBDB"/>
<path d="M107.718 129.236C108.124 130.601 108.774 130.709 109.181 129.474C109.607 128.217 109.607 126.094 109.221 124.729C108.835 123.364 108.185 123.255 107.779 124.469C107.352 125.704 107.332 127.849 107.718 129.236Z" fill="#DBDBDB"/>
<path d="M230.492 128.608C230.492 128.608 230.411 98.5548 229.253 88.7177C228.075 78.8806 225.942 74.0054 225.454 73.3771C224.967 72.7704 223.037 68.3069 222.347 67.0718C221.676 65.8368 217.878 62.5216 217.593 62.0016C217.309 61.4816 211.235 49.6945 210.362 47.9611C210.016 47.2894 209.732 45.0143 209.001 43.8226C208.269 42.6308 203.516 39.1207 193.563 34.9605C183.629 30.822 170.121 29.3703 166.343 29.1103C162.564 28.8503 101.685 28.5469 90.2287 31.4071C78.772 34.2455 51.1256 61.6766 48.0989 64.0167C47.5708 64.4284 30.1419 67.1802 25.0027 69.8669C19.8634 72.5537 16.4507 75.0888 16.4507 75.0888C16.4507 75.0888 10.2958 84.2542 10.0927 84.5142C9.90987 84.7742 7.28944 87.3093 6.94412 88.306C6.5988 89.2811 5.33936 95.543 5.0956 96.1713C4.85184 96.778 2.82053 101.805 2.67833 103.733C2.53613 105.64 2.67833 112.834 2.67833 113.159C2.67833 113.462 1.88611 118.012 1.88611 121.176C1.88611 124.339 2.43456 137.231 2.43456 138.076C2.43456 138.921 132.663 142.172 133.334 141.955C134.024 141.76 137.213 95.7596 157.019 95.7596C166.058 95.7596 169.715 112.119 166.607 138.315L209.935 132.204C209.935 132.204 215.806 92.9429 224.236 96.128C228.786 97.8397 230.391 110.515 229.944 128.803L230.492 128.608Z" fill="#EF6E0B"/>
<path d="M1.88611 121.177C1.88611 124.34 2.43456 137.232 2.43456 138.077C2.43456 138.922 132.663 142.173 133.334 141.956C134.024 141.761 137.213 95.7607 157.019 95.7607C166.058 95.7607 169.694 112.12 166.607 138.316L209.935 132.205C209.935 132.205 215.806 92.9439 224.236 96.129C228.786 97.8624 230.391 110.516 229.944 128.804L230.492 128.609C230.492 128.609 230.411 98.5558 229.253 88.7187C228.075 78.8817 225.942 74.0065 225.454 73.3781C224.967 72.7714 223.037 68.3079 222.347 67.0729C221.676 65.8378 217.898 62.5227 217.593 62.0027C217.566 61.9593 217.519 61.8582 217.451 61.6993C216.435 59.8142 211.174 49.5655 210.362 47.9621C210.016 47.2904 209.732 45.0153 209.001 43.8236C208.269 42.6319 203.516 39.1217 193.583 34.9616C183.629 30.8231 170.121 29.3714 166.343 29.133C162.544 28.8513 101.685 28.548 90.2287 31.3864C78.772 34.2465 51.1256 61.6777 48.0989 64.0177C47.5708 64.4294 30.1419 67.1812 25.0027 69.868C19.8634 72.5548 16.4507 75.0899 16.4507 75.0899C16.4507 75.0899 10.2958 84.2552 10.0927 84.5152C9.90987 84.7752 7.28944 87.3104 6.94412 88.3071C6.5988 89.2821 5.33936 95.544 5.0956 96.1724C4.85184 96.7791 2.82053 101.806 2.67833 103.734C2.51582 105.641 2.67833 112.835 2.67833 113.138C2.67833 113.463 1.88611 118.013 1.88611 121.177Z" fill="#EF6E0B"/>
<path opacity="0.1" d="M1.88611 121.177C1.88611 124.34 2.43456 137.232 2.43456 138.077C2.43456 138.922 132.663 142.172 133.334 141.956C134.024 141.761 137.213 95.7606 157.019 95.7606C166.058 95.7606 169.694 112.12 166.607 138.316L209.935 132.205C209.935 132.205 215.806 92.9438 224.236 96.1289C228.786 97.8623 230.391 110.516 229.944 128.804L230.492 128.609C230.492 128.609 230.411 98.5557 229.253 88.7186C228.075 78.8816 225.942 74.0064 225.454 73.378C224.967 72.7713 223.037 68.3078 222.347 67.0728C221.676 65.8377 217.898 62.5226 217.593 62.0026C217.566 61.9592 217.519 61.8581 217.451 61.6992L162.179 66.6394L151.677 65.3177C151.677 65.3177 93.9258 77.9715 89.1724 78.5132C84.4191 79.0549 20.7775 77.5815 18.9493 77.1915C17.1414 76.8015 16.4507 75.0898 16.4507 75.0898C16.4507 75.0898 10.2958 84.2551 10.0927 84.5151C9.90987 84.7752 7.28944 87.3103 6.94412 88.307C6.5988 89.282 5.33936 95.5439 5.0956 96.1723C4.85184 96.779 2.82053 101.806 2.67833 103.734C2.51582 105.641 2.67833 112.835 2.67833 113.138C2.67833 113.463 1.88611 118.013 1.88611 121.177Z" fill="black"/>
<path opacity="0.1" d="M209.936 132.205C209.936 132.205 207.6 103.279 203.963 97.8403C200.327 92.4018 176.073 95.5002 173.372 99.0754C170.101 103.431 168.374 138.055 168.374 138.055L209.936 132.205Z" fill="black"/>
<path d="M151.677 65.3187C151.677 65.3187 156.715 45.0812 161.367 34.5508C161.956 33.2291 105.119 30.304 82.8149 34.5508C80.418 35.0058 67.905 43.8895 46.6166 64.062C46.19 64.4737 59.4343 63.672 93.0122 63.8453C126.57 63.997 150.235 65.4704 151.677 65.3187Z" fill="#263238"/>
<path d="M149.666 63.9109C149.666 63.9109 154.521 45.1468 158.99 35.3747C159.539 34.1397 103.982 31.4096 82.5308 35.3747C80.2354 35.8081 69.0631 44.0418 48.6076 62.7625C48.181 63.1309 60.9377 62.3942 93.2156 62.5458C125.514 62.6758 148.265 64.0626 149.666 63.9109Z" fill="#37474F"/>
<path opacity="0.4" d="M53.1171 62.8275C58.3173 60.6608 65.5489 57.6273 75.6243 53.4455C106.054 40.7916 137.885 43.3484 155.699 43.7818C156.41 41.5717 158.299 36.8915 158.99 35.3747C159.539 34.1397 104.002 31.4096 82.5308 35.3747C80.2354 35.8081 69.0631 44.0418 48.6076 62.7625C48.4654 62.8925 49.867 62.8925 53.1171 62.8275Z" fill="#455A64"/>
<path d="M157.485 64.9913C157.1 64.7529 160.959 43.6488 165.834 38.0152C171.745 31.1683 193.521 38.7952 202.093 43.4104C202.479 43.6054 208.127 50.9074 208.228 51.2107C208.35 51.5141 208.594 57.126 207.903 59.0111C207.212 60.9178 205.709 62.2828 204.633 62.7812C203.536 63.2796 167.541 67.5264 166.139 67.5697C164.758 67.5914 157.851 65.2296 157.485 64.9913Z" fill="#263238"/>
<path d="M162.117 51.7747C163.153 46.6179 165.388 41.4827 167.46 39.1426C173.046 32.8807 193.522 39.8359 201.586 44.0828C201.952 44.2778 207.254 50.9514 207.355 51.2331C207.457 51.5147 207.538 56.2166 206.888 57.95C206.238 59.7051 204.836 60.9401 203.821 61.4168C202.785 61.8718 168.983 65.6853 167.704 65.4903C167.013 65.382 161.894 52.8798 162.117 51.7747Z" fill="#37474F"/>
<path opacity="0.4" d="M164.596 43.9528C183.324 43.8228 197.605 49.9547 207.375 54.7649C207.477 53.0531 207.416 51.4064 207.355 51.2331C207.253 50.9514 201.952 44.2778 201.586 44.0828C193.522 39.8359 173.046 32.8807 167.46 39.1426C166.505 40.2259 165.51 41.916 164.596 43.9528Z" fill="#455A64"/>
<path d="M206.236 60.2464C206.155 59.8564 203.149 53.4428 202.113 51.2544C201.077 49.0876 196.628 41.4823 196.486 41.4173C196.344 41.374 194.922 40.594 195.003 40.8323C195.105 41.0706 200.427 50.496 200.813 51.4277C201.361 52.8361 204.733 61.5465 204.733 61.5465L206.236 60.2464Z" fill="#263238"/>
<path d="M189.438 63.5614C189.438 63.5614 187.751 55.1977 186.147 49.6508C184.562 44.0822 181.393 36.9969 181.312 36.9753C181.251 36.9319 177.818 36.4336 177.717 36.4336C177.595 36.4336 181.515 46.1623 182.47 49.3908C183.445 52.6409 184.969 64.103 185.05 64.103C185.131 64.103 189.133 63.6047 189.438 63.5614Z" fill="#263238"/>
<g opacity="0.2">
<path d="M179.788 36.9961C180.56 39.1628 181.352 41.3079 182.165 43.4747C182.835 45.3814 183.973 48.0249 184.46 49.9533C185.435 53.8318 186.37 59.552 187.121 63.5605C186.512 58.967 185.821 54.3735 184.744 49.8666C183.383 45.4681 181.494 41.2646 179.788 36.9961Z" fill="black"/>
</g>
<g opacity="0.2">
<path d="M196.02 41.4609C197.442 44.1477 199.595 48.0045 201.098 50.713C202.48 53.3781 204.105 57.6249 205.344 60.42C204.064 57.1266 202.866 53.7681 201.281 50.6046C199.737 47.9179 197.584 44.0827 196.02 41.4609Z" fill="black"/>
</g>
<path d="M21.6094 87.6349C20.8985 87.7865 16.4499 92.6401 16.4499 93.3768C16.4499 94.0918 23.9252 109.931 26.7487 112.228C29.552 114.503 71.0114 114.394 72.088 114.091C73.1443 113.766 87.5262 96.7786 87.8105 95.4352C88.0949 94.0918 82.0822 88.8049 81.2087 88.7182C80.3352 88.6099 23.6408 87.1582 21.6094 87.6349Z" fill="#263238"/>
<path d="M16.4515 93.3768C16.4515 93.6151 17.2234 95.3918 18.3609 97.7753C18.8688 98.8587 19.4579 100.05 20.0876 101.285C20.7985 102.715 21.5704 104.211 22.3423 105.597C22.9924 106.767 23.6221 107.894 24.2315 108.869C25.2268 110.472 26.1003 111.686 26.7504 112.228C29.5739 114.503 71.0131 114.394 72.0897 114.091C72.4147 113.983 74.1007 112.206 76.2336 109.779C77.1071 108.804 78.0618 107.699 79.0368 106.572C80.1541 105.251 81.2916 103.907 82.3682 102.607C83.4448 101.285 84.4808 100.029 85.334 98.9453C86.7559 97.1252 87.7309 95.7819 87.8122 95.4352C87.8393 95.2907 87.7986 95.1102 87.6903 94.8935C87.3247 94.0484 86.0856 92.6834 84.7855 91.47C83.262 90.0183 81.6369 88.7616 81.2104 88.7182C80.3369 88.6099 23.6424 87.1582 21.6111 87.6349C21.2454 87.6999 19.9454 88.9783 18.7266 90.3216C17.7109 91.47 16.7562 92.6184 16.5124 93.1601C16.4718 93.2467 16.4515 93.319 16.4515 93.3768Z" fill="#263238"/>
<path d="M16.5135 93.1588C18.7683 93.5488 23.2982 94.3071 24.2732 94.3505C25.5936 94.4155 75.0159 95.3472 76.8441 95.2822C78.1238 95.2172 84.1975 95.0005 87.6914 94.8922C87.3258 94.0471 86.0867 92.6821 84.7866 91.4687C81.699 91.8154 77.9613 92.1621 77.4129 92.1621C76.5597 92.1621 26.4671 91.5554 25.228 91.5554C24.3951 91.5337 20.9825 90.8187 18.7277 90.3203C17.712 91.4687 16.7573 92.6171 16.5135 93.1588Z" fill="#37474F"/>
<path d="M18.3629 97.7734C18.8708 98.8568 19.4598 100.049 20.0896 101.284C21.9178 101.587 23.7053 101.847 24.2741 101.89C25.5945 101.955 75.0168 102.887 76.845 102.8C77.5763 102.779 79.8716 102.692 82.3702 102.605C83.4468 101.284 84.4828 100.027 85.3359 98.9435C82.1671 99.2902 78.0028 99.7018 77.4137 99.7018C76.5606 99.7018 26.4679 99.0952 25.2288 99.0735C24.3554 99.0735 20.5771 98.2718 18.3629 97.7734Z" fill="#37474F"/>
<path d="M22.3426 105.596C22.9927 106.766 23.6224 107.892 24.2318 108.867C24.2453 108.867 24.2589 108.867 24.2724 108.867C25.5115 108.932 70.2821 109.778 76.2339 109.778C77.1073 108.802 78.0621 107.697 79.0371 106.571C78.2043 106.636 77.6152 106.679 77.412 106.679C76.5589 106.679 26.4663 106.072 25.2271 106.072C24.8006 106.051 23.663 105.856 22.3426 105.596Z" fill="#37474F"/>
<path d="M229.944 128.803C229.944 128.803 231.041 92.5746 224.866 89.2811C218.711 85.9877 214.831 96.6264 212.597 103.148C210.362 109.67 208.331 120.244 207.884 120.352C207.457 120.439 168.374 126.614 168.192 126.549C167.989 126.506 168.496 94.503 159.396 89.3245C151.189 84.666 144.202 94.2647 139.834 102.173C134.106 112.595 129.596 135.151 129.414 135.151C127.443 135.151 91.2448 134.588 90.8995 134.501C90.5338 134.436 79.524 126.419 78.5896 126.268C77.6349 126.116 21.0014 124.166 19.8232 124.166C18.6653 124.166 10.7228 131.641 10.3572 131.641C10.0119 131.641 2.00842 131.446 1.88654 131.468C1.78497 131.511 1.92717 138.228 2.06937 138.38C2.21156 138.553 134.086 143.32 134.025 142.648C133.943 141.977 139.692 118.446 145.786 105.618C150.6 95.4997 159.538 90.7979 162.829 105.467C166.059 119.962 166.242 138.076 166.607 138.315C166.973 138.553 209.123 132.92 209.936 132.205C210.728 131.468 215.461 95.9331 223.322 96.0847C231.183 96.2364 229.294 128.998 229.294 128.998L229.944 128.803Z" fill="#263238"/>
<path d="M12.6515 119.985C12.2249 119.876 3.34795 115.63 3.00263 114.936C2.67761 114.243 2.6573 107.006 3.00263 107.093C3.36827 107.179 9.70601 113.029 10.1529 113.549C10.5795 114.048 13.3421 120.158 12.6515 119.985Z" fill="#263238"/>
<path d="M12.1043 121.653C12.2261 121.285 3.06484 117.775 2.73983 117.688C2.43513 117.623 2.06948 122.303 2.35387 122.715C2.65857 123.127 8.97603 124.362 9.48387 124.21C10.012 124.058 11.9011 122.347 12.1043 121.653Z" fill="#263238"/>
<path d="M206.969 114.785L170.466 120.766C170.466 120.766 172.416 117.602 174.346 116.562C176.296 115.522 196.914 109.737 200.753 109.997C204.592 110.257 206.969 114.785 206.969 114.785Z" fill="#EF6E0B"/>
<path d="M228.42 95.0884C228.42 95.0884 227.587 86.703 224.398 84.4713C220.965 82.0662 217.796 84.9263 215.176 90.5815C213.043 95.1534 210.991 106.204 210.991 106.204C210.991 106.204 214.952 92.7483 219.706 88.6748C221.635 87.0281 224.134 87.5264 225.454 88.9781C227.506 91.1882 228.42 95.0884 228.42 95.0884Z" fill="#EF6E0B"/>
<path d="M216.68 67.5723C211.926 68.2006 196.671 71.4724 189.988 73.1192C183.285 74.7876 163.621 80.2044 163.621 80.2044C163.621 80.2044 168.334 81.0495 169.492 81.0061C170.67 80.9411 203.374 75.0042 205.467 74.6359C207.559 74.2675 216.68 67.5723 216.68 67.5723Z" fill="#EF6E0B"/>
<g opacity="0.1">
<path d="M134.024 74.6334C137.741 73.9618 141.418 73.1384 145.095 72.2283C147.268 71.6217 149.503 71.1883 151.575 70.2566C151.676 70.1916 151.839 70.0833 151.819 69.9316V69.8233L151.778 68.3282C151.758 67.3098 151.737 66.3131 151.676 65.3164C151.636 66.3131 151.615 67.3098 151.575 68.3282C151.575 68.4149 151.555 69.9316 151.555 69.9749C151.534 69.9533 151.575 69.9099 151.555 69.9316C151.453 70.0183 151.29 70.0833 151.148 70.1266C149.137 70.82 147.065 71.2966 145.014 71.8167C141.906 72.5967 137.071 73.7884 134.024 74.6334Z" fill="black"/>
<path d="M207.214 60.6602C208.981 62.8702 210.809 65.0587 212.637 67.2471C212.698 67.3121 212.962 67.6154 213.003 67.7021C213.044 67.7454 213.064 67.8538 213.084 67.9405C213.287 68.7205 213.287 69.5655 213.551 70.3455C214.384 71.8623 215.339 73.379 216.03 74.9607C216.253 75.4374 216.233 76.2608 216.314 76.8025C216.72 80.5076 217.248 84.6678 217.797 88.3513C217.472 84.4294 216.984 79.7276 216.598 75.8058C216.598 75.5024 216.517 75.0907 216.395 74.8091C215.887 73.5957 215.237 72.4906 214.587 71.3856C214.425 71.1256 214.019 70.4105 213.876 70.1722C213.633 69.3488 213.633 68.4171 213.348 67.5721C213.328 67.5071 213.206 67.3771 213.165 67.3338C211.195 65.0803 209.225 62.8486 207.214 60.6602Z" fill="black"/>
<path d="M189.215 64.9277C190.332 67.0945 192.059 69.9329 192.973 72.1647C192.973 73.0964 192.892 74.7865 192.871 75.7615C192.871 76.4765 192.79 77.1916 192.932 77.9499C193.115 78.405 193.298 79.2283 193.42 79.7267C193.867 81.6334 194.314 83.5835 194.618 85.5336C194.72 86.9203 194.761 93.9839 194.781 95.5006C194.903 92.1638 195.086 88.827 194.964 85.4902C194.679 83.4968 194.253 81.5684 193.806 79.6183C193.664 79.0766 193.501 78.2966 193.298 77.7983C193.196 77.1699 193.237 76.4332 193.237 75.7615C193.237 74.7648 193.318 73.0964 193.298 72.1214C192.242 69.6296 190.576 67.2245 189.215 64.9277Z" fill="black"/>
<path d="M161.365 65.8379C162.117 68.048 163.64 72.4682 164.412 74.6782C164.9 76.1516 165.448 77.625 165.895 79.0768C165.976 79.4234 165.956 79.8135 165.956 80.2035C165.916 80.9185 165.855 81.8502 165.875 82.5869C166.322 84.472 166.708 86.4221 167.053 88.3505C167.297 89.9322 167.155 91.4489 167.277 93.0307C167.378 96.1508 167.52 99.2926 167.703 102.434L167.662 97.7108C167.622 95.5224 167.541 91.6439 167.541 89.4988C167.378 87.5054 166.911 85.5987 166.545 83.6486C166.484 83.4103 166.342 82.8036 166.281 82.6519C166.281 82.6519 166.261 82.5869 166.261 82.5436C166.241 81.8935 166.302 80.8968 166.322 80.2251C166.444 79.0118 165.855 77.8417 165.489 76.7583C164.175 73.0893 162.801 69.4491 161.365 65.8379Z" fill="black"/>
</g>
<path d="M121.979 105.685C121.979 105.685 96.4447 111.08 92.5648 113.312C88.685 115.522 82.5707 119.574 82.5707 119.574C82.5707 119.574 63.7606 119.574 44.4223 119.574C24.9012 119.574 17.8118 116.887 17.8118 116.887C17.8118 116.887 12.0835 107.137 10.6412 105.685C9.17867 104.255 3.93783 100.896 3.93783 100.896C3.93783 100.896 3.93784 102.695 4.81131 103.778C5.68478 104.862 8.89427 107.245 9.56461 108.068C10.2349 108.913 14.907 118.751 15.0086 119.162C15.0898 119.574 15.1914 121.849 15.6789 122.152C16.1665 122.477 83.5457 124.644 84.8051 124.232C86.0646 123.821 94.0274 116.887 96.1603 116.15C98.2932 115.435 121.003 108.588 121.003 108.588L121.979 105.685Z" fill="#EF6E0B"/>
<path d="M126.549 116.975C126.447 116.151 121.592 108.914 121.003 108.589C120.435 108.286 96.3429 115.653 94.9007 116.108C93.4381 116.563 89.1723 121.026 89.1723 121.438C89.1723 121.85 126.549 116.975 126.549 116.975Z" fill="#263238"/>
<path d="M125.757 119.618C125.9 119.141 90.0466 124.536 89.945 124.948C89.8434 125.36 94.6983 128.891 95.6734 128.891C96.6484 128.891 118.099 127.548 119.359 126.811C120.618 126.096 125.473 120.679 125.757 119.618Z" fill="#263238"/>
<path d="M200.488 38.1467C200.488 38.1467 189.905 30.823 177.595 28.1796C165.306 25.5361 161.223 28.1146 160.126 29.0029C159.029 29.8913 157.465 33.1198 157.465 33.1198L160.776 33.5315C160.776 33.5315 162.157 29.9563 167.113 29.4146C170.689 29.0246 189.214 31.5164 200.488 38.1467Z" fill="#263238"/>
<path d="M82.8156 34.55C82.8156 34.55 87.9549 29.8698 92.6676 28.9598C97.3802 28.0497 112.717 29.5448 112.717 29.5448C112.717 29.5448 100.082 29.5014 94.0692 30.6715C90.23 31.4082 85.5173 34.095 85.5173 34.095L82.8156 34.55Z" fill="#263238"/>
<path d="M164.534 61.6777C164.066 61.6777 162.563 61.6777 162.218 61.6777C161.872 61.6777 161.365 63.8011 161.365 64.4295C161.365 65.0579 162.807 67.723 162.949 67.5713C163.112 67.3979 173.329 67.5713 174.832 67.5713C176.336 67.5713 182.937 66.2062 183.811 65.3179C184.684 64.4295 185.456 61.5477 185.375 60.6593C185.273 59.771 181.881 56.6725 178.468 55.4808C175.076 54.2891 169.104 54.4841 167.987 54.5924C166.87 54.7008 165.021 58.9259 164.696 59.7926C164.371 60.681 164.534 61.6777 164.534 61.6777Z" fill="#263238"/>
<path opacity="0.3" d="M164.534 61.6777C164.066 61.6777 162.563 61.6777 162.218 61.6777C161.872 61.6777 161.365 63.8011 161.365 64.4295C161.365 65.0579 162.807 67.723 162.949 67.5713C163.112 67.3979 173.329 67.5713 174.832 67.5713C176.336 67.5713 182.937 66.2062 183.811 65.3179C184.684 64.4295 185.456 61.5477 185.375 60.6593C185.273 59.771 181.881 56.6725 178.468 55.4808C175.076 54.2891 169.104 54.4841 167.987 54.5924C166.87 54.7008 165.021 58.9259 164.696 59.7926C164.371 60.681 164.534 61.6777 164.534 61.6777Z" fill="black"/>
<path d="M165.59 60.6593C165.671 61.3744 167.113 64.1695 167.702 64.2128C173.37 64.7978 181.8 64.0611 184.684 63.7795C185.131 62.6311 185.436 61.2227 185.375 60.6593C185.273 59.771 181.881 56.6725 178.469 55.4808C175.076 54.2891 169.104 54.4841 167.987 54.5924C167.662 54.6141 167.256 55.0258 166.849 55.5891C166.849 55.6036 166.849 55.6108 166.849 55.6108C165.245 59.0343 165.509 59.9443 165.59 60.6593Z" fill="#EF6E0B"/>
<path d="M175.788 64.4309L184.604 63.9758C184.766 63.5642 184.929 63.1091 185.051 62.6758C183.771 62.7625 177.657 63.0441 177.169 63.2175C176.621 63.4125 175.788 64.4309 175.788 64.4309Z" fill="#DBDBDB"/>
<path d="M31.3001 129.15L66.4219 129.821V119.984L31.3001 119.312V129.15Z" fill="white"/>
<path d="M96.4446 93.8984C95.8556 93.8984 86.3489 86.9431 85.8614 86.2281C85.3739 85.513 131.79 73.8126 133.151 73.7042C134.512 73.5959 141.5 76.391 141.296 77.0194C141.093 77.6261 134.695 86.9431 131.973 88.6115C129.251 90.2582 99.0651 93.8984 96.4446 93.8984Z" fill="white"/>
<path d="M85.8614 86.2281C85.9833 86.4231 86.6942 87.0081 87.6896 87.7665V87.7881C90.6147 90.0416 95.9977 93.8984 96.4446 93.8984C99.0651 93.8984 129.271 90.2582 131.973 88.6115C132.785 88.1131 133.923 86.9431 135.142 85.513C137.965 82.1546 141.154 77.4527 141.296 77.0194C141.5 76.391 134.512 73.5959 133.151 73.7042C131.79 73.8126 85.3739 85.513 85.8614 86.2281Z" fill="white"/>
<path d="M87.6887 87.7655V87.7871C90.6138 90.0406 95.9969 93.8974 96.4438 93.8974C99.0642 93.8974 129.27 90.2572 131.972 88.6105C132.784 88.1121 133.922 86.9421 135.141 85.512C134.044 84.0603 129.514 78.1451 128.193 78.2534C113.588 79.4451 88.3794 87.4838 87.6887 87.7655Z" fill="#EBEBEB"/>
<path fill-rule="evenodd" clip-rule="evenodd" d="M124.924 83.7791C124.903 81.0706 128.092 79.7922 129.738 81.8073C131.282 83.5407 130.144 86.5958 127.889 86.7258C126.366 86.8992 124.924 85.4908 124.924 83.8441C124.924 86.6608 128.255 88.2642 130.225 86.2925C131.586 85.0141 131.586 82.544 130.225 81.2656C128.255 79.2722 124.863 80.9189 124.924 83.7791Z" fill="white"/>
<path fill-rule="evenodd" clip-rule="evenodd" d="M117.447 83.8018C117.386 86.3152 120.352 87.7669 122.119 86.0119C123.338 84.8852 123.338 82.6967 122.119 81.57C120.352 79.815 117.386 81.2667 117.447 83.8018ZM117.447 83.8018C117.549 80.3783 122.139 80.4433 122.221 83.8018C122.139 87.1603 117.549 87.2036 117.447 83.8018Z" fill="white"/>
<path d="M19.4588 85.5122C19.8651 86.0972 14.4211 92.1208 14.0352 92.1208C13.6492 92.1208 7.61617 89.3257 6.94583 88.3073C6.27549 87.2673 8.30682 80.117 8.69277 79.4019C9.07872 78.6652 14.8071 77.5602 14.7055 77.6902C14.6243 77.8202 18.565 84.1255 19.4588 85.5122Z" fill="white"/>
<path d="M6.94678 88.3062C7.10929 88.5663 7.61712 88.9129 8.26715 89.3246C10.5422 90.2347 13.6095 91.4047 14.0361 91.2747C16.0268 90.603 18.9316 85.4678 18.9316 85.4678C17.0628 83.8427 12.3704 78.8159 12.0657 78.1875C10.5422 78.5342 8.89686 79.0109 8.69372 79.4009C8.30777 80.1159 6.27644 87.2662 6.94678 88.3062Z" fill="#EBEBEB"/>
<path fill-rule="evenodd" clip-rule="evenodd" d="M8.04282 83.4967C8.06313 87.2885 11.6586 87.1151 11.8008 83.4967C11.6789 79.8565 8.06313 79.6832 8.04282 83.4967ZM8.04282 83.4967C8.1647 80.4199 10.9679 80.2899 10.9882 83.4967C10.9679 86.7035 8.1647 86.5518 8.04282 83.4967Z" fill="white"/>
<path d="M211.093 77.278L212.617 77.0613C213.429 76.953 213.998 76.1729 213.876 75.3062L213.693 73.8112C213.592 72.9445 212.84 72.3378 212.028 72.4461L210.524 72.6628C209.712 72.7928 209.143 73.5728 209.245 74.4395L209.428 75.9346C209.549 76.8013 210.281 77.408 211.093 77.278Z" fill="#EF6E0B"/>
<path d="M208.452 76.2385L214.79 75.3284C214.993 75.3068 215.155 75.0901 215.135 74.8518L215.033 74.1367C215.013 73.8984 214.81 73.725 214.587 73.7684L208.249 74.6567C208.025 74.7001 207.883 74.9168 207.903 75.1551L207.985 75.8701C208.025 76.1085 208.228 76.2818 208.452 76.2385Z" fill="#EF6E0B"/>
<g opacity="0.2">
<path d="M208.452 76.2385L214.79 75.3284C214.993 75.3068 215.155 75.0901 215.135 74.8518L215.033 74.1367C215.013 73.8984 214.81 73.725 214.587 73.7684L208.249 74.6567C208.025 74.7001 207.883 74.9168 207.903 75.1551L207.985 75.8701C208.025 76.1085 208.228 76.2818 208.452 76.2385Z" fill="white"/>
</g>
<path d="M188.566 81.3299L190.089 81.1132C190.902 81.0049 191.471 80.2032 191.349 79.3365L191.166 77.8414C191.064 76.9747 190.313 76.368 189.5 76.498L187.997 76.7147C187.185 76.823 186.616 77.6247 186.717 78.4698L186.9 79.9648C187.022 80.8315 187.753 81.4382 188.566 81.3299Z" fill="#EF6E0B"/>
<path d="M185.927 80.2671L192.264 79.3787C192.467 79.3354 192.63 79.1187 192.61 78.8804L192.508 78.1653C192.488 77.927 192.285 77.7753 192.061 77.797L185.723 78.707C185.5 78.7287 185.358 78.9453 185.378 79.1837L185.459 79.8987C185.5 80.1371 185.703 80.3104 185.927 80.2671Z" fill="#EF6E0B"/>
<g opacity="0.2">
<path d="M185.927 80.2671L192.264 79.3787C192.467 79.3354 192.63 79.1187 192.61 78.8804L192.508 78.1653C192.488 77.927 192.285 77.7753 192.061 77.797L185.723 78.707C185.5 78.7287 185.358 78.9453 185.378 79.1837L185.459 79.8987C185.5 80.1371 185.703 80.3104 185.927 80.2671Z" fill="white"/>
</g>
<path d="M51.6741 111.061C51.6741 111.061 66.5028 123.844 66.5231 123.844C69.367 126.271 71.8249 128.46 72.9828 129.716C72.9963 129.716 73.0031 129.724 73.0031 129.738C73.45 130.215 73.7141 130.561 73.7141 130.713C73.7276 130.727 73.7344 130.742 73.7344 130.756C73.6125 132.143 56.0821 156.974 55.2086 157.624C54.3149 158.274 52.5273 155.631 52.4867 154.092C52.446 152.554 55.168 139.835 55.168 139.835L40.4612 126.9L51.6741 111.061Z" fill="#FDCDA1"/>
<path d="M52.4867 154.093C52.5273 155.631 54.3149 158.274 55.2086 157.624C56.0821 156.974 73.6125 132.143 73.7344 130.757C73.7208 130.742 73.7141 130.728 73.7141 130.713C73.7141 130.54 73.45 130.215 73.0031 129.738C73.0031 129.724 72.9963 129.717 72.9828 129.717C72.3125 128.98 71.1952 127.94 69.8139 126.727C66.2997 133.855 55.879 148.849 54.3758 150.453C53.157 151.731 53.6242 147.787 54.0101 145.382C53.2789 149.022 52.4663 153.248 52.4867 154.093Z" fill="#263238"/>
<path d="M43.6499 95.829C44.7062 101.354 66.2383 123.433 66.2383 123.433L51.2267 141.916C51.2267 141.916 20.6552 109.371 22.2599 97.1507C23.6412 86.512 38.5715 43.7402 38.5715 43.7402H55.7972C55.7972 43.7402 42.6139 90.3904 43.6499 95.829Z" fill="#455A64"/>
<path d="M49.5202 137.54C51.5109 134.874 50.9014 135.611 52.9328 132.989C53.9078 131.711 60.4284 123.282 61.5456 122.242C61.5659 122.221 61.6066 122.264 61.5863 122.286C60.8347 123.651 54.1922 131.949 53.1766 133.228C51.1249 135.806 51.6734 135.026 49.5811 137.583C49.5405 137.648 49.4795 137.583 49.5202 137.54Z" fill="#263238"/>
<path d="M40.685 94.0087C40.9491 92.622 41.2132 91.257 41.4976 89.8702C42.0528 87.0679 42.6419 84.2656 43.2648 81.4632C44.5039 75.9163 45.8649 70.4128 47.3275 64.9309C48.79 59.4273 50.3339 53.9455 52.1214 48.5502C52.3516 47.8858 52.5819 47.2213 52.8121 46.5568C52.8121 46.5135 52.8933 46.5352 52.873 46.5785C51.3292 51.9954 49.7448 57.3689 48.2822 62.8075C46.84 68.2027 45.4993 73.6413 44.2399 79.1015C43.6102 81.8532 43.0211 84.605 42.432 87.3568C42.1611 88.7146 41.8903 90.0725 41.6195 91.4303C41.3351 92.7953 40.9694 94.2037 40.8882 95.6121C40.8069 96.9989 41.2335 98.2339 41.9038 99.404C42.5539 100.531 43.3055 101.592 44.0367 102.654C45.5196 104.778 59.5358 121.44 59.9827 121.895C60.0233 121.917 59.9624 121.982 59.9217 121.938C58.0529 120.14 46.1493 106.403 44.6461 104.279C43.9013 103.225 43.17 102.163 42.4523 101.094C41.782 100.076 41.1116 99.0573 40.746 97.8656C40.3397 96.6088 40.4616 95.2871 40.685 94.0087Z" fill="#263238"/>
<path d="M42.1057 43.7402L43.8323 92.4272C45.498 80.2284 55.7969 43.7402 55.7969 43.7402H42.1057Z" fill="#263238"/>
<path d="M48.9316 133.855L45.2143 153.183C45.1737 157.083 45.0518 160.485 44.8487 162.24C44.8487 162.254 44.8487 162.269 44.8487 162.283C44.7674 162.933 44.6658 163.367 44.5643 163.475C44.5507 163.489 44.544 163.497 44.544 163.497C43.447 164.255 14.2974 164.753 13.2818 164.407C12.2458 164.06 13.0989 160.918 14.2162 159.943C15.3537 158.946 26.4245 153.443 26.4245 153.443L30.3246 134.137L48.9316 133.855Z" fill="#FDCDA1"/>
<path d="M13.2827 164.407C14.2984 164.754 43.448 164.255 44.5449 163.497C44.5449 163.497 44.5517 163.49 44.5652 163.475C44.6668 163.367 44.7683 162.934 44.8496 162.284V162.24C44.9918 161.07 45.0934 159.185 45.1543 156.91C38.3087 158.687 19.7423 160.312 17.386 159.662C16.0656 159.315 17.7313 158.145 19.4783 156.975C17 158.275 14.7046 159.51 14.2171 159.944C13.0999 160.919 12.2467 164.06 13.2827 164.407Z" fill="#263238"/>
<path d="M40.2355 43.7402C40.2558 44.1303 41.9824 59.8609 42.4699 60.2942C42.9981 60.7709 46.0248 62.9377 46.9592 63.5227C46.9592 63.5227 38.6917 90.9538 36.4978 100.097C33.3289 113.358 25.7318 153.14 25.7318 153.14H45.9841C45.9841 153.14 52.1391 115.265 54.8407 102.654C57.1565 91.8205 65.9928 59.3625 65.9928 59.3625C67.9428 50.7172 65.2818 43.7402 65.2818 43.7402H40.2355Z" fill="#455A64"/>
<path d="M26.4637 148.936C29.6529 148.936 28.7388 148.893 31.9077 148.893C33.4718 148.914 43.7097 148.979 45.1723 149.261C45.1926 149.283 45.1926 149.326 45.1723 149.348C43.7097 149.564 33.4718 149.304 31.9077 149.261C28.7185 149.174 29.6326 149.174 26.4637 149.044C26.4028 149.044 26.4028 148.936 26.4637 148.936Z" fill="#263238"/>
<path d="M41.5562 59.4926C43.547 60.6194 45.3955 62.0277 47.1627 63.4795C47.2237 63.5445 47.1627 63.6528 47.0815 63.6095C45.1923 62.3528 43.2423 61.1177 41.4141 59.731C41.2719 59.6226 41.4141 59.406 41.5562 59.4926Z" fill="#263238"/>
<path d="M43.1214 44.5639C43.1214 44.4989 43.2636 44.4989 43.2432 44.5856C42.8573 47.1424 42.6745 49.4391 42.5323 51.8659C42.4713 52.9926 42.4104 59.2978 44.2792 59.1462C44.6042 59.1245 44.8074 58.8428 44.9293 58.3445C45.0714 57.7811 44.9496 57.0228 44.9496 56.4161C44.9496 55.0943 44.9699 53.7726 45.0511 52.4509C45.2136 50.0025 45.559 47.554 46.1887 45.1923C46.209 45.1056 46.3105 45.1273 46.3105 45.2139C45.8027 48.5724 45.3964 51.9525 45.3964 55.3544C45.3761 57.0011 45.7824 59.5362 44.1776 59.5362C42.5526 59.5145 42.1057 55.311 42.0651 54.1626C41.9635 50.9775 42.4307 47.6624 43.1214 44.5639Z" fill="#263238"/>
<path d="M44.2171 59.3191C44.3186 59.7524 44.3796 60.2075 44.4405 60.6625C44.4811 61.0091 44.5421 61.3775 44.4405 61.7242C44.4405 61.7892 44.3389 61.7892 44.3186 61.7458C44.1561 61.4208 44.1155 61.0091 44.0546 60.6408C43.9733 60.2291 43.8717 59.8174 43.8108 59.3841C43.7702 59.1241 44.1561 59.0374 44.2171 59.3191Z" fill="#263238"/>
<path d="M48.2187 137.54C48.2728 137.034 48.3338 136.536 48.4015 136.045C48.5234 135.07 48.6859 134.117 48.8078 133.163C49.0921 131.256 49.3968 129.328 49.7219 127.421C50.3516 123.608 51.0828 119.794 51.8548 116.024C52.3016 113.879 52.8095 111.756 53.3376 109.632C53.3782 109.502 53.5814 109.567 53.5611 109.719C53.2361 111.647 52.9111 113.576 52.5454 115.504C52.1662 117.425 51.8006 119.346 51.4485 121.268C50.7375 125.081 50.0875 128.895 49.3765 132.686C49.1734 133.77 48.9906 134.832 48.8078 135.915C48.6994 136.449 48.5911 136.984 48.4827 137.518C48.3812 138.06 48.2187 138.58 48.1374 139.1C48.1374 139.165 48.0562 139.143 48.0765 139.078C48.1577 138.58 48.1577 138.06 48.2187 137.54Z" fill="#263238"/>
<path d="M34.367 108.331C35.0576 104.734 35.9514 101.203 36.8655 97.6708C38.714 90.5855 40.8875 83.5869 43.0408 76.6099C43.6705 74.5948 46.7581 64.1511 46.9409 63.631C46.9612 63.566 47.0425 63.5877 47.0222 63.6527C46.5753 65.4945 44.4424 73.6198 43.9142 75.4182C42.8783 78.9717 41.822 82.5035 40.8063 86.0353C38.8359 93.0556 36.8655 100.076 35.2404 107.183C34.7935 109.176 34.3466 111.17 33.9201 113.185C33.5138 115.178 33.1685 117.193 32.7825 119.208C32.7622 119.252 32.681 119.252 32.681 119.187C33.0263 115.525 33.6966 111.928 34.367 108.331Z" fill="#263238"/>
<path d="M46.96 127.073C48.0772 120.248 49.4179 113.444 50.9007 106.684C52.3904 99.8806 54.0493 93.1275 55.8775 86.425C57.6854 79.7297 59.7167 73.0995 61.8903 66.5125C62.9059 63.3924 63.9622 60.2723 64.6326 57.0438C65.3029 53.837 65.6482 50.3919 64.9373 47.1634C64.7748 46.3401 64.5513 45.5384 64.2466 44.7583C64.2263 44.715 64.3075 44.65 64.3279 44.715C66.7655 50.7602 65.181 57.3905 63.3325 63.3708C62.3168 66.6426 61.2199 69.871 60.2246 73.1645C59.1954 76.5302 58.2068 79.9031 57.2588 83.2832C55.39 90.0002 53.6634 96.7604 52.0992 103.586C50.5554 110.389 49.1741 117.236 47.9553 124.127C46.7365 131.038 45.7006 137.994 44.6646 144.927C44.5224 145.837 44.4208 146.747 44.2989 147.657C44.2989 147.701 44.2177 147.701 44.2177 147.657C45.0099 140.767 45.8631 133.92 46.96 127.073Z" fill="#263238"/>
<path d="M51.1219 1.18278C55.2455 3.41454 55.8956 9.80646 55.2049 18.7985C55.1033 20.1635 44.1341 22.0053 39.0558 17.5201C38.2433 16.7834 39.9293 5.81963 42.1637 2.74284C44.9263 -1.07064 48.5828 -0.203941 51.1219 1.18278Z" fill="#263238"/>
<path d="M51.2439 1.26938C53.3971 2.5911 54.6972 5.03953 55.2253 7.55297C55.6113 9.39471 55.7331 11.3665 55.855 13.2515C55.9566 15.0499 55.9972 16.9133 55.6925 18.6901C55.6925 18.7551 55.591 18.7551 55.6113 18.6901C55.7941 15.2883 55.5706 11.8431 55.0628 8.46301C54.6362 5.64622 53.3971 3.06779 51.1423 1.44272C51.0611 1.37772 51.1423 1.22605 51.2439 1.26938Z" fill="#263238"/>
<path d="M40.417 5.75429C41.3108 2.93751 43.139 0.965761 45.7797 0.164062C45.8 0.164062 45.8 0.2074 45.7797 0.2074C42.9155 1.24744 41.2295 3.5442 40.3763 6.64266C39.4419 10.0228 38.9747 13.4896 38.5482 16.9781C38.5278 17.0431 38.4263 17.0214 38.4466 16.9564C38.6497 13.2296 39.2997 9.2861 40.417 5.75429Z" fill="#263238"/>
<path d="M47.6698 24.9715C43.404 34.3969 37.96 44.5807 32.8817 46.1841C28.0471 47.7008 16.0623 35.1553 13.97 30.9084C13.2387 29.4567 23.1719 22.6748 24.5126 23.7148C27.0315 25.6866 31.6223 31.9918 32.3942 31.7968C33.1864 31.6018 39.4632 25.2099 45.1916 19.8147C48.6448 16.5429 50.6355 18.4496 47.6698 24.9715Z" fill="#FDCDA1"/>
<path d="M18.235 34.201C18.235 34.201 13.7255 32.7709 10.8207 31.6875C9.19561 31.0809 6.49392 29.7808 5.49857 28.7408C3.99539 27.2024 -1.34702 19.7704 0.318676 18.362C1.82186 17.062 5.66109 24.0822 5.66109 24.0822C5.66109 24.0822 1.21248 17.3653 3.28444 16.1736C5.37671 14.9819 8.70809 23.5189 8.70809 23.5189C8.70809 23.5189 4.27977 16.5203 6.6158 15.6536C8.36275 14.9819 11.7957 22.5438 11.7957 22.5438C11.7957 22.5438 8.03775 16.4986 9.80501 15.7402C11.7754 14.8952 15.3505 21.6555 15.3505 21.6555C20.1851 20.5504 23.6181 22.8689 25.365 24.4723C25.7713 24.8406 18.235 34.201 18.235 34.201Z" fill="#FDCDA1"/>
<path d="M6.85877 26.1839C3.22269 21.5037 2.7961 18.0152 2.81641 18.1235C3.50707 20.247 5.19307 23.1938 5.68059 24.0171C6.16811 24.8405 6.41187 25.3388 6.87908 26.1622C6.89939 26.1839 6.85877 26.2055 6.85877 26.1839Z" fill="#263238"/>
<path d="M9.86443 24.7113C7.99561 22.6096 6.55336 19.6194 6.20804 18.4927C6.18772 18.4061 6.22836 18.4061 6.26899 18.4927C6.85807 19.5544 9.25505 23.6713 9.88477 24.6897C9.88477 24.7113 9.86443 24.7113 9.86443 24.7113Z" fill="#263238"/>
<path d="M12.5261 23.6063C11.0026 21.6129 10.4948 20.5512 9.84474 18.7095C9.80411 18.6228 9.86506 18.6445 9.90569 18.7311C10.7792 20.3779 11.4495 21.6779 12.5667 23.563C12.587 23.6063 12.5464 23.6497 12.5261 23.6063Z" fill="#263238"/>
<path d="M26.7671 25.2521L17.5246 36.4108C17.5246 36.4108 28.0062 48.1546 32.6986 46.7246C37.4113 45.2945 45.9632 31.2756 48.5836 22.5003C50.3915 16.4117 47.2836 17.4734 44.074 20.5502C40.8645 23.6053 32.4751 31.2323 32.0892 31.124C31.7032 31.0373 26.7671 25.2521 26.7671 25.2521Z" fill="#EF6E0B"/>
<g opacity="0.5">
<path opacity="0.5" d="M26.7671 25.2521L17.5246 36.4108C17.5246 36.4108 28.0062 48.1546 32.6986 46.7246C37.4113 45.2945 45.9632 31.2756 48.5836 22.5003C50.3915 16.4117 47.2836 17.4734 44.074 20.5502C40.8645 23.6053 32.4751 31.2323 32.0892 31.124C31.7032 31.0373 26.7671 25.2521 26.7671 25.2521Z" fill="white"/>
</g>
<path opacity="0.1" d="M48.5834 22.5009C45.9629 31.2763 37.411 45.2951 32.6983 46.7252C30.6264 47.3536 27.4169 45.4035 24.4917 43.0417C29.1638 37.5598 41.6362 24.2343 47.2833 18.2541C48.8881 17.6474 49.7209 18.6224 48.5834 22.5009Z" fill="black"/>
<path d="M20.6934 38.1018C22.0341 36.5634 27.2952 30.0415 28.3515 28.5681C28.4125 28.4598 28.3718 28.3731 28.2906 28.4814C24.167 32.9883 21.8716 36.4551 20.6325 38.0368C20.6121 38.0802 20.6528 38.1452 20.6934 38.1018Z" fill="#263238"/>
<path d="M64 44.1496H38.4255L40.3959 36.0893C40.3959 36.0893 38.7302 32.8175 39.2381 30.6074C39.7662 28.224 42.7319 23.1321 44.4992 20.8787C48.7853 15.3752 52.523 17.8669 53.7011 19.2753C58.2513 24.6922 64 44.1496 64 44.1496Z" fill="#EF6E0B"/>
<path opacity="0.5" d="M64 44.1496H38.4255L40.3959 36.0893C40.3959 36.0893 38.7302 32.8175 39.2381 30.6074C39.7662 28.224 42.7319 23.1321 44.4992 20.8787C48.7853 15.3752 52.523 17.8669 53.7011 19.2753C58.2513 24.6922 64 44.1496 64 44.1496Z" fill="white"/>
<path d="M47.7277 35.2007C46.6511 35.1574 45.5542 35.1574 44.4979 35.3091C43.9495 35.3741 43.4213 35.4607 42.8932 35.5691C42.6359 35.6124 42.3718 35.6557 42.101 35.6991C41.8369 35.7424 41.5322 35.7857 41.2681 35.7424C41.2478 35.7424 41.2275 35.7857 41.2681 35.7857C41.5322 35.8291 41.7759 35.8724 42.04 35.8941C42.3041 35.8941 42.5682 35.8724 42.8119 35.8507C43.3604 35.7857 43.9088 35.6991 44.437 35.6341C45.5339 35.4824 46.6308 35.3524 47.7277 35.2874C47.7887 35.2874 47.7887 35.2007 47.7277 35.2007Z" fill="#263238"/>
<path d="M50.2469 36.5873C49.3937 36.3707 48.4999 36.1757 47.6061 36.0673C47.1796 36.0023 46.7327 35.9807 46.2858 35.959C46.0691 35.959 45.8524 35.959 45.6358 35.959C45.4123 35.959 45.1686 35.9807 44.9248 35.9807C44.9045 35.9807 44.9045 36.024 44.9248 36.024C45.1482 36.024 45.3717 36.089 45.5951 36.1107C45.8118 36.1395 46.0285 36.1612 46.2452 36.1757C46.6921 36.2407 47.1389 36.284 47.5858 36.349C48.4796 36.4357 49.3531 36.544 50.2469 36.674C50.2875 36.674 50.2875 36.5873 50.2469 36.5873Z" fill="#263238"/>
<path d="M55.0206 20.8775C60.7693 31.4512 69.3821 55.7405 70.926 59.2073C71.9822 61.5691 60.424 67.766 59.9364 66.0543C59.3067 63.8659 51.283 35.5897 50.7751 22.9575C50.5314 17.1073 53.1924 17.4757 55.0206 20.8775Z" fill="#FDCDA1"/>
<path d="M59.6307 64.8861C59.8948 67.0095 61.2558 71.3213 62.2714 71.9713C63.2871 72.6214 68.5889 72.4914 71.2702 72.4914C73.9516 72.4914 74.4797 71.6897 74.4391 70.7146C74.3985 69.7179 68.7717 69.5446 68.7717 69.5446C68.7717 69.5446 76.2876 71.8413 78.1768 72.2097C80.0659 72.578 84.413 73.7481 85.0427 72.0797C85.3271 71.3213 84.1286 70.563 84.1286 70.563C84.1286 70.563 85.9568 71.148 86.2615 70.1729C86.5865 69.0679 85.1239 68.4612 85.1239 68.4612C85.1239 68.4612 86.2818 68.6996 86.3021 67.8112C86.363 65.7961 79.2127 64.8211 79.2127 64.8211C79.2127 64.8211 84.677 67.6595 84.8599 66.0128C85.1036 63.7377 73.8907 61.2676 72.7328 60.2709C71.5546 59.2742 70.3561 57.8008 70.3561 57.8008L59.6307 64.8861Z" fill="#FDCDA1"/>
<path d="M74.4005 71.2132C74.4411 70.9099 74.3396 70.6282 74.1567 70.4548C73.9536 70.2598 73.7302 70.1082 73.4864 69.9998C73.0192 69.7615 72.491 69.6098 71.9629 69.4581C70.9066 69.1765 69.83 68.9814 68.7331 68.6781C69.8503 68.6564 70.9675 68.7864 72.0441 69.0681C72.5926 69.2198 73.1411 69.3931 73.6286 69.7181C73.8723 69.8698 74.1161 70.0648 74.2989 70.3248C74.4614 70.5848 74.5224 70.9315 74.4005 71.2132Z" fill="#263238"/>
<path d="M84.1289 70.5634C83.357 70.3684 82.6054 70.1301 81.8335 69.8917C81.0819 69.6751 80.3303 69.415 79.5787 69.1767L77.3036 68.4183C76.5588 68.1583 75.8004 67.9128 75.0285 67.6816C75.8208 67.7466 76.613 67.92 77.3849 68.115C78.1568 68.31 78.9287 68.5483 79.6803 68.7867C80.4319 69.0467 81.1835 69.3067 81.9351 69.6101C82.6663 69.9134 83.4179 70.2167 84.1289 70.5634Z" fill="#263238"/>
<path d="M76.8575 65.666C77.5888 65.7094 78.2997 65.8394 79.0107 65.991C79.742 66.1427 80.4326 66.3377 81.1436 66.576C81.8342 66.8144 82.5249 67.0744 83.1952 67.3994C83.8588 67.7028 84.5021 68.0567 85.125 68.4611C84.4343 68.2011 83.764 67.9194 83.0733 67.6811C82.403 67.4211 81.7124 67.1827 81.0217 66.9661C80.3311 66.7277 79.6404 66.511 78.9497 66.2944C78.2591 66.0777 77.5481 65.8827 76.8575 65.666Z" fill="#263238"/>
<path d="M77.954 63.7598C79.1322 63.8464 80.2901 64.1498 81.4073 64.5398C82.5245 64.9515 83.6011 65.4715 84.5762 66.1865C83.4589 65.7532 82.3823 65.3198 81.2854 64.9081C80.1885 64.5181 79.0713 64.1498 77.954 63.7598Z" fill="#263238"/>
<path d="M71.5977 58.6428L58.9425 65.2514C58.9425 65.2514 51.5687 34.8518 50.7562 25.0364C49.9437 15.221 53.4782 17.4745 55.9158 22.0897C59.2472 28.3732 71.5977 58.6428 71.5977 58.6428Z" fill="#EF6E0B"/>
<path opacity="0.5" d="M71.5977 58.6428L58.9425 65.2514C58.9425 65.2514 51.5687 34.8518 50.7562 25.0364C49.9437 15.221 53.4782 17.4745 55.9158 22.0897C59.2472 28.3732 71.5977 58.6428 71.5977 58.6428Z" fill="white" fill-opacity="0.5"/>
<path d="M59.2481 61.8276C60.9747 61.0692 67.9218 57.7541 69.3844 56.909C69.486 56.8657 69.4656 56.779 69.3641 56.8224C64.1436 58.9241 60.8731 60.9175 59.2277 61.7409C59.1668 61.7626 59.2074 61.8492 59.2481 61.8276Z" fill="#263238"/>
<path d="M54.5137 45.9007C54.3309 44.449 54.0871 43.019 53.8433 41.5889C53.6199 40.1372 53.3355 38.7071 53.0714 37.2987C52.787 35.8687 52.5026 34.4386 52.1979 33.0086L51.7104 30.8851C51.5479 30.1918 51.3854 29.4767 51.2026 28.7617C51.2838 29.4984 51.4057 30.2134 51.5073 30.9285L51.8526 33.0952C52.0964 34.5253 52.3605 35.9553 52.6449 37.3854C52.9292 38.8155 53.2136 40.2455 53.5183 41.6539C53.8433 43.084 54.148 44.4924 54.5137 45.9007Z" fill="#263238"/>
<path d="M51.9141 32.4879C51.8328 32.0979 51.6703 31.7512 51.5078 31.4262C51.3453 31.0795 51.1625 30.7545 50.9187 30.4512C51 30.8412 51.1625 31.1879 51.325 31.5345C51.4875 31.8596 51.6703 32.1846 51.9141 32.4879Z" fill="#263238"/>
<path d="M46.1864 23.6719C46.1864 23.6719 50.7163 19.3384 53.1945 19.2734L55.4087 21.1368C55.4087 21.1368 56.0993 21.3534 56.3025 20.8767C56.7697 19.685 56.7087 16.8899 54.3727 15.1999C52.2195 13.6615 47.9943 14.2681 45.2317 15.2432C42.5706 16.1532 41.169 17.9516 42.1034 19.7717C43.0175 21.6134 46.1864 23.6719 46.1864 23.6719Z" fill="#EF6E0B"/>
<path opacity="0.5" d="M46.1864 23.6719C46.1864 23.6719 50.7163 19.3384 53.1945 19.2734L55.4087 21.1368C55.4087 21.1368 56.0993 21.3534 56.3025 20.8767C56.7697 19.685 56.7087 16.8899 54.3727 15.1999C52.2195 13.6615 47.9943 14.2681 45.2317 15.2432C42.5706 16.1532 41.169 17.9516 42.1034 19.7717C43.0175 21.6134 46.1864 23.6719 46.1864 23.6719Z" fill="white"/>
<path opacity="0.1" d="M45.8809 22.8037C45.8809 22.8037 43.5448 20.5286 43.1589 19.1419C42.7526 17.7552 45.3121 16.2601 46.9778 15.6318C49.5779 14.6567 51.3655 14.7217 52.9296 16.1301C54.4734 17.5385 45.8809 22.8037 45.8809 22.8037Z" fill="black"/>
<path d="M50.0466 19.4464C49.9653 19.9231 47.7512 22.1765 45.6995 22.1548C45.0292 22.1331 45.0698 19.1647 45.0698 19.1647L45.0089 18.883L44.0338 14.8745L48.3809 11.6677L49.0106 11.2344C49.0106 11.2344 49.2137 12.3611 49.4575 13.7478C49.471 13.82 49.4778 13.885 49.4778 13.9428C49.5049 14.0295 49.5184 14.1089 49.5184 14.1812C49.5591 14.3834 49.5997 14.5928 49.6403 14.8095C49.6606 14.9612 49.6809 15.1345 49.7013 15.2862C49.7283 15.4595 49.7554 15.6329 49.7825 15.8062C50.0059 17.4963 50.0872 19.2297 50.0466 19.4464Z" fill="#FDCDA1"/>
<path d="M49.457 13.7478C48.4617 16.9979 46.1053 18.4063 45.0084 18.883L44.0334 14.8745L48.3804 11.6677L49.0101 11.2344C49.0101 11.2344 49.2133 12.3611 49.457 13.7478Z" fill="#263238"/>
<path d="M39.3409 7.37757C37.2893 14.3112 40.9456 16.3913 42.3473 16.868C43.627 17.3013 47.9944 18.6014 50.7367 11.9278C53.4587 5.25415 51.082 2.04736 48.2178 0.898979C45.3536 -0.249401 41.4129 0.443959 39.3409 7.37757Z" fill="#FDCDA1"/>
<path d="M41.2704 7.44246C41.4329 7.46412 41.575 7.46412 41.7375 7.48579C41.9204 7.50746 42.0626 7.52913 42.2251 7.44246C42.3063 7.37745 42.347 7.22578 42.3063 7.13911C42.2048 6.90077 42.0016 6.83577 41.7782 6.79243C41.5547 6.77076 41.3516 6.8141 41.1688 6.9441C40.9657 7.07411 41.0672 7.39912 41.2704 7.44246Z" fill="#263238"/>
<path d="M45.8613 8.63432C45.7191 8.54765 45.5973 8.46098 45.4551 8.37431C45.2926 8.28764 45.1707 8.22264 45.0894 8.0493C45.0285 7.96263 45.0894 7.81096 45.1707 7.74595C45.3535 7.61595 45.5769 7.68095 45.7801 7.78929C45.9832 7.89763 46.1254 8.0493 46.2067 8.28764C46.3082 8.50432 46.0645 8.72099 45.8613 8.63432Z" fill="#263238"/>
<path d="M44.518 9.65481C44.5383 9.63315 44.5586 9.69815 44.5383 9.69815C44.3961 10.1748 44.2742 10.7382 44.6195 11.0415C44.6398 11.0415 44.6398 11.0632 44.6195 11.0632C44.1523 10.8032 44.2945 10.0665 44.518 9.65481Z" fill="#263238"/>
<path d="M45.0673 9.30852C45.7986 9.50352 45.3923 11.0202 44.7017 10.8469C44.0516 10.6736 44.4579 9.13518 45.0673 9.30852Z" fill="#263238"/>
<path d="M45.3324 9.45934C45.434 9.58935 45.5152 9.78436 45.6574 9.84936C45.8402 9.91436 46.0027 9.80602 46.1652 9.67602C46.1856 9.67602 46.1855 9.67602 46.1855 9.69769C46.1043 10.001 45.9215 10.261 45.6168 10.2177C45.3324 10.1744 45.2105 9.87103 45.2308 9.54601C45.2308 9.48101 45.2918 9.41601 45.3324 9.45934Z" fill="#263238"/>
<path d="M41.8809 8.80669C41.8809 8.78502 41.8402 8.82835 41.8402 8.85002C41.7387 9.32671 41.5355 9.84673 41.0886 9.89006C41.0683 9.89006 41.0683 9.91173 41.0886 9.91173C41.5965 9.9984 41.8605 9.28337 41.8809 8.80669Z" fill="#263238"/>
<path d="M41.6159 8.20074C40.905 7.91906 40.4581 9.43579 41.1081 9.6958C41.7581 9.93414 42.205 8.41742 41.6159 8.20074Z" fill="#263238"/>
<path d="M41.291 8.20064C41.1488 8.24397 40.9863 8.35231 40.8644 8.30898C40.7019 8.26564 40.641 8.04897 40.58 7.87563C40.58 7.85396 40.5597 7.85396 40.5597 7.87563C40.4581 8.1573 40.4581 8.50398 40.7019 8.63399C40.9253 8.78566 41.1691 8.59066 41.3316 8.33065C41.3519 8.26564 41.3519 8.17897 41.291 8.20064Z" fill="#263238"/>
<path d="M43.5456 13.3789C43.4238 13.4872 43.3019 13.6173 43.1191 13.6173C42.9566 13.6173 42.7737 13.5089 42.6519 13.4222C42.6315 13.4222 42.6112 13.4222 42.6315 13.4439C42.7128 13.6389 42.9565 13.8123 43.18 13.7906C43.3831 13.7906 43.505 13.6173 43.5863 13.4222C43.6066 13.3789 43.566 13.3789 43.5456 13.3789Z" fill="#263238"/>
<path d="M41.96 11.2352C41.96 11.2352 41.7366 11.9286 41.6757 12.2753C41.6757 12.3186 41.7366 12.3403 41.8585 12.3836C42.4069 12.6003 43.0163 12.492 43.4632 12.0803C43.4835 12.0586 43.4429 12.0153 43.4226 12.0153C42.9351 12.2753 42.4475 12.2536 41.9397 12.1453C41.9397 12.0586 42.3663 10.9536 42.3257 10.9536C42.1632 10.8886 41.7772 10.9536 41.5741 10.9752C42.0007 9.48018 42.6507 8.09346 43.0569 6.5984C43.0773 6.55506 43.0163 6.51172 42.996 6.55506C42.2038 7.96345 41.6757 9.67519 41.1881 11.1919C41.1272 11.3869 41.8178 11.2569 41.96 11.2352Z" fill="#263238"/>
<path d="M41.9007 12.2536C41.9007 12.2536 42.1039 12.7736 42.4898 13.0553C42.632 13.1636 42.7945 13.2286 42.9773 13.2286C43.3633 13.2286 43.4648 12.882 43.4648 12.5569C43.4648 12.2969 43.4242 12.0586 43.4242 12.0586C43.4242 12.0586 42.7742 12.4269 41.9007 12.2536Z" fill="#263238"/>
<path d="M42.4898 13.0547C42.632 13.163 42.7945 13.228 42.9773 13.228C43.3633 13.228 43.4648 12.8813 43.4648 12.5563C43.0789 12.4913 42.6117 12.6647 42.4898 13.0547Z" fill="#FF9ABB"/>
<path d="M51.143 11.9706C49.9649 11.8839 50.0664 9.26217 50.0664 9.26217C50.0664 9.26217 47.7101 8.89383 47.446 5.18868C47.446 5.18868 47.2632 6.87875 48.0757 8.33047C48.0757 8.33047 43.9927 7.20376 42.7739 3.26027C42.7739 3.26027 43.2005 5.23201 43.7693 6.01204C43.7693 6.01204 42.1036 5.21035 41.4739 3.58528C41.4739 3.58528 40.4582 5.60036 39.8082 6.09872C39.8082 6.09872 41.0473 -1.57159 47.6288 0.291815C47.6288 0.291815 51.7728 1.24519 52.7884 5.01534C53.8041 8.78549 51.143 11.9706 51.143 11.9706Z" fill="#263238"/>
<path d="M49.5188 11.45C49.5188 11.45 51.4485 9.58657 52.2611 10.3666C53.0939 11.1466 51.3267 14.0934 50.1282 14.2668C48.9297 14.4401 48.7672 13.2484 48.7672 13.2484L49.5188 11.45Z" fill="#FDCDA1"/>
<path d="M51.7539 11.1899C51.7539 11.1899 51.7539 11.2332 51.7336 11.2332C50.9008 11.3849 50.332 12.0566 49.8648 12.7716C50.1695 12.5333 50.5148 12.4249 50.8398 12.8149C50.8601 12.8366 50.8398 12.8583 50.8195 12.8583C50.5148 12.7066 50.271 12.7066 49.9866 12.9233C49.8038 13.0749 49.6413 13.3133 49.4991 13.5083C49.4382 13.5733 49.3163 13.4866 49.3772 13.4216C49.3772 13.4072 49.3772 13.4 49.3772 13.4C49.5804 12.3383 50.657 11.0382 51.7539 11.1899Z" fill="#263238"/>
<path d="M45.8821 22.8039C45.8821 22.8039 49.5588 16.9753 53.3574 16.1953L53.1949 19.2721C53.1949 19.2721 50.0057 19.5321 46.1868 23.6706L45.8821 22.8039Z" fill="#EF6E0B"/>
<path opacity="0.5" d="M45.8821 22.8039C45.8821 22.8039 49.5588 16.9753 53.3574 16.1953L53.1949 19.2721C53.1949 19.2721 50.0057 19.5321 46.1868 23.6706L45.8821 22.8039Z" fill="white"/>
<path d="M54.2324 19.2725C53.5215 19.2291 52.8308 19.4241 52.2011 19.7058C49.601 20.5292 47.0415 22.9993 47.0415 22.9993L46.3102 23.801L46.229 23.8877L46.1274 23.8443C44.807 23.1726 43.4257 21.5259 43.1617 21.2009C44.1976 22.2193 45.904 23.3676 46.2696 23.5193L46.0868 23.5626L46.8181 22.7393C47.0618 22.4793 49.8854 20.2258 52.1198 19.4892C52.3027 19.4458 52.4652 19.4025 52.648 19.3375C52.8105 19.3158 52.9933 19.2725 53.1761 19.2508C53.5215 19.2075 53.8871 19.1858 54.2324 19.2725Z" fill="#263238"/>
<path d="M55.4102 21.1368C55.0039 20.8985 54.6179 20.5952 54.2523 20.2918C53.8866 19.9668 53.521 19.6418 53.196 19.2734C53.6023 19.5334 53.9882 19.8368 54.3538 20.1401C54.7195 20.4652 55.0851 20.7902 55.4102 21.1368Z" fill="#263238"/>
<path d="M46.8155 21.9395C46.8155 21.9395 47.3234 23.4562 47.6687 25.7096C47.8109 26.6196 47.9125 29.8698 46.9578 29.9131C46.003 29.9348 47.2624 27.6164 47.3031 25.8829C47.3437 24.1062 46.7546 22.9578 46.5718 21.9611L46.8155 21.9395Z" fill="#EF6E0B"/>
<g opacity="0.1">
<path d="M46.8155 21.9395C46.8155 21.9395 47.3234 23.4562 47.6687 25.7096C47.8109 26.6196 47.9125 29.8698 46.9578 29.9131C46.003 29.9348 47.2624 27.6164 47.3031 25.8829C47.3437 24.1062 46.7546 22.9578 46.5718 21.9611L46.8155 21.9395Z" fill="black"/>
</g>
<path d="M44.4812 22.1992C44.4812 22.1992 44.0546 23.6076 43.7905 25.6877C43.6889 26.5111 43.6687 29.5012 44.5421 29.4795C45.4156 29.4795 44.2171 27.4211 44.1359 25.8177C44.0546 24.2143 44.5624 23.1526 44.7046 22.2209L44.4812 22.1992Z" fill="#EF6E0B"/>
<g opacity="0.1">
<path d="M44.4812 22.1992C44.4812 22.1992 44.0546 23.6076 43.7905 25.6877C43.6889 26.5111 43.6687 29.5012 44.5421 29.4795C45.4156 29.4795 44.2171 27.4211 44.1359 25.8177C44.0546 24.2143 44.5624 23.1526 44.7046 22.2209L44.4812 22.1992Z" fill="black"/>
</g>
</svg>
