<svg width="167" height="105" viewBox="0 0 167 105" fill="none" xmlns="http://www.w3.org/2000/svg">
<path d="M81.5632 82.334C81.5632 91.1132 76.3857 98.2716 69.9476 98.2716C63.5545 98.2716 58.332 91.1132 58.332 82.334C58.332 73.5097 63.5545 66.3964 69.9476 66.3964C76.3857 66.3964 81.5632 73.5097 81.5632 82.334Z" fill="#3D4039"/>
<path d="M81.2471 82.2891C81.2471 89.3575 78.5458 95.0752 75.2593 95.0752C71.9727 95.0752 69.3164 89.3575 69.3164 82.2891C69.3164 75.2208 71.9727 69.458 75.2593 69.458C78.5458 69.458 81.2471 75.2208 81.2471 82.2891Z" fill="#D6E3DD"/>
<path d="M164.761 77.1117C164.761 90.258 160.709 100.928 155.712 100.928C150.714 100.928 146.617 90.258 146.617 77.1117C146.617 63.9654 150.714 53.2953 155.712 53.2953C160.709 53.2953 164.761 63.9654 164.761 77.1117Z" fill="#3D4039"/>
<path d="M163.049 77.6519C163.049 86.4311 161.473 93.5445 159.492 93.5445C157.511 93.5445 155.936 86.4311 155.936 77.6519C155.936 68.8276 157.511 61.7142 159.492 61.7142C161.473 61.7142 163.049 68.8276 163.049 77.6519Z" fill="#D6E3DD"/>
<path d="M162.827 78.1473C162.827 84.0451 161.791 88.8624 160.441 88.8624C159.135 88.8624 158.055 84.0451 158.055 78.1473C158.055 72.2495 159.135 67.4772 160.441 67.4772C161.791 67.4772 162.827 72.2495 162.827 78.1473Z" fill="#3D4039"/>
<path d="M161.926 78.9125C161.926 82.109 161.34 84.7653 160.62 84.7653C159.9 84.7653 159.314 82.109 159.314 78.9125C159.314 75.6709 159.9 73.0597 160.62 73.0597C161.34 73.0597 161.926 75.6709 161.926 78.9125Z" fill="#3D4039"/>
<path d="M162.779 76.4815C162.779 80.3533 161.653 83.5048 160.258 83.5048C158.862 83.5048 157.736 80.3533 157.736 76.4815C157.736 72.5646 158.862 69.4131 160.258 69.4131C161.653 69.4131 162.779 72.5646 162.779 76.4815Z" fill="#3D4039"/>
<path d="M33.5693 82.109C33.5693 94.625 26.1408 104.8 17.0014 104.8C7.86205 104.8 0.478516 94.625 0.478516 82.109C0.478516 69.5931 7.86205 59.4182 17.0014 59.4182C26.1408 59.4182 33.5693 69.5931 33.5693 82.109Z" fill="#3D4039"/>
<path d="M30.9132 83.0546C30.9132 93.6797 26.456 102.279 20.9634 102.279C15.4708 102.279 11.0137 93.6797 11.0137 83.0546C11.0137 72.4296 15.4708 63.8304 20.9634 63.8304C26.456 63.8304 30.9132 72.4296 30.9132 83.0546Z" fill="#D6E3DD"/>
<path d="M28.5705 84.1802C28.5705 91.3836 25.9593 97.2364 22.7627 97.2364C19.6112 97.2364 17 91.3836 17 84.1802C17 77.0218 19.6112 71.1689 22.7627 71.1689C25.9593 71.1689 28.5705 77.0218 28.5705 84.1802Z" fill="#3D4039"/>
<path d="M139.461 81.794C139.461 94.31 132.708 104.485 124.379 104.485C116.05 104.485 109.342 94.31 109.342 81.794C109.342 69.278 116.05 59.1031 124.379 59.1031C132.708 59.1031 139.461 69.278 139.461 81.794Z" fill="#3D4039"/>
<path d="M137.165 81.704C137.165 90.5732 133.879 97.8217 129.872 97.8217C125.82 97.8217 122.533 90.5732 122.533 81.704C122.533 72.7897 125.82 65.5413 129.872 65.5413C133.879 65.5413 137.165 72.7897 137.165 81.704Z" fill="#D6E3DD"/>
<path d="M136.219 81.659C136.219 88.7274 133.608 94.4901 130.411 94.4901C127.215 94.4901 124.604 88.7274 124.604 81.659C124.604 74.5456 127.215 68.8279 130.411 68.8279C133.608 68.8279 136.219 74.5456 136.219 81.659Z" fill="#3D4039"/>
<path d="M134.014 82.6944L136.805 83.5498L136.715 79.2277L134.464 78.8675L136.355 76.3914L135.545 72.3845L133.564 75.3109C133.158 74.0503 132.618 73.0598 131.943 72.4745L131.583 66.6217L128.071 66.7117L129.107 72.6096C128.431 73.2849 127.846 74.4104 127.486 75.8061L124.334 72.4745L123.479 76.9316L126.945 79.9031C126.945 79.9031 126.945 79.918 126.945 79.9481C126.945 80.1882 126.96 80.4433 126.99 80.7134L123.344 80.3983V84.09L127.396 83.8199C127.426 83.9099 127.456 83.985 127.486 84.045L123.614 87.3766L125.01 90.9333L128.611 86.6563C128.761 86.8964 128.926 87.1065 129.107 87.2866L127.981 94.9853L132.213 95.1653L132.078 87.2866C132.348 87.0465 132.588 86.7463 132.798 86.3861L135.59 89.7628L136.58 85.3506L133.879 83.3697C133.939 83.1596 133.984 82.9345 134.014 82.6944Z" fill="#D6E3DD"/>
<path d="M161.701 81.2987L162.827 82.1091L162.962 77.0667L161.881 77.9671L162.872 73.6901L162.467 68.8728L161.476 72.3845C161.296 70.8538 160.801 62.975 160.801 62.975L158.955 63.065C158.955 63.065 158.64 71.304 158.46 73.0148L156.884 68.9628L156.479 74.3204C156.479 74.3204 158.73 78.9576 158.73 79.2728L156.389 78.5524V83.0096L158.415 82.6944C158.91 82.1091 156.839 87.0165 156.839 87.0165L157.874 90.8433L159.765 84.045C159.81 84.3152 159.045 92.0589 159.045 92.0589L160.801 91.6087L160.981 84.3602C161.116 84.0901 161.746 88.8624 161.746 88.8624L162.602 84.3152C162.602 84.3152 161.701 81.6139 161.701 81.2987Z" fill="#D6E3DD"/>
<path d="M164.717 79.723C164.717 79.723 165.932 56.2218 162.646 58.6079C162.646 58.6079 158.549 62.4348 158.774 73.1499C158.774 73.1499 158.999 85.981 153.686 86.9715L138.739 88.4572C138.739 88.4572 141.35 78.9576 136.398 68.1075C136.398 68.1075 136.038 49.3335 130.59 56.9421C130.275 57.3923 130.23 57.6625 129.645 59.0581C128.024 63.1101 124.782 72.6096 125.233 84.0901V84.2252C125.188 84.4503 125.008 85.0806 124.737 85.891H124.692C124.242 87.1966 123.477 88.9074 122.396 89.9879C122.396 89.9879 114.518 90.3031 102.722 90.5732C75.709 91.2935 28.1662 92.1039 7.77149 89.8078C5.83556 89.6278 4.16976 89.3576 2.72907 89.0875C2.72907 89.0875 1.06328 86.4312 0.342936 83.5498C0.0728067 82.5594 -0.0622634 81.5689 0.0277797 80.6234C0.0277797 80.6234 0.117817 60.0036 5.34031 51.5846C5.34031 51.5846 4.84509 39.3387 16.1905 35.9621C16.1905 35.9621 18.7567 33.5309 22.5385 30.0193C31.858 21.4652 48.561 6.51802 52.748 5.52754C52.748 5.52754 86.0639 -4.19711 125.098 2.15093C125.098 2.15093 137.208 1.07041 147.023 13.9466C147.023 13.9466 149.139 16.6929 151.165 20.7898C152.651 23.8063 154.091 27.5431 154.587 31.4149C154.587 31.4149 154.617 31.4449 154.677 31.505C155.307 32.1353 159.584 36.8175 160.349 38.5733C161.205 40.6443 163.366 50.9993 164.356 55.4564C164.356 55.4564 169.804 72.7897 164.717 79.723Z" fill="#EF6E0B"/>
<path d="M154.497 31.4599C153.326 32.0002 142.341 36.9976 131.761 38.2582C131.761 38.2882 131.746 38.3032 131.716 38.3032C131.446 38.4383 122.622 39.2937 117.444 35.692C117.354 35.6469 117.354 35.5119 117.444 35.4218C118.435 34.8366 123.072 31.8651 122.577 29.2089C122.532 29.1188 122.487 29.0738 122.396 29.0738L22.944 30.0193C22.8089 30.0193 22.7189 29.8842 22.8539 29.7491C32.1734 21.15 48.5612 6.51802 52.7482 5.52754C52.7482 5.52754 86.0641 -4.19711 125.098 2.15093C125.098 2.15093 137.299 1.07041 147.023 13.9466C147.023 13.9466 153.416 22.2755 154.587 31.2798C154.587 31.3699 154.542 31.4149 154.497 31.4599Z" fill="#EF6E0B"/>
<path d="M22.3579 30.0193L19.5216 32.5405L17.7207 31.9102L18.1709 29.5241C21.7726 23.5812 27.0852 25.5622 27.0852 25.5622L22.3579 30.0193Z" fill="#111111"/>
<path d="M22.2229 30.1093L19.5216 32.5404C19.5216 32.5404 17.7207 32.4054 17.7207 31.9101C17.7657 30.1993 18.1709 29.524 18.1709 29.524C18.9813 28.7586 22.2229 30.1093 22.2229 30.1093Z" fill="black"/>
<path d="M139.64 7.55329C139.64 7.55329 127.71 -1.27094 127.935 8.49873C127.935 8.49873 130.051 33.8459 134.193 37.9428C134.193 37.9428 151.841 34.4762 154.452 31.5948C155.353 30.5593 147.204 11.8754 139.64 7.55329Z" fill="#434443"/>
<path d="M130.094 15.6573C130.094 15.6573 128.743 7.59844 131.804 6.78805C131.804 6.78805 134.236 6.33783 134.641 6.92311C137.927 11.5603 142.204 19.3491 144.501 29.2538C144.501 29.2538 138.017 33.3508 135.181 31.1897C132.345 29.0287 130.094 15.6573 130.094 15.6573Z" fill="#D6E3DD"/>
<path d="M138.017 8.63395C138.017 8.63395 148.147 14.2166 150.894 26.8677C150.894 26.8677 145.896 28.7586 145.356 28.3083C144.816 27.8581 141.124 14.7569 137.657 9.75949C137.657 9.75949 136.757 8.40884 138.017 8.63395Z" fill="#D6E3DD"/>
<path d="M53.4228 6.92309C56.3942 6.33781 99.1197 -1.76607 123.882 6.92309C124.602 7.14819 125.097 7.86855 125.142 8.67894C125.232 13.5863 125.322 30.6945 121.225 29.1187C121.225 29.1187 49.9111 28.8035 30.1917 29.4789C28.4809 29.5239 27.5805 27.4079 28.796 26.1923C34.4237 20.4746 45.6791 9.75945 53.1077 7.01313C53.1977 6.98312 53.3028 6.9531 53.4228 6.92309Z" fill="#434443"/>
<path d="M36.3165 26.5976C34.8308 26.5976 34.0654 24.7968 35.1459 23.7613C41.2238 17.9985 48.9225 11.5154 54.0099 9.62449C56.1259 9.21929 74.9899 5.6626 94.3492 5.6626C105.244 5.6626 114.294 6.74312 121.317 8.90415C121.992 9.12926 122.443 9.75956 122.443 10.4799C122.533 16.5578 122.127 22.2755 121.407 25.1569C121.227 25.9223 120.597 26.4175 119.831 26.4175C115.104 26.3725 99.3016 26.3275 82.1033 26.3275C58.332 26.3275 44.4654 26.4175 36.3165 26.5976Z" fill="#D6E3DD"/>
<mask id="mask0_203_1982" style="mask-type:luminance" maskUnits="userSpaceOnUse" x="34" y="5" width="89" height="22">
<path d="M36.3294 26.5839C34.8256 26.6109 34.0738 24.7786 35.1678 23.7476C41.2412 17.9938 48.9039 11.5062 53.9958 9.60631C56.1073 9.19662 74.9714 5.64441 94.3396 5.64441C105.235 5.64441 114.289 6.74744 121.312 8.92648C121.987 9.13358 122.447 9.76839 122.456 10.4752C122.523 16.5396 122.109 22.2844 121.42 25.1657C121.244 25.9041 120.578 26.4083 119.822 26.4038C115.086 26.3858 99.3055 26.3228 82.1253 26.3228C58.3314 26.3228 44.4738 26.4309 36.3294 26.5839Z" fill="white"/>
</mask>
<g mask="url(#mask0_203_1982)">
<g opacity="0.5">
<path d="M63.5547 36.5925L67.0213 39.6989L102.048 -0.145104L98.5814 -3.25159L63.5547 36.5925Z" fill="white"/>
<path d="M74.4492 37.1778L83.5436 45.1916L118.57 5.34757L109.476 -2.66626L74.4492 37.1778Z" fill="white"/>
</g>
</g>
<mask id="mask1_203_1982" style="mask-type:luminance" maskUnits="userSpaceOnUse" x="129" y="6" width="16" height="26">
<path d="M130.088 15.6347C130.088 15.6347 128.728 7.58485 131.79 6.78797C131.79 6.78797 134.216 6.32425 134.626 6.90053C137.913 11.5512 142.185 19.34 144.495 29.2492C144.495 29.2492 138.025 33.3327 135.193 31.1761C132.357 29.0196 130.088 15.6347 130.088 15.6347Z" fill="white"/>
</mask>
<g mask="url(#mask1_203_1982)">
<g opacity="0.4">
<path d="M124.512 30.6496L128.699 32.3154L138.964 6.83326L134.777 5.12244L124.512 30.6496Z" fill="white"/>
<path d="M131.58 31.0998L133.921 32.0453L144.186 6.51809L141.845 5.57263L131.58 31.0998Z" fill="white"/>
</g>
</g>
<mask id="mask2_203_1982" style="mask-type:luminance" maskUnits="userSpaceOnUse" x="137" y="8" width="14" height="21">
<path d="M138.028 8.64286C138.028 8.64286 148.162 14.239 150.886 26.8631C150.886 26.8631 145.893 28.754 145.366 28.3038C144.835 27.8491 141.13 14.7658 137.65 9.77742C137.65 9.77742 136.745 8.41325 138.028 8.64286Z" fill="white"/>
</mask>
<g mask="url(#mask2_203_1982)">
<path opacity="0.5" d="M139.459 24.0762L141.485 24.7966L146.797 10.2546L144.772 9.5343L139.459 24.0762Z" fill="white"/>
<path opacity="0.5" d="M146.707 29.1186L142.34 27.7229L147.517 11.29L151.839 12.6407L146.707 29.1186Z" fill="white"/>
</g>
<path d="M131.939 32.7655L132.885 35.4668C132.885 35.4668 148.417 37.2677 152.469 32.3153C152.469 32.3153 153.55 21.06 136.757 24.8418C134.911 25.247 136.667 32.4054 136.667 32.4054C136.667 32.4054 133.605 33.3058 131.939 32.7655Z" fill="#111111"/>
<path d="M161.701 59.7335C161.701 59.7335 163.367 54.3759 164.628 62.0746C165.888 69.7733 164.898 77.6521 164.492 77.6521C164.042 77.6521 164.718 69.233 161.701 59.7335Z" fill="#111111"/>
<path d="M128.789 60.364C128.789 60.364 132.616 61.3094 136.398 68.0626C136.398 68.0626 137.073 54.9164 133.291 54.9164C133.291 54.9164 130.32 54.6913 128.789 60.364Z" fill="#111111"/>
<path d="M164.628 79.7681C164.628 79.7681 165.798 57.3023 162.647 58.608C162.647 58.608 160.981 59.7785 159.36 65.7214C159.36 65.7214 158.505 59.8236 161.791 56.8521C162.872 55.8617 164.628 56.4019 164.988 57.8426C166.248 62.84 168.544 74.4105 164.628 79.7681Z" fill="#EF6E0B"/>
<path d="M102.722 90.5732C75.7087 91.2935 28.1659 92.0589 7.77118 89.8079L7.59108 89.4026C7.59108 89.4026 7.0058 87.8719 7.81619 86.2962C8.58156 84.8104 9.21188 82.7395 9.75214 82.3793L9.84216 82.3343C10.4274 82.1992 11.553 62.5698 21.0975 60.4538C21.0975 60.4538 39.8265 52.9802 42.3477 54.1508C44.9139 55.3214 68.2351 54.3309 68.2351 54.3309C68.2351 54.3309 90.2956 57.3473 95.4731 66.1265C95.4731 66.1265 101.146 77.0217 101.506 82.7845L102.722 90.5732Z" fill="#434443"/>
<path d="M115.915 61.6694C115.915 61.6694 122.399 78.5975 115.915 82.5594C115.915 82.5594 105.605 87.1066 105.02 74.8607C104.84 70.5837 110.018 67.5673 115.915 61.6694Z" fill="#3D4039"/>
<path d="M116.095 61.4443C116.095 61.4443 122.984 77.7421 115.915 82.5594C115.915 82.5594 105.605 87.1066 105.02 74.8607C104.84 70.5837 110.198 67.3422 116.095 61.4443Z" fill="#EF9C07"/>
<path d="M116.094 61.4443C116.094 61.4443 122.847 77.6971 116.364 81.659C116.364 81.659 106.46 86.7464 105.874 74.5006C105.694 70.2235 110.241 68.8729 116.094 61.4443Z" fill="#3D4039"/>
<path d="M2.73034 62.3897C2.41519 65.0009 0.569319 80.0832 1.33469 81.2537C1.33469 81.2537 5.61172 84.7204 8.22297 80.8035C10.7892 76.9767 7.50263 67.0269 3.0455 62.2997C2.95545 62.2096 2.73034 62.2546 2.73034 62.3897Z" fill="#EF6E0B"/>
<path d="M2.95385 65.3612C2.45861 69.4581 1.42311 78.8676 1.82831 80.9386C1.87333 81.1187 2.00839 81.2988 2.18847 81.4339C3.13393 82.0642 6.55557 84.1802 8.80664 80.8036C11.1928 77.2469 8.40146 69.7283 4.48459 64.911C3.98935 64.3257 3.04389 64.6408 2.95385 65.3612Z" fill="#3D4039"/>
<path d="M17.8542 38.7536C17.8542 38.7536 115.731 31.4601 119.198 34.3415C119.198 34.3415 123.52 31.235 122.529 29.074L22.7615 29.9294C22.7615 29.9294 16.0984 35.467 16.1884 35.9173C16.3235 36.4125 17.0438 38.7086 17.8542 38.7536Z" fill="#F7D877"/>
<path d="M158.775 73.1499C158.775 73.1499 159 85.981 153.687 86.9714L138.74 88.5022L139.461 82.6944L153.912 80.9836C153.912 80.9836 156.074 80.7585 158.685 70.6286C158.835 70.0884 158.985 69.6682 159.135 69.368C158.91 70.6286 158.775 71.8893 158.775 73.1499Z" fill="#EF6E0B"/>
<g style="mix-blend-mode:multiply">
<path d="M126.988 67.3872C126.988 67.3872 128.204 50.4591 134.912 53.7907C136.308 54.511 137.838 57.7526 136.443 67.9274C136.443 67.9274 135.813 54.1058 132.571 55.1863C132.571 55.1863 130.725 54.6911 126.988 67.3872Z" fill="#EF6E0B"/>
</g>
<mask id="mask3_203_1982" style="mask-type:luminance" maskUnits="userSpaceOnUse" x="7" y="54" width="96" height="38">
<path d="M102.712 90.5824C75.6995 91.2847 28.1523 92.0816 7.78902 89.8215L7.58644 89.4028C7.58644 89.4028 7.02815 87.8901 7.81603 86.3008C8.55888 84.8151 9.20271 82.7261 9.74747 82.3794L9.85552 82.3344C10.4183 82.2174 11.5618 62.5925 21.0929 60.4404C21.0929 60.4404 39.8398 52.9894 42.37 54.1599C44.9003 55.3305 68.2304 54.313 68.2304 54.313C68.2304 54.313 90.318 57.3385 95.4549 66.1132C95.4549 66.1132 101.159 76.9994 101.506 82.7891L102.712 90.5824Z" fill="white"/>
</mask>
<g mask="url(#mask3_203_1982)">
<path d="M0.974609 54.8264L118.346 55.9069" stroke="#4B4C4B" stroke-width="2" stroke-miterlimit="10"/>
<path d="M0.974609 57.2125L118.346 58.2931" stroke="#4B4C4B" stroke-width="2" stroke-miterlimit="10"/>
<path d="M0.974609 59.5986L118.346 60.6792" stroke="#4B4C4B" stroke-width="2" stroke-miterlimit="10"/>
<path d="M0.974609 61.9846L118.346 63.0651" stroke="#4B4C4B" stroke-width="2" stroke-miterlimit="10"/>
<path d="M0.974609 64.3708L118.346 65.4513" stroke="#4B4C4B" stroke-width="2" stroke-miterlimit="10"/>
<path d="M0.974609 66.757L118.346 67.8375" stroke="#4B4C4B" stroke-width="2" stroke-miterlimit="10"/>
<path d="M0.974609 69.0981L118.346 70.2237" stroke="#4B4C4B" stroke-width="2" stroke-miterlimit="10"/>
<path d="M0.974609 71.4843L118.346 72.6098" stroke="#4B4C4B" stroke-width="2" stroke-miterlimit="10"/>
<path d="M0.974609 73.8704L118.346 74.9959" stroke="#4B4C4B" stroke-width="2" stroke-miterlimit="10"/>
<path d="M0.974609 76.2566L118.346 77.3821" stroke="#4B4C4B" stroke-width="2" stroke-miterlimit="10"/>
<path d="M0.974609 78.6427L118.346 79.7682" stroke="#4B4C4B" stroke-width="2" stroke-miterlimit="10"/>
<path d="M0.974609 81.0288L118.346 82.1543" stroke="#4B4C4B" stroke-width="2" stroke-miterlimit="10"/>
<path d="M0.974609 83.415L118.346 84.5406" stroke="#4B4C4B" stroke-width="2" stroke-miterlimit="10"/>
</g>
<path d="M102.722 90.5733C75.7087 91.2936 28.1659 92.059 7.77118 89.8079L7.59108 89.4027C7.59108 89.4027 7.0058 87.872 7.81619 86.2962C8.58156 84.8105 9.21188 82.7396 9.75214 82.3794L9.84216 82.3344L21.8629 85.846C21.8629 85.846 82.687 87.1967 84.2628 86.7465C85.8385 86.2962 101.506 82.7846 101.506 82.7846L102.181 86.9716L102.722 90.5733Z" fill="#EF6E0B"/>
<g style="mix-blend-mode:multiply">
<path d="M125.233 84.0901V84.2252L124.738 85.891H124.693C124.243 87.1966 123.478 88.9074 122.397 89.9879C122.397 89.9879 114.518 90.3031 102.723 90.5732C75.7098 91.2936 28.167 92.059 7.7723 89.8079C5.85138 89.5978 4.1856 89.3576 2.77492 89.0875C2.77492 89.0875 1.06409 86.4313 0.34375 83.5499C3.36019 84.7655 20.7385 91.2936 47.0761 89.2676C47.0761 89.2676 103.308 89.5828 109.656 86.2062C111.862 85.0806 118.615 81.9741 118.615 81.9741C118.615 81.9741 119.741 84.5404 120.551 84.8555C121.677 85.3507 125.233 84.0901 125.233 84.0901Z" fill="#EF6E0B"/>
</g>
<path d="M70.3523 73.9604H36.6312C33.6147 73.9604 31.1836 71.5292 31.1836 68.5128C31.1836 65.5414 33.6147 63.0652 36.6312 63.0652H70.3523C73.3688 63.0652 75.7999 65.5414 75.7999 68.5128C75.7999 71.5292 73.3688 73.9604 70.3523 73.9604Z" fill="#BFC4C1"/>
<path d="M160.35 38.5734C160.35 38.5734 154.408 48.7482 122.622 41.3647C122.622 41.3647 122.082 38.7985 121.182 37.5829C121.182 37.5829 132.887 41.2297 154.408 31.5951C154.498 31.565 154.588 31.535 154.678 31.505C155.308 32.1353 159.585 36.8175 160.35 38.5734Z" fill="#F7D877"/>
<path d="M5.34109 51.5847C5.34109 51.5847 3.36016 60.2289 16.9567 62.3449C16.9567 62.3449 36.6311 54.331 40.4129 54.331C40.4129 54.331 13.9402 48.5683 5.34109 51.5847Z" fill="#EF6E0B"/>
<path d="M7.81705 86.8816C8.58241 85.3959 9.21273 83.3249 9.75299 82.9647L9.84301 82.9197C10.4283 82.8296 11.5538 63.2003 21.0984 61.0392C21.0984 61.0392 39.8274 53.5657 42.3486 54.7362C44.9148 55.9068 68.2359 54.9163 68.2359 54.9163C68.2359 54.9163 90.2965 57.9327 95.474 66.7119C95.474 66.7119 101.147 77.6071 101.507 83.3699L102.722 90.5733L104.388 90.6184L103.308 83.1898C102.903 77.0669 97.3199 66.3067 97.0047 65.8115C91.5121 56.357 69.4065 53.2505 68.461 53.1154L68.326 53.0704L68.1459 53.1154C68.0558 53.1154 58.6914 53.5206 51.3079 53.5206C44.5996 53.5206 43.294 53.1605 43.1139 53.1154C42.7087 52.8903 42.2135 52.8003 41.5832 52.8003C37.081 52.8003 22.7192 58.428 20.5582 59.2834C11.824 61.3994 9.52788 74.8158 8.53741 80.5786C8.44736 81.0288 8.35732 81.524 8.3123 81.8392C7.77204 82.4245 7.41185 83.2798 6.91661 84.4954C6.69151 85.0357 6.42139 85.621 6.19628 86.0712C5.07074 88.3223 5.65602 89.5829 5.65602 89.5829L7.77204 89.808C7.77204 89.808 7.00666 88.5024 7.81705 86.8816Z" fill="#2A2B2A"/>
<path d="M87.0103 59.2833C87.0103 59.2833 107.405 58.1127 116.634 52.9353C116.634 52.9353 95.6094 43.4357 68.2363 54.3309L87.0103 59.2833Z" fill="#EF6E0B"/>
<path d="M23.3047 44.8765C23.3047 44.8765 44.78 45.822 46.4908 45.2367C46.4908 45.2367 53.9643 38.0783 64.4093 45.1466C64.4093 45.1466 93.1331 44.9215 95.6543 44.4263C95.6543 44.4263 89.4413 49.6938 88.5409 53.0254C88.5409 53.0254 71.7028 52.4851 68.2362 54.331C64.7695 56.1319 53.3341 68.0626 41.8536 54.6012C41.8536 54.6012 28.167 51.7648 25.6008 52.0349C25.6008 52.0349 24.8354 49.4237 23.3047 44.8765Z" fill="#434443"/>
<path d="M24.7007 49.3786L43.0695 51.8998C43.0695 51.8998 53.1993 67.7924 67.2461 52.0349L90.4321 49.7388L91.9179 48.028C91.9179 48.028 66.2106 50.234 64.995 50.9093C64.995 50.9093 54.55 64.911 45.9059 51.0444L24.0254 47.0375L24.7007 49.3786Z" fill="#D6E3DD"/>
<path d="M61.1212 52.26C61.1212 54.7362 58.3298 56.7171 54.9082 56.7171C51.4866 56.7171 48.7402 54.7362 48.7402 52.26C48.7402 49.8288 51.4866 47.8029 54.9082 47.8029C58.3298 47.8029 61.1212 49.8288 61.1212 52.26Z" fill="#D6E3DD"/>
<path d="M25.7363 54.151C25.7363 54.151 11.3744 51.1345 8.35801 52.4852C8.35801 52.4852 5.92684 52.3501 5.34156 51.5848C5.34156 51.5848 5.07143 45.2367 9.16839 40.4194C10.7892 38.5285 13.0403 36.9077 16.1918 35.9623C16.1918 35.9623 18.5779 40.1493 20.919 42.6705C21.8645 43.706 22.8549 44.4714 23.6203 44.4714C23.6203 44.4714 27.2671 53.1155 25.7363 54.151Z" fill="#D6E3DD"/>
<path d="M122.622 41.3645C122.622 41.3645 120.326 55.9065 112.402 52.4849C112.402 52.4849 95.3837 52.71 87.9102 53.6554C87.9102 53.6554 89.9811 46.6771 98.3101 42.4451C100.291 41.4546 102.632 40.5992 105.379 40.0139C105.379 40.0139 116.409 36.7723 117.219 35.5568C117.219 35.5568 121.766 36.5022 122.577 39.5637C122.712 40.1039 122.757 40.7342 122.622 41.3645Z" fill="#D6E3DD"/>
<path opacity="0.6" d="M20.9186 42.6704C20.6035 42.6704 12.7697 43.1656 9.16797 40.4193C10.7887 38.5284 13.0398 36.9076 16.1913 35.9622C16.1913 35.9622 18.5775 40.1492 20.9186 42.6704Z" fill="white"/>
<path opacity="0.6" d="M122.577 39.5639L122.487 39.699C122.487 39.699 111.052 46.4522 98.3105 42.4453C100.291 41.4548 102.633 40.5994 105.379 40.0141C105.379 40.0141 116.409 36.7726 117.22 35.557C117.22 35.557 121.767 36.5025 122.577 39.5639Z" fill="white"/>
<path d="M147.789 34.7915C147.789 34.7915 156.613 52.3949 148.915 82.3342" stroke="#EF6E0B" stroke-miterlimit="10" stroke-linecap="round"/>
<g style="mix-blend-mode:multiply">
<path d="M158.46 78.2823C157.964 81.9741 156.749 86.3862 153.687 86.9715L138.74 88.5022C138.74 88.5022 139.776 82.5143 139.326 80.2182L143.242 76.3014C143.242 76.3014 155.848 83.1447 157.334 78.1473C157.559 77.2919 157.964 77.4269 158.46 78.2823Z" fill="#EF6E0B"/>
</g>
</svg>
