<svg width="167" height="105" viewBox="0 0 167 105" fill="none" xmlns="http://www.w3.org/2000/svg">
<path d="M85.3275 82.3345C85.3275 91.1136 90.505 98.2721 96.943 98.2721C103.336 98.2721 108.559 91.1136 108.559 82.3345C108.559 73.5102 103.336 66.3969 96.943 66.3969C90.505 66.3969 85.3275 73.5102 85.3275 82.3345Z" fill="#3D4039"/>
<path d="M85.6435 82.2891C85.6435 89.3575 88.3448 95.0752 91.6314 95.0752C94.9179 95.0752 97.5742 89.3575 97.5742 82.2891C97.5742 75.2208 94.9179 69.458 91.6314 69.458C88.3448 69.458 85.6435 75.2208 85.6435 82.2891Z" fill="#D6E3DD"/>
<path d="M2.12977 77.1117C2.12977 90.258 6.18172 100.928 11.1791 100.928C16.1765 100.928 20.2734 90.258 20.2734 77.1117C20.2734 63.9654 16.1765 53.2953 11.1791 53.2953C6.18172 53.2953 2.12977 63.9654 2.12977 77.1117Z" fill="#3D4039"/>
<path d="M3.84166 77.6519C3.84166 86.4311 5.41742 93.5445 7.39837 93.5445C9.37931 93.5445 10.9551 86.4311 10.9551 77.6519C10.9551 68.8276 9.37931 61.7142 7.39837 61.7142C5.41742 61.7142 3.84166 68.8276 3.84166 77.6519Z" fill="#D6E3DD"/>
<path d="M4.06364 78.147C4.06364 84.0449 5.09916 88.8622 6.4498 88.8622C7.75543 88.8622 8.83594 84.0449 8.83594 78.147C8.83594 72.2492 7.75543 67.4769 6.4498 67.4769C5.09916 67.4769 4.06364 72.2492 4.06364 78.147Z" fill="#3D4039"/>
<path d="M4.9649 78.9122C4.9649 82.1088 5.55019 84.765 6.27054 84.765C6.99088 84.765 7.57617 82.1088 7.57617 78.9122C7.57617 75.6707 6.99088 73.0594 6.27054 73.0594C5.55019 73.0594 4.9649 75.6707 4.9649 78.9122Z" fill="#3D4039"/>
<path d="M4.11188 76.481C4.11188 80.3528 5.23741 83.5044 6.63307 83.5044C8.02874 83.5044 9.1543 80.3528 9.1543 76.481C9.1543 72.5641 8.02874 69.4126 6.63307 69.4126C5.23741 69.4126 4.11188 72.5641 4.11188 76.481Z" fill="#3D4039"/>
<path d="M133.321 82.1092C133.321 94.6252 140.75 104.8 149.889 104.8C159.029 104.8 166.412 94.6252 166.412 82.1092C166.412 69.5932 159.029 59.4183 149.889 59.4183C140.75 59.4183 133.321 69.5932 133.321 82.1092Z" fill="#3D4039"/>
<path d="M135.977 83.0545C135.977 93.6796 140.435 102.279 145.927 102.279C151.42 102.279 155.877 93.6796 155.877 83.0545C155.877 72.4294 151.42 63.8303 145.927 63.8303C140.435 63.8303 135.977 72.4294 135.977 83.0545Z" fill="#D6E3DD"/>
<path d="M138.32 84.1801C138.32 91.3835 140.931 97.2363 144.128 97.2363C147.279 97.2363 149.891 91.3835 149.891 84.1801C149.891 77.0216 147.279 71.1688 144.128 71.1688C140.931 71.1688 138.32 77.0216 138.32 84.1801Z" fill="#3D4039"/>
<path d="M27.4294 81.7939C27.4294 94.3098 34.1826 104.485 42.5116 104.485C50.8406 104.485 57.5488 94.3098 57.5488 81.7939C57.5488 69.2779 50.8406 59.103 42.5116 59.103C34.1826 59.103 27.4294 69.2779 27.4294 81.7939Z" fill="#3D4039"/>
<path d="M29.7254 81.7036C29.7254 90.5729 33.012 97.8213 37.0189 97.8213C41.0709 97.8213 44.3574 90.5729 44.3574 81.7036C44.3574 72.7894 41.0709 65.5409 37.0189 65.5409C33.012 65.5409 29.7254 72.7894 29.7254 81.7036Z" fill="#D6E3DD"/>
<path d="M30.6716 81.6589C30.6716 88.7273 33.2828 94.49 36.4793 94.49C39.6758 94.49 42.2871 88.7273 42.2871 81.6589C42.2871 74.5455 39.6758 68.8278 36.4793 68.8278C33.2828 68.8278 30.6716 74.5455 30.6716 81.6589Z" fill="#3D4039"/>
<path d="M32.8768 82.6945L30.0855 83.5499L30.1755 79.2279L32.4266 78.8677L30.5357 76.3915L31.3461 72.3846L33.327 75.311C33.7322 74.0504 34.2725 73.0599 34.9478 72.4746L35.3079 66.6218L38.8196 66.7118L37.7841 72.6097C38.4594 73.285 39.0447 74.4105 39.4049 75.8062L42.5564 72.4746L43.4118 76.9317L39.9452 79.9032C39.9452 79.9032 39.9452 79.9182 39.9452 79.9482C39.9452 80.1883 39.9302 80.4434 39.9001 80.7136L43.5469 80.3984V84.0902L39.4949 83.82C39.4649 83.9101 39.4349 83.9851 39.4049 84.0451L43.2768 87.3767L41.8811 90.9334L38.2794 86.6564C38.1293 86.8965 37.9642 87.1066 37.7841 87.2867L38.9097 94.9854L34.6776 95.1655L34.8127 87.2867C34.5426 87.0466 34.3025 86.7464 34.0924 86.3863L31.301 89.7629L30.3106 85.3508L33.0119 83.3698C32.9518 83.1597 32.9068 82.9346 32.8768 82.6945Z" fill="#D6E3DD"/>
<path d="M5.18939 81.2986L4.06385 82.109L3.92879 77.0666L5.00932 77.967L4.01884 73.69L4.42405 68.8727L5.4145 72.3844C5.59458 70.8536 6.08982 62.9749 6.08982 62.9749L7.93572 63.0649C7.93572 63.0649 8.25086 71.3038 8.43095 73.0146L10.0067 68.9627L10.4119 74.3203C10.4119 74.3203 8.16083 78.9575 8.16083 79.2727L10.502 78.5523V83.0094L8.47598 82.6943C7.98075 82.109 10.0517 87.0164 10.0517 87.0164L9.01622 90.8432L7.12534 84.0449C7.08032 84.3151 7.84567 92.0588 7.84567 92.0588L6.08982 91.6086L5.90975 84.3601C5.77469 84.0899 5.14438 88.8622 5.14438 88.8622L4.28896 84.3151C4.28896 84.3151 5.18939 81.6138 5.18939 81.2986Z" fill="#D6E3DD"/>
<path d="M2.17412 79.723C2.17412 79.723 0.958511 56.2218 4.24509 58.6079C4.24509 58.6079 8.34204 62.4348 8.11693 73.1499C8.11693 73.1499 7.89185 85.981 13.2044 86.9715L28.1515 88.4572C28.1515 88.4572 25.5403 78.9576 30.4926 68.1075C30.4926 68.1075 30.8528 49.3335 36.3004 56.9421C36.6156 57.3923 36.6606 57.6625 37.2459 59.0581C38.8666 63.1101 42.1082 72.6096 41.658 84.0901V84.2252C41.703 84.4503 41.8831 85.0806 42.1532 85.891H42.1982C42.6484 87.1966 43.4138 88.9074 44.4943 89.9879C44.4943 89.9879 52.3731 90.3031 64.1687 90.5732C91.1816 91.2935 138.724 92.1039 159.119 89.8078C161.055 89.6278 162.721 89.3576 164.162 89.0875C164.162 89.0875 165.827 86.4312 166.548 83.5498C166.818 82.5594 166.953 81.5689 166.863 80.6234C166.863 80.6234 166.773 60.0036 161.55 51.5846C161.55 51.5846 162.046 39.3387 150.7 35.9621C150.7 35.9621 148.134 33.5309 144.352 30.0193C135.033 21.4652 118.33 6.51802 114.143 5.52754C114.143 5.52754 80.8267 -4.19711 41.7931 2.15093C41.7931 2.15093 29.6823 1.07041 19.8676 13.9466C19.8676 13.9466 17.7515 16.6929 15.7256 20.7898C14.2399 23.8063 12.7992 27.5431 12.304 31.4149C12.304 31.4149 12.2739 31.4449 12.2139 31.505C11.5836 32.1353 7.30655 36.8175 6.54118 38.5733C5.68576 40.6443 3.52475 50.9993 2.53427 55.4564C2.53427 55.4564 -2.91331 72.7897 2.17412 79.723Z" fill="#EF6E0B"/>
<path d="M12.3938 31.4599C13.5643 32.0002 24.5496 36.9976 35.1296 38.2582C35.1296 38.2882 35.1447 38.3032 35.1747 38.3032C35.4448 38.4383 44.269 39.2937 49.4465 35.692C49.5365 35.6469 49.5365 35.5119 49.4465 35.4218C48.456 34.8366 43.8188 31.8651 44.314 29.2089C44.3591 29.1188 44.4041 29.0738 44.4941 29.0738L143.947 30.0193C144.082 30.0193 144.172 29.8842 144.037 29.7491C134.717 21.15 118.329 6.51802 114.142 5.52754C114.142 5.52754 80.8265 -4.19711 41.7928 2.15093C41.7928 2.15093 29.592 1.07041 19.8673 13.9466C19.8673 13.9466 13.4743 22.2755 12.3037 31.2798C12.3037 31.3699 12.3487 31.4149 12.3938 31.4599Z" fill="#EF6E0B"/>
<path d="M144.533 30.0191L147.369 32.5403L149.17 31.91L148.72 29.5238C145.118 23.581 139.805 25.5619 139.805 25.5619L144.533 30.0191Z" fill="#111111"/>
<path d="M144.668 30.1096L147.369 32.5408C147.369 32.5408 149.17 32.4057 149.17 31.9105C149.125 30.1997 148.72 29.5244 148.72 29.5244C147.909 28.759 144.668 30.1096 144.668 30.1096Z" fill="black"/>
<path d="M27.2502 7.55353C27.2502 7.55353 39.1809 -1.2707 38.9558 8.49897C38.9558 8.49897 36.8398 33.8461 32.6979 37.9431C32.6979 37.9431 15.0494 34.4764 12.4382 31.595C11.5377 30.5595 19.6866 11.8756 27.2502 7.55353Z" fill="#434443"/>
<path d="M36.797 15.6575C36.797 15.6575 38.1476 7.59868 35.0862 6.7883C35.0862 6.7883 32.655 6.33808 32.2498 6.92336C28.9632 11.5606 24.6862 19.3493 22.3901 29.254C22.3901 29.254 28.8732 33.351 31.7095 31.19C34.5459 29.0289 36.797 15.6575 36.797 15.6575Z" fill="#D6E3DD"/>
<path d="M28.8732 8.63407C28.8732 8.63407 18.7433 14.2167 15.997 26.8678C15.997 26.8678 20.9944 28.7587 21.5347 28.3085C22.0749 27.8583 25.7667 14.757 29.2334 9.75961C29.2334 9.75961 30.1338 8.40896 28.8732 8.63407Z" fill="#D6E3DD"/>
<path d="M113.468 6.92345C110.496 6.33817 67.771 -1.7657 43.0091 6.92345C42.2888 7.14856 41.7935 7.86891 41.7485 8.6793C41.6585 13.5866 41.5684 30.6948 45.6654 29.1191C45.6654 29.1191 116.979 28.8039 136.699 29.4792C138.41 29.5243 139.31 27.4083 138.095 26.1927C132.467 20.4749 121.212 9.75981 113.783 7.0135C113.693 6.98349 113.588 6.95347 113.468 6.92345Z" fill="#434443"/>
<path d="M130.574 26.598C132.06 26.598 132.825 24.7971 131.745 23.7616C125.667 17.9989 117.968 11.5158 112.881 9.62485C110.765 9.21966 91.9007 5.66296 72.5414 5.66296C61.6462 5.66296 52.5969 6.74349 45.5735 8.90452C44.8982 9.12963 44.448 9.75993 44.448 10.4803C44.3579 16.5582 44.7631 22.2759 45.4835 25.1573C45.6636 25.9226 46.2939 26.4179 47.0592 26.4179C51.7865 26.3729 67.5891 26.3278 84.7873 26.3278C108.559 26.3278 122.425 26.4179 130.574 26.598Z" fill="#D6E3DD"/>
<mask id="mask0_203_2796" style="mask-type:luminance" maskUnits="userSpaceOnUse" x="44" y="5" width="89" height="22">
<path d="M130.561 26.5848C132.065 26.6118 132.817 24.7794 131.723 23.7484C125.649 17.9947 117.987 11.5071 112.895 9.60717C110.783 9.19747 91.9193 5.64526 72.551 5.64526C61.6558 5.64526 52.602 6.74829 45.5786 8.92734C44.9033 9.13444 44.4441 9.76924 44.4351 10.4761C44.3676 16.5405 44.7817 22.2852 45.4706 25.1666C45.6462 25.905 46.3125 26.4092 47.0688 26.4047C51.8051 26.3867 67.5851 26.3237 84.7654 26.3237C108.559 26.3237 122.417 26.4317 130.561 26.5848Z" fill="white"/>
</mask>
<g mask="url(#mask0_203_2796)">
<g opacity="0.5">
<path d="M103.336 36.5932L99.8693 39.6997L64.8425 -0.144372L68.3092 -3.25085L103.336 36.5932Z" fill="white"/>
<path d="M92.4414 37.1783L83.3471 45.1921L48.3203 5.34805L57.4146 -2.66577L92.4414 37.1783Z" fill="white"/>
</g>
</g>
<mask id="mask1_203_2796" style="mask-type:luminance" maskUnits="userSpaceOnUse" x="22" y="6" width="16" height="26">
<path d="M36.8026 15.6352C36.8026 15.6352 38.1623 7.58534 35.1008 6.78846C35.1008 6.78846 32.6742 6.32474 32.2645 6.90101C28.9779 11.5517 24.7054 19.3405 22.3958 29.2497C22.3958 29.2497 28.8653 33.3332 31.6972 31.1766C34.5335 29.0201 36.8026 15.6352 36.8026 15.6352Z" fill="white"/>
</mask>
<g mask="url(#mask1_203_2796)">
<g opacity="0.4">
<path d="M42.3789 30.6498L38.1919 32.3156L27.927 6.83338L32.114 5.12256L42.3789 30.6498Z" fill="white"/>
<path d="M35.3105 31.1L32.9694 32.0454L22.7045 6.51821L25.0456 5.57275L35.3105 31.1Z" fill="white"/>
</g>
</g>
<mask id="mask2_203_2796" style="mask-type:luminance" maskUnits="userSpaceOnUse" x="16" y="8" width="14" height="21">
<path d="M28.8627 8.64323C28.8627 8.64323 18.7284 14.2394 16.0046 26.8634C16.0046 26.8634 20.9975 28.7544 21.5242 28.3041C22.0555 27.8494 25.7608 14.7662 29.2409 9.77778C29.2409 9.77778 30.1459 8.41362 28.8627 8.64323Z" fill="white"/>
</mask>
<g mask="url(#mask2_203_2796)">
<path opacity="0.5" d="M27.4316 24.0769L25.4057 24.7972L20.0931 10.2553L22.1191 9.53491L27.4316 24.0769Z" fill="white"/>
<path opacity="0.5" d="M20.1837 29.1193L24.5508 27.7236L19.3733 11.2908L15.0513 12.6414L20.1837 29.1193Z" fill="white"/>
</g>
<path d="M34.9512 32.7658L34.0057 35.4671C34.0057 35.4671 18.4733 37.2679 14.4213 32.3156C14.4213 32.3156 13.3408 21.0602 30.1339 24.842C31.9797 25.2472 30.2239 32.4056 30.2239 32.4056C30.2239 32.4056 33.2854 33.3061 34.9512 32.7658Z" fill="#111111"/>
<path d="M5.18945 59.7335C5.18945 59.7335 3.52366 54.3759 2.26305 62.0746C1.00245 69.7733 1.99295 77.6521 2.39814 77.6521C2.84836 77.6521 2.17301 69.233 5.18945 59.7335Z" fill="#111111"/>
<path d="M38.1016 60.3638C38.1016 60.3638 34.2747 61.3093 30.4929 68.0625C30.4929 68.0625 29.8176 54.9163 33.5994 54.9163C33.5994 54.9163 36.5708 54.6911 38.1016 60.3638Z" fill="#111111"/>
<path d="M2.26308 79.7681C2.26308 79.7681 1.09253 57.3023 4.24404 58.608C4.24404 58.608 5.90983 59.7785 7.5306 65.7214C7.5306 65.7214 8.38603 59.8236 5.09946 56.8521C4.01894 55.8617 2.26308 56.4019 1.90291 57.8426C0.642309 62.84 -1.65379 74.4105 2.26308 79.7681Z" fill="#EF6E0B"/>
<path d="M64.169 90.5733C91.182 91.2937 138.725 92.0591 159.119 89.808L159.3 89.4028C159.3 89.4028 159.885 87.872 159.074 86.2963C158.309 84.8106 157.679 82.7396 157.138 82.3794L157.048 82.3344C156.463 82.1993 155.338 62.5699 145.793 60.4539C145.793 60.4539 127.064 52.9804 124.543 54.1509C121.977 55.3215 98.6555 54.331 98.6555 54.331C98.6555 54.331 76.595 57.3474 71.4175 66.1266C71.4175 66.1266 65.7448 77.0218 65.3846 82.7846L64.169 90.5733Z" fill="#434443"/>
<path d="M50.9752 61.6693C50.9752 61.6693 44.4921 78.5974 50.9752 82.5593C50.9752 82.5593 61.2852 87.1065 61.8704 74.8606C62.0505 70.5836 56.873 67.5671 50.9752 61.6693Z" fill="#3D4039"/>
<path d="M50.7953 61.444C50.7953 61.444 43.907 77.7417 50.9754 82.559C50.9754 82.559 61.2853 87.1062 61.8706 74.8604C62.0507 70.5833 56.6931 67.3418 50.7953 61.444Z" fill="#EF9C07"/>
<path d="M50.7965 61.444C50.7965 61.444 44.0432 77.6967 50.5263 81.6586C50.5263 81.6586 60.431 86.7461 61.0163 74.5002C61.1964 70.2232 56.6492 68.8725 50.7965 61.444Z" fill="#3D4039"/>
<path d="M164.16 62.3896C164.475 65.0008 166.321 80.083 165.556 81.2536C165.556 81.2536 161.279 84.7203 158.668 80.8034C156.101 76.9766 159.388 67.0268 163.845 62.2995C163.935 62.2095 164.16 62.2545 164.16 62.3896Z" fill="#EF6E0B"/>
<path d="M163.937 65.3612C164.432 69.4581 165.468 78.8676 165.062 80.9386C165.017 81.1187 164.882 81.2988 164.702 81.4339C163.757 82.0642 160.335 84.1802 158.084 80.8036C155.698 77.2469 158.489 69.7283 162.406 64.911C162.901 64.3257 163.847 64.6408 163.937 65.3612Z" fill="#3D4039"/>
<path d="M149.036 38.7536C149.036 38.7536 51.1596 31.4601 47.693 34.3415C47.693 34.3415 43.3709 31.235 44.3614 29.074L144.129 29.9294C144.129 29.9294 150.792 35.467 150.702 35.9173C150.567 36.4125 149.847 38.7086 149.036 38.7536Z" fill="#F7D877"/>
<path d="M8.11581 73.1499C8.11581 73.1499 7.89072 85.981 13.2033 86.9714L28.1504 88.5022L27.4301 82.6944L12.9782 80.9836C12.9782 80.9836 10.8171 80.7585 8.20586 70.6286C8.05579 70.0884 7.90572 69.6682 7.75564 69.368C7.98075 70.6286 8.11581 71.8893 8.11581 73.1499Z" fill="#EF6E0B"/>
<g style="mix-blend-mode:multiply">
<path d="M39.9023 67.3873C39.9023 67.3873 38.6867 50.4592 31.9785 53.7908C30.5829 54.5111 29.0522 57.7527 30.4478 67.9275C30.4478 67.9275 31.0781 54.1059 34.3197 55.1865C34.3197 55.1865 36.1656 54.6912 39.9023 67.3873Z" fill="#EF6E0B"/>
</g>
<mask id="mask3_203_2796" style="mask-type:luminance" maskUnits="userSpaceOnUse" x="64" y="54" width="96" height="38">
<path d="M64.1782 90.5826C91.1911 91.2849 138.738 92.0818 159.102 89.8217L159.304 89.403C159.304 89.403 159.862 87.8903 159.075 86.301C158.332 84.8153 157.688 82.7264 157.143 82.3797L157.035 82.3347C156.472 82.2176 155.329 62.5927 145.798 60.4407C145.798 60.4407 127.051 52.9896 124.521 54.1602C121.99 55.3307 98.6602 54.3133 98.6602 54.3133C98.6602 54.3133 76.5726 57.3387 71.4357 66.1134C71.4357 66.1134 65.7315 76.9996 65.3848 82.7894L64.1782 90.5826Z" fill="white"/>
</mask>
<g mask="url(#mask3_203_2796)">
<path d="M165.916 54.8265L48.5449 55.907" stroke="#4B4C4B" stroke-width="2" stroke-miterlimit="10"/>
<path d="M165.916 57.2124L48.5449 58.2929" stroke="#4B4C4B" stroke-width="2" stroke-miterlimit="10"/>
<path d="M165.916 59.5986L48.5449 60.6792" stroke="#4B4C4B" stroke-width="2" stroke-miterlimit="10"/>
<path d="M165.916 61.9847L48.5449 63.0653" stroke="#4B4C4B" stroke-width="2" stroke-miterlimit="10"/>
<path d="M165.916 64.3708L48.5449 65.4513" stroke="#4B4C4B" stroke-width="2" stroke-miterlimit="10"/>
<path d="M165.916 66.7568L48.5449 67.8373" stroke="#4B4C4B" stroke-width="2" stroke-miterlimit="10"/>
<path d="M165.916 69.0981L48.5449 70.2237" stroke="#4B4C4B" stroke-width="2" stroke-miterlimit="10"/>
<path d="M165.916 71.4844L48.5449 72.6099" stroke="#4B4C4B" stroke-width="2" stroke-miterlimit="10"/>
<path d="M165.916 73.8705L48.5449 74.996" stroke="#4B4C4B" stroke-width="2" stroke-miterlimit="10"/>
<path d="M165.916 76.2566L48.5449 77.3821" stroke="#4B4C4B" stroke-width="2" stroke-miterlimit="10"/>
<path d="M165.916 78.6426L48.5449 79.7681" stroke="#4B4C4B" stroke-width="2" stroke-miterlimit="10"/>
<path d="M165.916 81.0289L48.5449 82.1545" stroke="#4B4C4B" stroke-width="2" stroke-miterlimit="10"/>
<path d="M165.916 83.415L48.5449 84.5406" stroke="#4B4C4B" stroke-width="2" stroke-miterlimit="10"/>
</g>
<path d="M64.169 90.5733C91.182 91.2936 138.725 92.059 159.119 89.8079L159.3 89.4027C159.3 89.4027 159.885 87.872 159.074 86.2962C158.309 84.8105 157.679 82.7396 157.138 82.3794L157.048 82.3344L145.028 85.846C145.028 85.846 84.2036 87.1967 82.6279 86.7465C81.0521 86.2962 65.3846 82.7846 65.3846 82.7846L64.7093 86.9716L64.169 90.5733Z" fill="#EF6E0B"/>
<g style="mix-blend-mode:multiply">
<path d="M41.6572 84.0901V84.2252L42.1524 85.891H42.1974C42.6476 87.1966 43.413 88.9074 44.4935 89.9879C44.4935 89.9879 52.3723 90.3031 64.1679 90.5732C91.1808 91.2936 138.724 92.059 159.118 89.8079C161.039 89.5978 162.705 89.3576 164.116 89.0875C164.116 89.0875 165.827 86.4313 166.547 83.5499C163.53 84.7655 146.152 91.2936 119.815 89.2676C119.815 89.2676 63.5827 89.5828 57.2346 86.2062C55.0286 85.0806 48.2753 81.9741 48.2753 81.9741C48.2753 81.9741 47.1498 84.5404 46.3394 84.8555C45.2139 85.3507 41.6572 84.0901 41.6572 84.0901Z" fill="#EF6E0B"/>
</g>
<path d="M96.5383 73.9605H130.259C133.276 73.9605 135.707 71.5293 135.707 68.5129C135.707 65.5415 133.276 63.0653 130.259 63.0653H96.5383C93.5219 63.0653 91.0907 65.5415 91.0907 68.5129C91.0907 71.5293 93.5219 73.9605 96.5383 73.9605Z" fill="#BFC4C1"/>
<path d="M6.54026 38.5734C6.54026 38.5734 12.4831 48.7482 44.2683 41.3647C44.2683 41.3647 44.8086 38.7985 45.709 37.5829C45.709 37.5829 34.0034 41.2297 12.4831 31.5951C12.3931 31.565 12.303 31.535 12.213 31.505C11.5827 32.1353 7.30562 36.8175 6.54026 38.5734Z" fill="#F7D877"/>
<path d="M161.55 51.5845C161.55 51.5845 163.53 60.2286 149.934 62.3446C149.934 62.3446 130.26 54.3308 126.478 54.3308C126.478 54.3308 152.95 48.568 161.55 51.5845Z" fill="#EF6E0B"/>
<path d="M159.074 86.8817C158.308 85.396 157.678 83.325 157.138 82.9648L157.048 82.9198C156.462 82.8298 155.337 63.2004 145.792 61.0393C145.792 61.0393 127.063 53.5658 124.542 54.7363C121.976 55.9069 98.6547 54.9164 98.6547 54.9164C98.6547 54.9164 76.5941 57.9329 71.4167 66.712C71.4167 66.712 65.7439 77.6073 65.3838 83.37L64.1682 90.5735L62.5024 90.6185L63.5829 83.1899C63.9881 77.067 69.5708 66.3069 69.8859 65.8116C75.3785 56.3571 97.4841 53.2506 98.4296 53.1156L98.5646 53.0705L98.7447 53.1156C98.8348 53.1156 108.199 53.5207 115.583 53.5207C122.291 53.5207 123.597 53.1606 123.777 53.1156C124.182 52.8904 124.677 52.8004 125.307 52.8004C129.81 52.8004 144.171 58.4281 146.332 59.2835C155.067 61.3995 157.363 74.8159 158.353 80.5787C158.443 81.0289 158.533 81.5241 158.578 81.8393C159.119 82.4246 159.479 83.28 159.974 84.4955C160.199 85.0358 160.469 85.6211 160.694 86.0713C161.82 88.3224 161.235 89.583 161.235 89.583L159.119 89.8081C159.119 89.8081 159.884 88.5025 159.074 86.8817Z" fill="#2A2B2A"/>
<path d="M79.8803 59.2833C79.8803 59.2833 59.4856 58.1127 50.2562 52.9353C50.2562 52.9353 71.2812 43.4357 98.6543 54.3309L79.8803 59.2833Z" fill="#EF6E0B"/>
<path d="M143.586 44.8765C143.586 44.8765 122.111 45.822 120.4 45.2367C120.4 45.2367 112.926 38.0783 102.481 45.1466C102.481 45.1466 73.7575 44.9215 71.2363 44.4263C71.2363 44.4263 77.4493 49.6938 78.3497 53.0254C78.3497 53.0254 95.1878 52.4851 98.6545 54.331C102.121 56.1319 113.557 68.0626 125.037 54.6012C125.037 54.6012 138.724 51.7648 141.29 52.0349C141.29 52.0349 142.055 49.4237 143.586 44.8765Z" fill="#434443"/>
<path d="M142.19 49.3784L123.821 51.8996C123.821 51.8996 113.691 67.7922 99.6446 52.0346L76.4585 49.7385L74.9727 48.0277C74.9727 48.0277 100.68 50.2338 101.896 50.9091C101.896 50.9091 112.341 64.9108 120.985 51.0441L142.865 47.0372L142.19 49.3784Z" fill="#D6E3DD"/>
<path d="M105.769 52.2599C105.769 54.736 108.561 56.717 111.982 56.717C115.404 56.717 118.15 54.736 118.15 52.2599C118.15 49.8287 115.404 47.8027 111.982 47.8027C108.561 47.8027 105.769 49.8287 105.769 52.2599Z" fill="#D6E3DD"/>
<path d="M141.154 54.1507C141.154 54.1507 155.516 51.1343 158.533 52.4849C158.533 52.4849 160.964 52.3499 161.549 51.5845C161.549 51.5845 161.819 45.2365 157.722 40.4192C156.101 38.5283 153.85 36.9075 150.699 35.962C150.699 35.962 148.313 40.149 145.972 42.6703C145.026 43.7057 144.036 44.4711 143.27 44.4711C143.27 44.4711 139.624 53.1152 141.154 54.1507Z" fill="#D6E3DD"/>
<path d="M44.2689 41.3648C44.2689 41.3648 46.565 55.9067 54.4887 52.4851C54.4887 52.4851 71.5069 52.7102 78.9805 53.6557C78.9805 53.6557 76.9095 46.6773 68.5805 42.4453C66.5996 41.4548 64.2584 40.5994 61.5121 40.0141C61.5121 40.0141 50.4819 36.7726 49.6715 35.557C49.6715 35.557 45.1243 36.5025 44.3139 39.5639C44.1788 40.1042 44.1338 40.7345 44.2689 41.3648Z" fill="#D6E3DD"/>
<path opacity="0.6" d="M145.972 42.6703C146.287 42.6703 154.121 43.1655 157.723 40.4192C156.102 38.5283 153.851 36.9075 150.699 35.962C150.699 35.962 148.313 40.149 145.972 42.6703Z" fill="white"/>
<path opacity="0.6" d="M44.3135 39.5638L44.4035 39.6989C44.4035 39.6989 55.839 46.4521 68.5801 42.4452C66.5991 41.4547 64.258 40.5993 61.5117 40.014C61.5117 40.014 50.4814 36.7725 49.671 35.5569C49.671 35.5569 45.1239 36.5023 44.3135 39.5638Z" fill="white"/>
<path d="M19.1016 34.792C19.1016 34.792 10.2773 52.3954 17.976 82.3347" stroke="#EF6E0B" stroke-miterlimit="10" stroke-linecap="round"/>
<g style="mix-blend-mode:multiply">
<path d="M8.43097 78.2827C8.9262 81.9745 10.1418 86.3866 13.2033 86.9718L28.1504 88.5026C28.1504 88.5026 27.1149 82.5147 27.5651 80.2186L23.6482 76.3018C23.6482 76.3018 11.0422 83.145 9.55651 78.1476C9.3314 77.2922 8.9262 77.4273 8.43097 78.2827Z" fill="#EF6E0B"/>
</g>
</svg>
