<svg width="253" height="105" viewBox="0 0 253 105" fill="none" xmlns="http://www.w3.org/2000/svg">
<path d="M252.346 72.0554C252.346 72.0554 252.27 73.3095 252.08 75.1337C251.548 79.3522 250.255 86.5729 247.367 87.257C247.367 87.257 241.4 88.5491 240.26 87.865C240.26 87.865 240.716 67.685 224.223 62.5164C214.418 59.4761 195.416 59.3621 192.642 88.6631C192.642 88.6631 80.9482 85.9648 73.3855 87.181C73.3855 87.181 70.4592 86.6489 71.0672 82.0884C71.0672 82.0884 71.1052 81.1003 71.0292 79.5042C70.6492 73.3856 68.0269 58.222 51.6852 54.7637C51.6852 54.7637 28.3129 49.4051 23.3344 75.6658C23.1063 76.9199 22.9163 78.212 22.8023 79.5802C22.6503 80.9483 22.5363 82.3925 22.4603 83.9126C22.4603 83.9126 13.4914 86.0028 9.805 82.9625C9.805 82.9625 0.532054 83.0005 0.380039 82.5065L0 79.9222C0 79.9222 0.07601 79.8082 0.228025 79.6182C1.06411 78.6301 3.53436 75.3237 1.40615 75.0577C1.40615 75.0577 -0.342032 67.419 0.798083 59.2101C2.05221 50.2412 6.68868 40.7022 20.5981 39.6001C20.5981 39.6001 54.1555 32.7974 63.3144 28.085C80.0361 19.5341 108.349 1.67226 149.849 3.9905C167.749 4.9786 197.316 4.59857 221.296 11.0592C221.296 11.0592 222.399 12.5034 222.893 14.4796C222.893 14.4796 239.462 32.0374 240.45 32.9115C241.248 33.6335 242.009 34.3936 242.731 35.1157C243.909 36.2558 244.935 37.3959 245.809 38.612C248.583 42.4504 249.609 46.8969 246.721 53.5855C246.721 53.5855 254.208 66.0128 252.346 72.0554Z" fill="#EF6E0B"/>
<path d="M28.196 84.9775L22.4574 83.9134C22.4574 83.9134 20.2912 54.6124 46.5898 54.1184C56.6229 53.9663 73.4966 60.655 71.1403 85.7756C71.1403 85.7756 68.9361 90.032 64.3377 90.7161C64.3377 90.7161 77.373 68.1798 52.2524 59.5149C43.3975 56.4746 25.9538 63.0493 28.196 84.9775Z" fill="#2A2B2A"/>
<path d="M196.172 88.3598L192.486 88.5498C192.486 88.5498 190.51 62.3652 215.63 60.427C225.625 59.6669 242.233 68.0278 240.257 87.8658C240.257 87.8658 239.877 85.8516 236.874 86.8017C236.874 86.8017 237.026 72.9302 222.167 66.8876C213.464 63.3913 196.552 66.7736 196.172 88.3598Z" fill="#2A2B2A"/>
<path d="M68.5575 79.6183C68.0634 90.7914 58.2964 99.4183 46.7433 98.8863C35.2281 98.3542 26.2972 88.8532 26.8292 77.6801C27.3233 66.507 37.0903 57.8801 48.6434 58.4121C60.1586 58.9822 69.0895 68.4452 68.5575 79.6183Z" fill="#3D4039"/>
<path d="M62.0586 79.7323C61.6786 87.9792 54.6099 94.3258 46.287 93.9457C37.9642 93.5277 31.5035 86.573 31.9215 78.3642C32.3016 70.1173 39.3323 63.7707 47.6551 64.1507C55.978 64.5688 62.4386 71.5235 62.0586 79.7323Z" fill="#D6E3DD"/>
<path d="M57.5759 79.1244C57.3099 84.901 52.4454 89.3854 46.7068 89.1194C41.0062 88.8534 36.5598 83.9509 36.8258 78.1743C37.1298 72.3977 41.9563 67.9512 47.6949 68.2173C53.4335 68.4833 57.8419 73.3478 57.5759 79.1244Z" fill="#3D4039"/>
<path d="M59.9317 81.6325L60.3498 77.6801L52.217 77.2621C52.1663 77.1101 52.1156 76.958 52.0649 76.806L58.4496 72.0555L55.9793 68.9772L49.9367 74.3358C49.7847 74.2598 49.6454 74.1837 49.5187 74.1077L50.7728 66.0889L46.8204 65.6709L46.2884 73.6897C46.0603 73.715 45.8576 73.7657 45.6803 73.8417L40.7018 67.3811L37.6615 69.9653L42.982 75.7039C42.7287 76.0586 42.526 76.4386 42.374 76.844L34.3551 76.122L34.2031 80.1124H42.2599C42.2853 80.239 42.3233 80.353 42.374 80.4544L36.0273 85.7369L38.7256 88.6632L44.5022 82.9246C44.7302 83.0513 44.9582 83.1653 45.1862 83.2667L43.5141 91.2095L47.4285 91.9316L48.5306 83.5327C48.6826 83.482 48.8219 83.4314 48.9486 83.3807L48.8726 83.4567L53.5471 90.2594L56.7774 87.9032L51.4949 81.5185C51.7229 81.2145 51.9003 80.8851 52.0269 80.5304L59.9317 81.6325Z" fill="#D6E3DD"/>
<path d="M46.2501 75.9698C46.2501 76.6159 45.7181 77.0719 45.072 77.0339C44.464 77.0339 43.9699 76.5019 44.0079 75.8558C44.0459 75.2478 44.54 74.7537 45.186 74.7917C45.7941 74.8297 46.2881 75.3618 46.2501 75.9698Z" fill="#C6C6C6"/>
<path d="M46.2501 75.9698C46.2501 76.6159 45.7181 77.0719 45.072 77.0339C44.464 77.0339 43.9699 76.5019 44.0079 75.8558C44.0459 75.2478 44.54 74.7537 45.186 74.7917C45.7941 74.8297 46.2881 75.3618 46.2501 75.9698Z" stroke="#3D4039" stroke-width="0.4" stroke-miterlimit="10"/>
<path d="M51.1143 76.7298C51.0763 77.3759 50.5443 77.832 49.9362 77.832C49.2901 77.794 48.7961 77.2619 48.8341 76.6538C48.8721 76.0078 49.4041 75.5137 50.0122 75.5517C50.6583 75.5897 51.1523 76.1218 51.1143 76.7298Z" fill="#C6C6C6"/>
<path d="M51.1143 76.7298C51.0763 77.3759 50.5443 77.832 49.9362 77.832C49.2901 77.794 48.7961 77.2619 48.8341 76.6538C48.8721 76.0078 49.4041 75.5137 50.0122 75.5517C50.6583 75.5897 51.1523 76.1218 51.1143 76.7298Z" stroke="#3D4039" stroke-width="0.4" stroke-miterlimit="10"/>
<path d="M50.2386 81.5184C50.2006 82.1645 49.6685 82.6585 49.0605 82.6205C48.4144 82.5825 47.9583 82.0505 47.9964 81.4424C47.9964 80.7964 48.5284 80.3023 49.1745 80.3403C49.7825 80.3783 50.2766 80.9104 50.2386 81.5184Z" fill="#C6C6C6"/>
<path d="M50.2386 81.5184C50.2006 82.1645 49.6685 82.6585 49.0605 82.6205C48.4144 82.5825 47.9583 82.0505 47.9964 81.4424C47.9964 80.7964 48.5284 80.3023 49.1745 80.3403C49.7825 80.3783 50.2766 80.9104 50.2386 81.5184Z" stroke="#3D4039" stroke-width="0.4" stroke-miterlimit="10"/>
<path d="M45.338 80.7584C45.338 81.4045 44.806 81.8605 44.1599 81.8225C43.5519 81.8225 43.0578 81.2905 43.0958 80.6444C43.1338 80.0363 43.6279 79.5423 44.2739 79.5803C44.882 79.6183 45.376 80.1504 45.338 80.7584Z" fill="#C6C6C6"/>
<path d="M45.338 80.7584C45.338 81.4045 44.806 81.8605 44.1599 81.8225C43.5519 81.8225 43.0578 81.2905 43.0958 80.6444C43.1338 80.0363 43.6279 79.5423 44.2739 79.5803C44.882 79.6183 45.376 80.1504 45.338 80.7584Z" stroke="#3D4039" stroke-width="0.4" stroke-miterlimit="10"/>
<path d="M237.636 85.5088C237.104 96.6819 227.337 105.309 215.784 104.777C204.269 104.245 195.338 94.7437 195.87 83.5706C196.364 72.3975 206.169 63.7706 217.684 64.3026C229.2 64.8347 238.131 74.3357 237.636 85.5088Z" fill="#3D4039"/>
<path d="M231.102 85.6231C230.722 93.8699 223.654 100.217 215.331 99.8365C207.008 99.4185 200.585 92.4637 200.965 84.2549C201.345 76.0081 208.376 69.6614 216.699 70.0415C225.022 70.4595 231.482 77.4142 231.102 85.6231Z" fill="#D6E3DD"/>
<path d="M226.617 85.0149C226.351 90.7915 221.487 95.2759 215.748 95.0099C210.048 94.7439 205.601 89.8414 205.905 84.0648C206.171 78.2882 210.998 73.8417 216.736 74.1078C222.475 74.3738 226.883 79.2383 226.617 85.0149Z" fill="#3D4039"/>
<path d="M228.973 87.5233L229.391 83.5709L221.258 83.1528C221.207 83.0008 221.157 82.8488 221.106 82.6968L227.491 77.9463L225.02 74.868L218.978 80.2265C218.826 80.1505 218.686 80.0745 218.56 79.9985L219.814 71.9797L215.861 71.5616L215.329 79.5805C215.101 79.6058 214.899 79.6565 214.721 79.7325L209.743 73.2718L206.702 75.8561L212.023 81.5947C211.77 81.9494 211.567 82.3294 211.415 82.7348L203.396 82.0127L203.244 86.0031H211.301C211.326 86.1298 211.364 86.2438 211.415 86.3451L205.068 91.6277L207.767 94.554L213.543 88.8154C213.771 88.9421 213.999 89.0561 214.227 89.1574L212.555 97.1002L216.469 97.8223L217.572 89.4235C217.724 89.3728 217.863 89.3221 217.99 89.2714L217.914 89.3474L222.588 96.1501L225.818 93.7559L220.536 87.4092C220.764 87.1052 220.941 86.7758 221.068 86.4211L228.973 87.5233Z" fill="#D6E3DD"/>
<path d="M215.293 81.8608C215.293 82.5069 214.761 82.9629 214.115 82.9249C213.507 82.9249 213.013 82.3929 213.051 81.7468C213.089 81.1388 213.621 80.6447 214.229 80.6827C214.837 80.7207 215.331 81.2528 215.293 81.8608Z" fill="#C6C6C6"/>
<path d="M215.293 81.8608C215.293 82.5069 214.761 82.9629 214.115 82.9249C213.507 82.9249 213.013 82.3929 213.051 81.7468C213.089 81.1388 213.621 80.6447 214.229 80.6827C214.837 80.7207 215.331 81.2528 215.293 81.8608Z" stroke="#3D4039" stroke-width="0.4" stroke-miterlimit="10"/>
<path d="M220.157 82.6211C220.119 83.2671 219.587 83.7232 218.979 83.7232C218.333 83.6852 217.877 83.1531 217.877 82.5071C217.915 81.899 218.447 81.405 219.055 81.443C219.701 81.481 220.195 82.013 220.157 82.6211Z" fill="#C6C6C6"/>
<path d="M220.157 82.6211C220.119 83.2671 219.587 83.7232 218.979 83.7232C218.333 83.6852 217.877 83.1531 217.877 82.5071C217.915 81.899 218.447 81.405 219.055 81.443C219.701 81.481 220.195 82.013 220.157 82.6211Z" stroke="#3D4039" stroke-width="0.4" stroke-miterlimit="10"/>
<path d="M219.281 87.4092C219.243 88.0552 218.711 88.5113 218.103 88.5113C217.495 88.4733 217.001 87.9412 217.039 87.3332C217.039 86.6871 217.571 86.1931 218.217 86.2311C218.825 86.2691 219.319 86.8011 219.281 87.4092Z" fill="#C6C6C6"/>
<path d="M219.281 87.4092C219.243 88.0552 218.711 88.5113 218.103 88.5113C217.495 88.4733 217.001 87.9412 217.039 87.3332C217.039 86.6871 217.571 86.1931 218.217 86.2311C218.825 86.2691 219.319 86.8011 219.281 87.4092Z" stroke="#3D4039" stroke-width="0.4" stroke-miterlimit="10"/>
<path d="M214.381 86.6496C214.381 87.2957 213.849 87.7518 213.203 87.7138C212.595 87.7138 212.101 87.1817 212.139 86.5356C212.177 85.9276 212.709 85.4335 213.317 85.4715C213.925 85.5095 214.419 86.0416 214.381 86.6496Z" fill="#C6C6C6"/>
<path d="M214.381 86.6496C214.381 87.2957 213.849 87.7518 213.203 87.7138C212.595 87.7138 212.101 87.1817 212.139 86.5356C212.177 85.9276 212.709 85.4335 213.317 85.4715C213.925 85.5095 214.419 86.0416 214.381 86.6496Z" stroke="#3D4039" stroke-width="0.4" stroke-miterlimit="10"/>
<path d="M242.729 35.1157C242.729 35.1157 242.717 35.1157 242.691 35.1157C240.183 35.3817 231.1 33.1395 231.1 33.1395C226.008 32.9874 219.889 32.9495 213.086 32.9875C175.045 33.3295 114.276 36.6358 74.8664 38.9921C52.0641 40.3602 36.4065 41.4243 36.4065 41.4243C25.0053 49.5951 0.872882 59.2481 0.872882 59.2481L0.796875 59.2101C2.051 50.2412 6.68748 40.7022 20.5969 39.6001C20.5969 39.6001 26.4495 38.384 33.8982 36.6738C44.3493 34.2796 57.9547 30.8212 63.3132 28.085C80.0349 19.5341 108.348 1.67226 149.848 3.9905C167.748 4.9786 197.315 4.59857 221.295 11.0592C221.295 11.0592 222.397 12.5034 222.891 14.4796C223.309 14.9356 237.447 29.8711 240.069 32.5314C240.247 32.7341 240.373 32.8608 240.449 32.9114C241.247 33.6335 242.007 34.3936 242.729 35.1157Z" fill="#EF6E0B"/>
<path d="M145.06 43.2862C144.984 44.9964 141.374 46.1745 137.041 45.9845C132.671 45.7945 129.212 44.2363 129.288 42.5641C129.364 40.892 132.975 39.6759 137.307 39.8659C141.678 40.0939 145.136 41.6141 145.06 43.2862Z" fill="#F49211"/>
<path d="M207.502 40.436C207.426 42.1082 203.816 43.2863 199.483 43.0963C195.113 42.9063 191.654 41.3861 191.768 39.6759C191.844 38.0038 195.417 36.7876 199.749 37.0157C204.12 37.2057 207.578 38.7258 207.502 40.436Z" fill="#F49211"/>
<path d="M231.139 48.9873C231.025 51.7616 228.668 53.9278 225.856 53.7758C223.082 53.6618 220.916 51.3056 221.03 48.4933C221.182 45.719 223.538 43.5528 226.35 43.7048C229.125 43.8188 231.291 46.1751 231.139 48.9873Z" fill="#F49211"/>
<path d="M76.4641 25.6907C76.4641 25.6907 52.2177 38.0799 62.3267 38.574L74.868 38.992C74.868 38.992 74.3359 31.5053 76.4641 25.6907Z" fill="#EF6E0B"/>
<path d="M246.721 53.5855C242.503 53.9275 229.392 41.1962 229.392 41.1962C224.451 34.6596 245.315 38.536 245.315 38.536L245.809 38.612C248.584 42.4504 249.61 46.8968 246.721 53.5855Z" fill="#D6E3DD"/>
<path d="M99.2273 15.9617C105.346 13.8334 131.303 5.28258 148.404 7.98085C148.974 8.09486 149.316 8.62692 149.202 9.19698C148.29 13.0354 144.946 26.8688 143.046 32.7594C142.704 33.8235 141.754 34.5836 140.651 34.6216L96.681 37.0158L94.1348 30.0611L97.4411 17.7478C97.7451 16.9118 98.3912 16.2277 99.2273 15.9617Z" fill="#D6E3DD"/>
<path d="M99.2273 15.9617C105.346 13.8334 131.303 5.28258 148.404 7.98085C148.974 8.09486 149.316 8.62692 149.202 9.19698C148.29 13.0354 144.946 26.8688 143.046 32.7594C142.704 33.8235 141.754 34.5836 140.651 34.6216L96.681 37.0158L94.1348 30.0611L97.4411 17.7478C97.7451 16.9118 98.3912 16.2277 99.2273 15.9617Z" fill="#D6E3DD"/>
<path d="M99.2273 15.9617C105.346 13.8334 131.303 5.28258 148.404 7.98085C148.974 8.09486 149.316 8.62692 149.202 9.19698C148.29 13.0354 144.946 26.8688 143.046 32.7594C142.704 33.8235 141.754 34.5836 140.651 34.6216L96.681 37.0158L94.1348 30.0611L97.4411 17.7478C97.7451 16.9118 98.3912 16.2277 99.2273 15.9617Z" fill="#D6E3DD"/>
<path d="M99.2273 15.9617C105.346 13.8334 131.303 5.28258 148.404 7.98085C148.974 8.09486 149.316 8.62692 149.202 9.19698C148.29 13.0354 144.946 26.8688 143.046 32.7594C142.704 33.8235 141.754 34.5836 140.651 34.6216L96.681 37.0158L94.1348 30.0611L97.4411 17.7478C97.7451 16.9118 98.3912 16.2277 99.2273 15.9617Z" fill="#D6E3DD"/>
<path d="M22.8023 79.5799C22.6503 80.9481 22.5363 82.3922 22.4603 83.9124C22.4603 83.9124 13.4914 86.0026 9.805 82.9623C9.805 82.9623 0.532054 83.0003 0.380039 82.5062L0 79.922C0 79.922 19.192 80.226 22.3843 79.6179C22.5363 79.5673 22.6756 79.5546 22.8023 79.5799Z" fill="#F49211"/>
<path d="M9.15747 77.4901C9.15747 77.4901 3.00084 80.1123 0.226562 79.6183C1.06265 78.6302 3.5329 75.3238 1.40468 75.0578C1.40468 75.0578 4.02695 60.8824 9.99355 60.0083C9.99355 60.0083 13.984 77.3381 9.15747 77.4901Z" fill="#F49211"/>
<path d="M9.15899 77.4898C8.01887 73.6894 9.99507 60.0081 9.99507 60.0081C9.99507 60.0081 13.9855 77.3378 9.15899 77.4898Z" fill="#E27E05"/>
<path d="M194.579 66.6587C191.957 66.5446 190.627 60.9581 190.627 60.9581C191.159 55.4475 185.61 56.4736 183.482 55.9036C149.469 46.7066 88.9665 55.3335 76.1592 55.5235C75.1331 55.5615 66.1262 58.9819 66.1262 59.1719C60.4256 52.3312 51.2286 50.393 45.4521 50.811C20.7115 52.4452 23.1438 75.5136 23.1438 75.5136C23.1438 75.5136 23.2071 75.5642 23.3338 75.6656C28.3123 49.4049 51.6847 54.7635 51.6847 54.7635C65.1 57.6137 71.4847 69.0529 71.0286 79.504C71.0667 79.1239 82.6578 81.4422 83.912 81.1761L146.162 82.8103L180.252 83.6844C180.252 83.6844 185.762 84.8245 188.841 77.3377C188.993 76.983 189.132 76.603 189.259 76.1976C189.259 76.1976 191.653 71.8652 194.921 67.7228C194.921 67.0387 194.807 66.6587 194.579 66.6587Z" fill="#EF6E0B"/>
<path d="M84.4824 78.06C84.4824 78.06 133.849 67.913 172.765 74.8677L84.4824 78.06Z" fill="#F7D877"/>
<path d="M16.3027 52.4834C16.3027 52.4834 34.4686 62.4404 62.7054 37.2058L36.4068 41.4242C36.4068 41.4242 25.1956 48.3789 16.3027 52.4834Z" fill="#EF6E0B"/>
<path d="M240.072 32.5313C239.844 32.43 239.591 32.316 239.312 32.1893C226.695 26.1847 223.009 14.8595 222.895 14.4795C223.313 14.9355 237.45 29.8711 240.072 32.5313Z" fill="#F49211"/>
<path d="M199.369 7.0688C199.369 7.0688 202.98 4.1425 203.626 7.86688L199.369 7.0688Z" fill="#111111"/>
<path d="M207.805 0.228037L207.501 0L202.561 6.53667L202.865 6.76471L207.805 0.228037Z" fill="#111111"/>
<path d="M252.08 75.1335C251.548 79.3519 250.256 86.5727 247.367 87.2567C247.367 87.2567 241.401 88.5488 240.261 87.8648C240.261 87.8648 240.717 67.6847 224.223 62.5162C214.418 59.4759 195.416 59.3619 192.642 88.6629C192.642 88.6629 80.9485 85.9646 73.3858 87.1807C73.3858 87.1807 70.4595 86.6487 71.0675 82.0882C71.0675 82.0882 71.1055 80.7961 70.9915 79.1999C70.9915 79.1999 171.626 69.3189 188.841 77.3377C188.841 77.3377 198.608 53.4333 222.779 59.0579C222.779 59.0579 232.394 60.654 238.665 69.6229C238.665 69.6229 246.987 77.1097 251.814 75.1715C251.915 75.1462 252.004 75.1335 252.08 75.1335Z" fill="#F49211"/>
<path d="M38.1184 38.916C38.1184 38.916 63.467 33.8615 70.1937 29.035C70.1937 29.035 53.9661 38.574 62.2509 38.0039C108.426 34.8496 213.316 32.6454 213.316 32.9114C213.582 38.384 35.9902 41.5003 35.9902 41.5003C35.9902 41.5003 38.7645 40.7022 38.1184 38.916Z" fill="#F7D877"/>
<path d="M221.295 11.059C221.295 11.059 214.492 12.1231 212.744 13.4533C212.288 13.7953 211.718 13.8713 211.186 13.7193C207.424 12.5792 195.225 9.15883 182.531 7.75269C182.531 7.75269 203.813 8.01872 221.295 11.059Z" fill="#E27E05"/>
<path d="M36.4091 41.4241L36.1811 41.6901C36.0798 41.7914 35.9784 41.8801 35.8771 41.9561C24.97 52.6732 9.00835 51.5711 9.00835 51.5711C9.00835 51.5711 8.85634 46.4406 13.6448 42.5642C14.975 41.4621 16.7611 40.474 19.0034 39.7519C19.4341 39.5999 19.8648 39.4732 20.2955 39.3719C20.2955 39.3719 26.4521 38.4218 33.9009 36.6736L34.0149 36.7116C34.0149 36.7116 41.8057 38.8018 36.4091 41.4241Z" fill="#E0E9EF"/>
<path d="M188.841 77.338C185.763 84.8248 180.252 83.6847 180.252 83.6847L146.163 82.8106L83.9126 81.1764C82.6584 81.4424 81.5943 81.4804 80.7202 81.4044L77.3379 78.6681C77.3379 78.6681 166.571 69.1292 188.309 77.148C188.461 77.224 188.651 77.262 188.841 77.338Z" fill="#E27E05"/>
<path d="M202.182 61.034C199.674 62.2882 197.09 64.9484 194.924 67.7227C191.655 71.8651 189.261 76.1976 189.261 76.1976C189.134 76.6029 188.995 76.983 188.843 77.3377C185.765 84.8244 180.254 83.6843 180.254 83.6843L146.165 82.8102L83.9143 81.1761C82.6602 81.4421 81.5961 81.4801 80.722 81.4041C75.3254 80.9861 76.3135 75.5135 76.3135 75.5135C73.8813 69.6609 73.0832 62.9342 73.0452 56.8916C72.9692 47.0486 74.8694 38.9538 74.8694 38.9538C82.5461 37.5476 116.712 35.9895 149.167 34.8114C182.04 33.5952 213.165 32.7592 213.165 32.7592C216.624 51.4571 202.182 61.034 202.182 61.034Z" stroke="#E27E05" stroke-width="2" stroke-miterlimit="10"/>
<path d="M148.976 35.1155C148.976 35.1155 142.63 74.0314 146.012 82.2783" stroke="#E27E05" stroke-width="2" stroke-miterlimit="10"/>
<path d="M213.166 32.7592C213.166 32.8352 213.141 32.9113 213.09 32.9873C195.342 33.1393 172.616 33.9374 149.472 35.0015C122.983 36.1796 95.8862 37.7377 74.87 38.9919V38.9538C74.87 38.9538 74.414 24.8544 79.4685 22.4982C79.4685 22.4982 113.862 3.00221 155.856 5.8525C169.652 6.76459 208.986 8.13274 210.202 15.9995C210.202 15.9995 213.242 29.7949 213.166 32.7592Z" fill="#434443"/>
<path d="M160.911 10.261C159.809 15.9236 156.464 33.1014 156.502 34.2795L198.345 33.3294C198.345 33.3294 206.667 22.6883 204.919 15.3156C204.691 14.4035 177.252 8.81691 163.115 8.47487C162.051 8.43687 161.101 9.19693 160.911 10.261Z" fill="#D6E3DD"/>
<path d="M81.5184 24.4743C84.1787 22.3081 90.6014 19.7238 93.9457 18.5457C94.4398 18.3557 94.9718 18.7737 94.8578 19.3438C94.3257 22.2321 92.7676 30.2509 92.0075 30.7449C92.0075 30.7449 83.6087 32.9872 80.4163 31.011C80.4163 31.011 79.6182 26.0325 81.5184 24.4743Z" fill="#D6E3DD"/>
<path d="M92.7303 26.4506C92.7303 26.4506 95.9606 32.7593 92.8443 35.3815C92.8443 35.3815 83.7234 36.5217 83.6094 30.365C83.6094 30.365 84.2554 24.8545 92.7303 26.4506Z" fill="#2A2B2A"/>
<mask id="mask0_203_2143" style="mask-type:luminance" maskUnits="userSpaceOnUse" x="156" y="8" width="50" height="27">
<path d="M160.909 10.2492C159.807 15.908 156.478 33.1161 156.508 34.2677L198.354 33.3214C198.354 33.3214 206.681 22.6993 204.91 15.3227C204.693 14.4182 177.258 8.82788 163.128 8.47445C162.053 8.44784 161.114 9.19271 160.909 10.2492Z" fill="white"/>
</mask>
<g mask="url(#mask0_203_2143)">
<g opacity="0.6">
<path d="M160.758 35.1537L163.76 37.852L192.757 5.39672L189.717 2.73645L160.758 35.1537Z" fill="white"/>
<path d="M168.891 37.7002L175.617 43.7048L204.576 11.2875L197.85 5.24487L168.891 37.7002Z" fill="white"/>
</g>
</g>
<path d="M99.2292 15.9618C105.348 13.8336 131.305 5.2827 148.406 7.98097C148.976 8.09499 149.318 8.62704 149.204 9.1971C148.292 13.0355 144.948 26.8689 143.048 32.7595C142.706 33.8236 141.756 34.5837 140.653 34.6217L96.683 37.0159L94.1367 30.0612L97.443 17.748C97.7471 16.9119 98.3931 16.2278 99.2292 15.9618Z" fill="#D6E3DD"/>
<mask id="mask1_203_2143" style="mask-type:luminance" maskUnits="userSpaceOnUse" x="94" y="7" width="56" height="31">
<path d="M99.2462 15.9544C105.365 13.8186 131.318 5.29809 148.423 7.99637C148.978 8.08378 149.331 8.63483 149.202 9.17828C148.286 13.0243 144.953 26.8843 143.053 32.7787C142.711 33.8352 141.75 34.5725 140.64 34.6295L96.6999 37.0085L94.1309 30.0538L97.4486 17.7368C97.7488 16.9007 98.4063 16.247 99.2462 15.9544Z" fill="white"/>
</mask>
<g mask="url(#mask1_203_2143)">
<g opacity="0.6">
<path d="M99.459 42.0702L102.309 44.3125L135.373 3.11629L132.56 0.83606L99.459 42.0702Z" fill="white"/>
<path d="M108.77 41.7282L119.791 50.5831L152.854 9.38688L141.833 0.531982L108.77 41.7282Z" fill="white"/>
</g>
</g>
</svg>
