<svg width="88" height="65" viewBox="0 0 88 65" fill="none" xmlns="http://www.w3.org/2000/svg">
<path fill-rule="evenodd" clip-rule="evenodd" d="M49.8268 7.92871C50.8151 7.92874 51.7839 8.20394 52.6246 8.72348C53.4654 9.24302 54.1448 9.98637 54.5869 10.8703L57.0459 15.7865C57.4788 15.6091 57.9046 15.4175 58.3233 15.2117C58.7444 15.0013 59.2319 14.9669 59.6784 15.116C60.1249 15.265 60.4939 15.5854 60.7042 16.0065C60.9146 16.4276 60.949 16.9151 60.7999 17.3616C60.6509 17.8081 60.3305 18.1771 59.9094 18.3874C59.483 18.5772 59.0542 18.7618 58.6231 18.941L60.3281 22.3527C60.6982 23.0924 60.8908 23.9082 60.8905 24.7354V29.2187C60.8916 29.9677 60.7341 30.7085 60.4283 31.3922C60.1225 32.076 59.6754 32.6872 59.1164 33.1857V35.4283C59.1164 36.1341 58.836 36.811 58.3369 37.3101C57.8378 37.8091 57.1609 38.0895 56.4551 38.0895C55.7493 38.0895 55.0724 37.8091 54.5733 37.3101C54.0743 36.811 53.7939 36.1341 53.7939 35.4283V34.5412H32.5039V35.4283C32.5039 36.1341 32.2235 36.811 31.7244 37.3101C31.2253 37.8091 30.5484 38.0895 29.8426 38.0895C29.1368 38.0895 28.4599 37.8091 27.9609 37.3101C27.4618 36.811 27.1814 36.1341 27.1814 35.4283V33.1857C26.0921 32.2099 25.4072 30.7942 25.4072 29.2187V24.7336C25.4076 23.9077 25.6001 23.0931 25.9696 22.3544L27.6604 18.9693C27.2328 18.7884 26.8088 18.5968 26.3919 18.3892C25.9729 18.1761 25.6544 17.8069 25.505 17.3612C25.3557 16.9155 25.3875 16.429 25.5935 16.0065C25.6976 15.7979 25.8417 15.6119 26.0177 15.459C26.1938 15.3062 26.3982 15.1895 26.6193 15.1157C26.8404 15.0419 27.0739 15.0123 27.3064 15.0288C27.5389 15.0453 27.7659 15.1074 27.9744 15.2117C28.3931 15.4192 28.8207 15.6091 29.2518 15.7865L31.7108 10.8721C32.1527 9.98782 32.8321 9.2441 33.6728 8.72424C34.5135 8.20437 35.4824 7.92891 36.4709 7.92871H49.8268ZM35.1651 23.8962C34.4593 23.8962 33.7824 24.1766 33.2833 24.6757C32.7843 25.1747 32.5039 25.8516 32.5039 26.5574C32.5039 27.2633 32.7843 27.9402 33.2833 28.4392C33.7824 28.9383 34.4593 29.2187 35.1651 29.2187C35.8709 29.2187 36.5478 28.9383 37.0469 28.4392C37.546 27.9402 37.8264 27.2633 37.8264 26.5574C37.8264 25.8516 37.546 25.1747 37.0469 24.6757C36.5478 24.1766 35.8709 23.8962 35.1651 23.8962ZM51.1326 23.8962C50.4268 23.8962 49.7499 24.1766 49.2508 24.6757C48.7518 25.1747 48.4714 25.8516 48.4714 26.5574C48.4714 27.2633 48.7518 27.9402 49.2508 28.4392C49.7499 28.9383 50.4268 29.2187 51.1326 29.2187C51.8384 29.2187 52.5153 28.9383 53.0144 28.4392C53.5135 27.9402 53.7939 27.2633 53.7939 26.5574C53.7939 25.8516 53.5135 25.1747 53.0144 24.6757C52.5153 24.1766 51.8384 23.8962 51.1326 23.8962ZM49.8268 11.477H36.4709C36.1789 11.477 35.8914 11.549 35.6339 11.6868C35.3764 11.8245 35.1569 12.0236 34.9948 12.2665L34.8848 12.4582L32.6316 16.961C35.378 17.7842 39.0789 18.5737 43.1489 18.5737C46.9491 18.5737 50.4247 17.8853 53.1019 17.1242L53.6644 16.961L51.4129 12.4582C51.2824 12.197 51.0894 11.9722 50.8511 11.8035C50.6128 11.6348 50.3365 11.5276 50.0468 11.4912L49.8286 11.477H49.8268Z" fill="#EF6E0B"/>
<path d="M82.9793 64.7019L80.2755 60.742H77.9762V64.7019H73.7607V49.799H80.5735C84.6399 49.799 87.1947 51.9067 87.1947 55.3131C87.1947 57.5059 86.1302 59.124 84.278 60.0181L87.4928 64.7019H82.9793ZM82.9367 55.3131C82.9367 53.9292 82.0638 53.1202 80.3181 53.1202H77.9762V57.4846H80.3181C82.0638 57.4846 82.9367 56.6756 82.9367 55.3131Z" fill="#0059A3"/>
<path d="M68.1797 64.7019L67.0087 61.8065H60.7069L59.5359 64.7019H55.2354L61.814 49.799H65.9655L72.5654 64.7019H68.1797ZM61.9417 58.6982H65.7739L63.8578 53.9292L61.9417 58.6982Z" fill="#0059A3"/>
<path d="M48.9857 65C44.2593 65 40.7891 61.7852 40.7891 57.2505C40.7891 52.7157 44.2593 49.5009 48.9857 49.5009C51.7321 49.5009 53.9463 50.5015 55.394 52.3112L52.7115 54.7383C51.7747 53.6099 50.625 52.9925 49.1986 52.9925C46.7503 52.9925 45.0471 54.6957 45.0471 57.2505C45.0471 59.8053 46.7503 61.5085 49.1986 61.5085C50.625 61.5085 51.7747 60.8911 52.7115 59.7627L55.394 62.1897C53.9463 63.9994 51.7321 65 48.9857 65Z" fill="#0059A3"/>
<path d="M34.2872 49.799L28.5815 59.3582V64.7019H24.3661V59.2943L18.6816 49.799H23.1312L26.6654 55.7176L30.1995 49.799H34.2872Z" fill="#0059A3"/>
<path d="M17.6152 64.7019H13.7404L13.6978 56.8034L9.86565 63.2329H7.99213L4.18122 57.0163V64.7019H0.285156V49.799H3.75542L8.99276 58.4001L14.1024 49.799H17.5726L17.6152 64.7019Z" fill="#0059A3"/>
</svg>
