<svg width="36" height="36" viewBox="0 0 36 36" fill="none" xmlns="http://www.w3.org/2000/svg">
<path d="M31.7415 24.984C31.6824 25.5724 31.4704 26.135 31.1265 26.616C30.8136 27.0797 30.3912 27.4591 29.8967 27.7207C29.4023 27.9824 28.8509 28.1181 28.2915 28.116H23.8815C23.8033 28.5198 23.6878 28.9155 23.5365 29.298C23.2349 30.0319 22.7905 30.6986 22.2291 31.2594C21.6678 31.8202 21.0007 32.264 20.2665 32.565C19.524 32.865 18.7275 33.012 17.9265 33H17.8065C17.0653 32.9946 16.3321 32.8469 15.6465 32.565C14.9013 32.2756 14.2263 31.8308 13.6665 31.26C13.1012 30.7028 12.6569 30.0348 12.3615 29.298C12.2102 28.915 12.0947 28.5188 12.0165 28.1145H7.78654C7.23411 28.1585 6.67939 28.0652 6.17171 27.843C5.66402 27.6208 5.21911 27.2766 4.87654 26.841C4.55301 26.3149 4.35022 25.7235 4.28278 25.1096C4.21534 24.4956 4.28493 23.8744 4.48654 23.2905C4.81306 22.4248 5.25723 21.6081 5.80654 20.8635C6.43818 20.1003 6.86188 19.1867 7.03654 18.2115C7.03654 13.8825 7.03654 12.414 9.40654 9.59703C10.1885 8.6642 11.16 7.90846 12.2565 7.38003L13.4265 6.81003C13.4836 6.7736 13.5343 6.72798 13.5765 6.67503C13.6213 6.61794 13.6522 6.55116 13.6665 6.48003C13.8362 5.74828 14.1867 5.07076 14.6859 4.50946C15.1851 3.94816 15.8171 3.52099 16.524 3.26703C17.2309 3.01225 17.9903 2.93835 18.733 3.05206C19.4758 3.16576 20.1783 3.46345 20.7765 3.91803C21.5974 4.57114 22.1347 5.5157 22.2765 6.55503V6.70503C22.3202 6.76627 22.3764 6.81742 22.4415 6.85503L23.5215 7.38003C24.6165 7.90503 25.5885 8.65503 26.3715 9.58203C28.7415 12.414 28.7415 13.8825 28.7415 18.2115C28.9425 19.2465 29.4015 20.2155 30.0765 21.0285C30.6165 21.75 31.0545 22.542 31.3815 23.3805C31.6275 23.8785 31.752 24.4275 31.7415 24.984Z" fill="#737373"/>
</svg>
