<svg width="294" height="219" viewBox="0 0 294 219" fill="none" xmlns="http://www.w3.org/2000/svg">
<path d="M293.613 192.434H0V192.287H293.613V192.434Z" fill="#EBEBEB"/>
<path fill-rule="evenodd" clip-rule="evenodd" d="M139.172 166.097H25.7788C23.9291 166.097 22.4316 164.599 22.4316 162.749V3.34712C22.4316 1.49736 23.9291 -6.10352e-05 25.7788 -6.10352e-05H139.172C141.022 -6.10352e-05 142.519 1.49736 142.519 3.34712V162.749C142.519 164.599 141.022 166.097 139.172 166.097ZM25.7788 0.146745C24.0171 0.146745 22.5784 1.58545 22.5784 3.34712V162.749C22.5784 164.511 24.0171 165.95 25.7788 165.95H139.172C140.934 165.95 142.372 164.511 142.372 162.749V3.34712C142.372 1.58545 140.934 0.146745 139.172 0.146745H25.7788Z" fill="#EBEBEB"/>
<path fill-rule="evenodd" clip-rule="evenodd" d="M266.189 166.097H152.795C150.946 166.097 149.448 164.599 149.448 162.749V3.34712C149.448 1.49736 150.946 -6.10352e-05 152.795 -6.10352e-05H266.189C268.038 -6.10352e-05 269.536 1.49736 269.536 3.34712V162.749C269.536 164.599 268.038 166.097 266.189 166.097ZM152.795 0.146745C151.034 0.146745 149.595 1.58545 149.595 3.34712V162.749C149.595 164.511 151.034 165.95 152.795 165.95H266.189C267.95 165.95 269.389 164.511 269.389 162.749V3.34712C269.389 1.58545 267.95 0.146745 266.189 0.146745H152.795Z" fill="#EBEBEB"/>
<path d="M245.665 198.012H264.192V197.865H245.665V198.012Z" fill="#EBEBEB"/>
<path d="M177.312 196.427H196.926V196.28H177.312V196.427Z" fill="#EBEBEB"/>
<path d="M232.894 203.473H269.536V203.327H232.894V203.473Z" fill="#EBEBEB"/>
<path d="M30.7998 202.505H42.1039V202.358H30.7998V202.505Z" fill="#EBEBEB"/>
<path d="M47.3301 202.505H65.123V202.358H47.3301V202.505Z" fill="#EBEBEB"/>
<path d="M111.338 200.009H143.371V199.862H111.338V200.009Z" fill="#EBEBEB"/>
<path d="M268.039 117.621C262.079 115.126 252.214 117.533 244.051 127.428C240.264 132.008 236.623 138.732 235.654 145.603C235.713 137.763 235.801 129.336 235.859 121.38C237.122 116.183 238.296 113.804 240.087 110.193C246.077 98.1548 251.039 99.476 259.202 90.0511C272.737 74.3428 280.488 44.7466 267.012 56.5499C254.797 67.2374 248.896 77.9249 244.785 87.2324C239.236 99.7696 237.004 108.519 235.918 117.298C235.977 109.841 236.065 102.97 236.124 97.685C236.329 80.4206 236.799 74.8713 236.887 73.1683C237.093 69.0284 238.472 66.5914 238.854 66.0042C242.055 60.954 247.105 57.6656 252.037 51.9108C263.576 38.522 270.212 21.9329 264.663 20.4061C258.879 18.7913 251.245 26.1022 242.789 43.2492C237.944 53.0852 236.711 55.4048 235.713 74.6658C235.624 76.3394 235.272 82.652 235.096 91.4017C233.716 81.9767 231.132 72.6398 226.581 66.4152C217.832 54.4358 211.167 53.2908 206.322 54.4358C201.477 55.5809 203.503 68.1476 208.964 74.8713C217.215 85.0009 230.927 82.8282 235.008 96.305C234.802 108.167 234.656 123.229 234.567 137.235C233.187 129.982 231.719 123.963 228.548 118.297C222.617 107.785 215.336 103.176 210.344 108.138C207.232 111.221 210.844 119.882 217.362 123.435C223.968 127.046 229.4 132.038 231.514 135.033C231.984 135.708 233.628 138.409 234.538 139.936C234.45 157.053 234.479 172.145 234.626 177.283L235.507 177.342C235.448 176.021 235.478 167.301 235.566 155.791C237.004 141.433 247.163 140.641 253.652 137.91C265.221 133.036 274 120.117 268.039 117.621Z" fill="#E6E6E6"/>
<path d="M226.67 192.287H243.788C244.727 192.287 245.52 191.729 245.725 190.966L246.929 169.767H223.528L224.732 190.966C224.938 191.729 225.73 192.287 226.67 192.287Z" fill="#E6E6E6"/>
<path d="M223.968 176.99H246.488C247.046 176.99 247.487 176.256 247.545 175.316L248.015 168.152C248.074 167.066 247.604 166.097 246.958 166.097H223.498C222.853 166.097 222.383 167.066 222.441 168.152L222.911 175.316C222.97 176.256 223.41 176.99 223.968 176.99Z" fill="#F5F5F5"/>
<path d="M109.225 188.411H86.998V146.513H109.225V188.411Z" fill="#F0F0F0"/>
<path d="M200.832 188.411H91.2852V192.287H200.832V188.411Z" fill="#F0F0F0"/>
<path d="M109.225 188.411H205.118V146.513H109.225V188.411Z" fill="#FAFAFA"/>
<path d="M117.975 164.511H196.369V151.622H117.975V164.511Z" fill="#F0F0F0"/>
<path d="M117.975 181.071H196.369V168.181H117.975V181.071Z" fill="#F0F0F0"/>
<path d="M166.773 152.767H147.541C146.807 152.767 146.19 152.179 146.19 151.416V151.357C146.19 150.623 146.807 150.007 147.541 150.007H166.773C167.536 150.007 168.123 150.623 168.123 151.357V151.416C168.123 152.179 167.536 152.767 166.773 152.767Z" fill="#FAFAFA"/>
<path d="M166.773 169.326H147.541C146.807 169.326 146.19 168.739 146.19 167.976V167.917C146.19 167.183 146.807 166.566 147.541 166.566H166.773C167.536 166.566 168.123 167.183 168.123 167.917V167.976C168.123 168.739 167.536 169.326 166.773 169.326Z" fill="#FAFAFA"/>
<path d="M208.055 142.754H109.225V146.513H208.055V142.754Z" fill="#F0F0F0"/>
<path d="M83.915 142.755H109.224V146.513H83.915V142.755Z" fill="#E6E6E6"/>
<path d="M65.6817 159.461C63.1273 158.11 58.6937 158.815 54.7006 162.867C52.8508 164.775 51.0011 167.594 50.2964 170.589C50.6194 167.124 50.9717 163.395 51.324 159.901C52.0874 157.641 52.6747 156.642 53.6142 155.116C56.7265 150.007 58.8699 150.799 62.8043 146.924C69.4106 140.523 73.9616 127.722 67.5608 132.419C61.7473 136.677 58.7231 141.198 56.5504 145.133C53.6142 150.476 52.293 154.264 51.5002 158.081C51.7938 154.793 52.0874 151.768 52.3223 149.419C53.0857 141.815 53.4968 139.378 53.6142 138.615C53.8491 136.794 54.5538 135.796 54.7299 135.532C56.3448 133.418 58.6937 132.155 61.1013 129.806C66.7093 124.316 70.2621 117.24 67.8838 116.359C65.3881 115.419 61.7179 118.385 57.3431 125.637C54.818 129.777 54.2015 130.775 53.027 139.231C52.9096 139.995 52.5279 142.754 52.1168 146.63C51.8525 142.402 51.0598 138.174 49.2981 135.238C45.8922 129.63 42.9854 128.867 40.8127 129.19C38.6106 129.513 39.0217 135.15 41.1944 138.321C44.4535 143.107 50.59 142.666 51.8819 148.774C51.3534 154 50.7075 160.665 50.1496 166.86C49.7973 163.601 49.3862 160.87 48.2117 158.257C45.9803 153.383 42.9267 151.064 40.5485 153.06C39.051 154.323 40.3136 158.287 43.0735 160.107C45.8335 161.927 48.0649 164.335 48.8871 165.744C49.0632 166.067 49.6798 167.33 50.0321 168.035C49.3275 175.61 48.7696 182.275 48.6522 184.565L49.0339 184.594C49.0632 184.007 49.4156 180.19 49.8853 175.081C51.0598 168.798 55.5814 168.827 58.5469 167.858C63.8613 166.155 68.2068 160.782 65.6817 159.461Z" fill="#F0F0F0"/>
<path d="M26.3961 146.366C29.6845 144.898 35.2045 146.072 39.9316 151.475C42.1043 153.971 44.2184 157.67 44.8643 161.487C44.7175 157.112 44.5413 152.414 44.3945 147.981C43.6018 145.103 42.9265 143.782 41.8695 141.815C38.3461 135.179 35.5861 136.001 30.9177 130.863C23.137 122.319 18.3511 105.906 26.0437 112.307C33.0317 118.062 36.467 123.963 38.904 129.072C42.1924 135.972 43.5724 140.817 44.3064 145.72C44.1596 141.551 44.0128 137.734 43.8954 134.768C43.5137 125.167 43.1614 122.055 43.1026 121.115C42.9265 118.796 42.1043 117.474 41.8988 117.151C40.0197 114.392 37.1717 112.6 34.3236 109.488C27.7173 102.177 23.7536 93.0459 26.8071 92.1063C30.0369 91.108 34.3823 95.0718 39.3738 104.526C42.2218 109.929 42.9265 111.191 43.7779 121.937C43.8367 122.877 44.1303 126.371 44.3652 131.274C45.0111 125.989 46.303 120.734 48.74 117.181C53.4378 110.369 57.1373 109.635 59.8679 110.222C62.5985 110.78 61.6589 117.827 58.6935 121.644C54.2599 127.399 46.5673 126.4 44.512 133.975C44.7762 140.611 45.0992 148.979 45.3634 156.789C46.0094 152.737 46.7434 149.361 48.417 146.16C51.5587 140.2 55.5518 137.528 58.4292 140.229C60.2202 141.903 58.3411 146.777 54.7297 148.862C51.1183 150.946 48.1528 153.824 47.037 155.527C46.7728 155.908 45.892 157.435 45.3928 158.316C45.7158 167.858 45.9213 176.285 45.9213 179.133L45.4222 179.192C45.4515 178.458 45.3047 173.584 45.0698 167.183C44.0422 159.167 38.3755 158.903 34.7347 157.465C28.1871 154.91 23.1076 147.834 26.3961 146.366Z" fill="#E6E6E6"/>
<path d="M40.2844 192.287H55.4642C56.2863 192.287 56.991 191.788 57.1672 191.112L58.2535 172.292H37.4951L38.5815 191.112C38.7283 191.788 39.4623 192.287 40.2844 192.287Z" fill="#E6E6E6"/>
<path d="M37.8764 178.722H57.8714C58.3412 178.722 58.7522 178.076 58.811 177.254L59.222 170.883C59.2807 169.914 58.8403 169.062 58.2825 169.062H37.4653C36.9075 169.062 36.467 169.914 36.5258 170.883L36.9368 177.254C36.9956 178.076 37.4066 178.722 37.8764 178.722Z" fill="#F5F5F5"/>
<path d="M160.46 85.3532H35.3516V14.6219H160.46V85.3532Z" fill="#E6E6E6"/>
<path d="M164.365 85.3533H35.998V14.622H164.365V85.3533Z" fill="#F5F5F5"/>
<path d="M39.1396 79.7746V20.2006C39.1396 18.85 40.226 17.7636 41.5766 17.7636H158.787C160.137 17.7636 161.224 18.85 161.224 20.2006V79.7746C161.224 81.1546 160.137 82.241 158.787 82.241H41.5766C40.226 82.241 39.1396 81.1546 39.1396 79.7746Z" fill="white"/>
<path d="M260.669 212.164C260.669 215.835 209.698 218.8 146.806 218.8C83.9145 218.8 32.9434 215.835 32.9434 212.164C32.9434 208.494 83.9145 205.499 146.806 205.499C209.698 205.499 260.669 208.494 260.669 212.164Z" fill="#F5F5F5"/>
<path d="M236.006 151.181H221.912V150.594H236.006C239.294 150.594 242.436 148.685 244.08 145.69L244.579 145.984C242.876 149.126 239.5 151.181 236.006 151.181Z" fill="#EF6E0B"/>
<path d="M219.123 151.181H213.368V150.594H219.123V151.181Z" fill="#EF6E0B"/>
<path d="M236.006 149.126H71.1131C67.2374 149.126 64.36 145.955 64.6829 142.079L73.6088 39.9019C73.9317 36.0262 77.3964 32.8552 81.272 32.8552H246.165C250.041 32.8552 252.918 36.0262 252.595 39.9019L243.669 142.079C243.346 145.955 239.882 149.126 236.006 149.126Z" fill="#EF6E0B"/>
<path d="M232.571 146.982H71.7886C68.5002 146.982 66.0338 144.281 66.3274 140.993L74.4311 47.9175C74.5192 46.9486 75.3707 46.1852 76.3103 46.1852H245.637C246.606 46.1852 247.31 46.9486 247.222 47.9175L239.089 140.993C238.825 144.281 235.889 146.982 232.571 146.982Z" fill="white"/>
<path d="M92.2823 41.5168C87.4965 41.5168 83.9731 37.6411 84.3842 32.8552C84.7952 28.0693 89.0232 24.1936 93.8091 24.1936C98.5657 24.1936 102.118 28.0693 101.707 32.8552H98.184C98.4188 30.0365 96.3342 27.717 93.4862 27.717C90.6675 27.717 88.1424 30.0365 87.9075 32.8552C87.6433 35.7032 89.7573 37.9934 92.6053 37.9934L92.2823 41.5168Z" fill="#263238"/>
<path d="M127.134 41.5168C122.348 41.5168 118.825 37.6411 119.236 32.8552C119.647 28.0693 123.875 24.1936 128.661 24.1936C133.417 24.1936 136.97 28.0693 136.559 32.8552H133.036C133.27 30.0365 131.186 27.717 128.338 27.717C125.519 27.717 122.994 30.0365 122.759 32.8552C122.495 35.7032 124.609 37.9934 127.457 37.9934L127.134 41.5168Z" fill="#263238"/>
<path d="M161.986 41.5168C157.23 41.5168 153.677 37.6411 154.088 32.8552C154.499 28.0693 158.727 24.1936 163.513 24.1936C168.27 24.1936 171.822 28.0693 171.411 32.8552H167.888C168.123 30.0365 166.038 27.717 163.19 27.717C160.371 27.717 157.846 30.0365 157.611 32.8552C157.347 35.7032 159.461 37.9934 162.309 37.9934L161.986 41.5168Z" fill="#263238"/>
<path d="M196.838 41.5168C192.081 41.5168 188.529 37.6411 188.94 32.8552C189.351 28.0693 193.579 24.1936 198.365 24.1936C203.121 24.1936 206.674 28.0693 206.263 32.8552H202.739C202.974 30.0365 200.89 27.717 198.042 27.717C195.223 27.717 192.698 30.0365 192.463 32.8552C192.228 35.7032 194.313 37.9934 197.161 37.9934L196.838 41.5168Z" fill="#263238"/>
<path d="M231.689 41.5168C226.933 41.5168 223.38 37.6411 223.791 32.8552C224.202 28.0693 228.43 24.1936 233.216 24.1936C237.973 24.1936 241.525 28.0693 241.114 32.8552H237.591C237.826 30.0365 235.741 27.717 232.893 27.717C230.074 27.717 227.549 30.0365 227.315 32.8552C227.08 35.7032 229.164 37.9934 232.012 37.9934L231.689 41.5168Z" fill="#263238"/>
<path fill-rule="evenodd" clip-rule="evenodd" d="M232.16 142.754H73.1978C73.051 142.754 72.9336 142.637 72.9336 142.461L80.8611 51.6464C80.8905 51.4996 81.0373 51.3528 81.1841 51.3528H240.117C240.293 51.3528 240.41 51.4996 240.381 51.6464L232.483 142.461C232.453 142.637 232.307 142.754 232.16 142.754ZM73.5502 142.167H231.895L239.794 51.94H81.419L73.5502 142.167Z" fill="#E0E0E0"/>
<path d="M233.746 124.609H74.7838C74.637 124.609 74.5195 124.462 74.5195 124.315C74.5489 124.139 74.6957 124.022 74.8425 124.022H233.775C233.951 124.022 234.069 124.139 234.069 124.315C234.039 124.462 233.892 124.609 233.746 124.609Z" fill="#E0E0E0"/>
<path d="M235.331 106.435H76.3687C76.2219 106.435 76.1045 106.317 76.1045 106.141C76.1339 105.994 76.2807 105.847 76.4275 105.847H235.36C235.536 105.847 235.654 105.994 235.654 106.141C235.624 106.317 235.477 106.435 235.331 106.435Z" fill="#E0E0E0"/>
<path d="M236.917 88.26H77.9547C77.8079 88.26 77.6904 88.1425 77.6904 87.9663C77.7198 87.8195 77.8666 87.6727 78.0134 87.6727H236.946C237.122 87.6727 237.24 87.8195 237.21 87.9663C237.21 88.1425 237.063 88.26 236.917 88.26Z" fill="#E0E0E0"/>
<path d="M238.502 70.1146H79.5396C79.3928 70.1146 79.2754 69.9678 79.2754 69.821C79.3048 69.6448 79.4516 69.5273 79.5984 69.5273H238.531C238.707 69.5273 238.825 69.6448 238.795 69.821C238.795 69.9678 238.648 70.1146 238.502 70.1146Z" fill="#E0E0E0"/>
<path d="M212.282 142.754C212.135 142.754 211.988 142.637 212.017 142.461L219.945 51.6464C219.945 51.4996 220.092 51.3528 220.268 51.3528C220.415 51.3528 220.532 51.4996 220.532 51.6464L212.605 142.461C212.575 142.637 212.458 142.754 212.282 142.754Z" fill="#E0E0E0"/>
<path d="M192.405 142.754C192.258 142.754 192.141 142.637 192.141 142.461L200.068 51.6464C200.098 51.4996 200.215 51.3528 200.391 51.3528C200.538 51.3528 200.685 51.4996 200.655 51.6464L192.728 142.461C192.728 142.637 192.581 142.754 192.405 142.754Z" fill="#E0E0E0"/>
<path d="M172.557 142.754C172.381 142.754 172.263 142.637 172.293 142.461L180.191 51.6464C180.22 51.4996 180.367 51.3528 180.514 51.3528C180.69 51.3528 180.807 51.4996 180.778 51.6464L172.88 142.461C172.85 142.637 172.704 142.754 172.557 142.754Z" fill="#E0E0E0"/>
<path d="M152.679 142.754C152.532 142.754 152.415 142.637 152.415 142.461L160.343 51.6464C160.343 51.4996 160.489 51.3528 160.666 51.3528C160.812 51.3528 160.93 51.4996 160.93 51.6464L153.002 142.461C153.002 142.637 152.855 142.754 152.679 142.754Z" fill="#E0E0E0"/>
<path d="M132.801 142.754C132.655 142.754 132.537 142.637 132.537 142.461L140.465 51.6464C140.494 51.4996 140.611 51.3528 140.788 51.3528C140.964 51.3528 141.081 51.4996 141.052 51.6464L133.124 142.461C133.124 142.637 132.978 142.754 132.801 142.754Z" fill="#E0E0E0"/>
<path d="M112.953 142.754C112.777 142.754 112.66 142.637 112.689 142.461L120.587 51.6464C120.617 51.4996 120.763 51.3528 120.91 51.3528C121.086 51.3528 121.204 51.4996 121.174 51.6464L113.276 142.461C113.247 142.637 113.1 142.754 112.953 142.754Z" fill="#E0E0E0"/>
<path d="M93.0758 142.754C92.929 142.754 92.8115 142.637 92.8115 142.461L100.739 51.6464C100.739 51.4996 100.886 51.3528 101.062 51.3528C101.209 51.3528 101.326 51.4996 101.326 51.6464L93.3987 142.461C93.3987 142.637 93.2519 142.754 93.0758 142.754Z" fill="#E0E0E0"/>
<path d="M173.613 86.1752H161.487C160.459 86.1752 159.667 85.3238 159.784 84.2961L160.724 73.5205C160.812 72.4635 161.722 71.6414 162.749 71.6414H174.876C175.933 71.6414 176.696 72.4635 176.608 73.5205L175.668 84.2961C175.58 85.3238 174.67 86.1752 173.613 86.1752Z" fill="#EF6E0B"/>
<path opacity="0.6" d="M173.613 86.1752H161.487C160.459 86.1752 159.667 85.3238 159.784 84.2961L160.724 73.5205C160.812 72.4635 161.722 71.6414 162.749 71.6414H174.876C175.933 71.6414 176.696 72.4635 176.608 73.5205L175.668 84.2961C175.58 85.3238 174.67 86.1752 173.613 86.1752Z" fill="white"/>
<path d="M258.321 86.1752H245.549L246.811 71.6414H259.584L254.798 78.8936L258.321 86.1752Z" fill="white"/>
<path fill-rule="evenodd" clip-rule="evenodd" d="M258.79 86.4689H245.226L246.547 71.3478H260.112L255.12 78.8937L258.79 86.4689ZM245.872 85.8817H257.822L254.445 78.9231L259.055 71.9351H247.075L245.872 85.8817Z" fill="#EF6E0B"/>
<path d="M211.665 104.32H199.51C198.482 104.32 197.719 103.498 197.807 102.441L198.746 91.6657C198.834 90.6381 199.745 89.7866 200.802 89.7866H212.928C213.955 89.7866 214.719 90.6381 214.631 91.6657L213.691 102.441C213.603 103.498 212.693 104.32 211.665 104.32Z" fill="#EF6E0B"/>
<path opacity="0.4" d="M211.665 104.32H199.51C198.482 104.32 197.719 103.498 197.807 102.441L198.746 91.6657C198.834 90.6381 199.745 89.7866 200.802 89.7866H212.928C213.955 89.7866 214.719 90.6381 214.631 91.6657L213.691 102.441C213.603 103.498 212.693 104.32 211.665 104.32Z" fill="white"/>
<path d="M234.919 68.0006H202.681C201.653 68.0006 200.89 67.1491 200.978 66.1214L201.917 55.3459C202.005 54.3182 202.915 53.4667 203.943 53.4667H236.182C237.239 53.4667 238.002 54.3182 237.914 55.3459L236.975 66.1214C236.886 67.1491 235.947 68.0006 234.919 68.0006Z" fill="#EF6E0B"/>
<path d="M106.346 83.7089C101.472 83.7089 97.3911 81.9765 94.4844 78.6587C90.7555 74.4013 90.1976 69.087 93.0163 64.8296C97.1856 58.5169 108.079 55.1403 115.243 56.0799C115.39 56.1093 115.507 56.2561 115.478 56.4029C115.419 56.5791 115.272 56.6965 115.125 56.6671C108.137 55.7569 97.5379 59.016 93.5155 65.1232C90.3151 69.9384 92.1648 75.0473 94.9542 78.2477C98.8298 82.7106 104.115 83.3272 107.873 83.0629C115.037 82.5638 122.877 78.4826 127.398 72.8746C128.661 71.3184 130.599 68.3236 129.424 65.7985C127.663 62.099 121.79 62.3632 116.887 62.9798C116.74 63.0092 116.593 62.8917 116.564 62.7449C116.564 62.5688 116.681 62.4219 116.858 62.3926C120.146 61.9815 127.809 60.9832 129.953 65.5342C131.274 68.3236 129.189 71.5533 127.839 73.2269C123.229 78.9523 115.184 83.151 107.873 83.6501C107.364 83.6893 106.855 83.7089 106.346 83.7089Z" fill="#EF6E0B"/>
<path d="M204.354 101.091C204.335 101.091 204.315 101.091 204.295 101.091C204.09 101.061 203.943 100.973 203.855 100.797C202.974 99.0061 202.211 97.8316 201.389 97.0095C201.183 96.804 201.183 96.4223 201.447 96.1874C201.682 95.9525 202.035 95.9231 202.27 96.158C203.062 96.9214 203.796 97.9784 204.56 99.5052C206.439 97.538 208.641 95.6295 211.107 93.8091C211.372 93.6036 211.753 93.6623 211.929 93.8972C212.106 94.1615 212.017 94.5138 211.753 94.7193C209.081 96.7159 206.762 98.7712 204.824 100.885C204.677 101.003 204.53 101.091 204.354 101.091Z" fill="white"/>
<path fill-rule="evenodd" clip-rule="evenodd" d="M182.715 139.994C179.103 139.994 176.402 137.029 176.696 133.388C177.019 129.747 180.248 126.811 183.889 126.811C187.501 126.811 190.202 129.747 189.908 133.388C189.585 137.029 186.356 139.994 182.715 139.994ZM183.772 127.986C180.777 127.986 178.134 130.393 177.87 133.388C177.606 136.383 179.837 138.82 182.832 138.82C185.827 138.82 188.47 136.383 188.734 133.388C188.969 130.393 186.767 127.986 183.772 127.986Z" fill="#EF6E0B"/>
<path fill-rule="evenodd" clip-rule="evenodd" d="M126.254 103.586C122.642 103.586 119.941 100.621 120.235 96.9802C120.558 93.3688 123.787 90.4033 127.428 90.4033C131.04 90.4033 133.741 93.3688 133.447 96.9802C133.124 100.621 129.895 103.586 126.254 103.586ZM127.311 91.5777C124.316 91.5777 121.673 94.0147 121.409 96.9802C121.174 99.975 123.376 102.412 126.371 102.412C129.366 102.412 132.009 99.975 132.273 96.9802C132.508 94.0147 130.306 91.5777 127.311 91.5777Z" fill="#EF6E0B"/>
<path opacity="0.1" d="M137.734 119.383H76.7212C74.2842 119.383 72.4931 117.386 72.6987 114.979C72.9042 112.542 75.0476 110.575 77.4846 110.575H138.497C140.905 110.575 142.725 112.542 142.52 114.979C142.314 117.386 140.142 119.383 137.734 119.383Z" fill="black"/>
<path d="M56.6089 105.378L58.8991 106.376L55.8162 110.134C55.8162 110.134 54.9647 108.695 54.583 107.169C54.4068 106.523 54.7885 105.877 55.4345 105.701L56.6089 105.378Z" fill="#FF8B7B"/>
<path d="M59.9563 110.398L58.5764 111.925C58.1359 112.424 57.3432 112.366 56.9615 111.808L55.8164 110.134L58.8993 106.376L60.1325 109.312C60.2793 109.694 60.2206 110.105 59.9563 110.398Z" fill="#FF8B7B"/>
<path d="M140.728 117.886L61.3063 111.602C58.8986 111.426 57.2544 109.312 57.6361 106.904C58.0472 104.497 60.3373 102.706 62.7743 102.882L142.197 109.165C144.604 109.371 146.248 111.485 145.837 113.892C145.426 116.271 143.136 118.091 140.728 117.886Z" fill="#EF6E0B"/>
<path d="M84.6779 80.8317C85.6761 83.0631 86.7038 85.3827 87.7314 87.6141C88.7591 89.8162 89.8161 92.1064 90.9612 94.0442C91.2254 94.514 91.519 94.9544 91.7539 95.248C92.1063 95.6591 92.488 96.0702 92.899 96.5106C93.7211 97.3914 94.602 98.2723 95.4534 99.1531C97.2151 100.915 99.0062 102.706 100.738 104.526L98.9768 106.816C96.716 105.524 94.602 104.145 92.488 102.618C91.4603 101.854 90.4327 101.062 89.405 100.21C88.9059 99.799 88.4067 99.3293 87.8782 98.8301C87.2617 98.1842 86.8212 97.5969 86.4102 97.0097C84.8247 94.7195 83.6209 92.4294 82.4464 90.1392C81.3013 87.8196 80.2443 85.5001 79.2754 83.0925L84.6779 80.8317Z" fill="#FF8B7B"/>
<path d="M65.2702 80.5087C63.9196 82.6814 62.569 84.8835 61.189 87.0269L57.1078 93.5451L56.6087 94.3672L56.5499 94.4553L56.5206 94.514C56.5206 94.5336 56.5108 94.5433 56.4912 94.5433C56.4618 94.5727 56.4325 94.6608 56.4031 94.6901C56.315 94.9544 56.1976 95.4242 56.1682 95.9233C56.0802 96.9216 56.1389 98.1254 56.2563 99.3292C56.5206 101.707 56.9904 104.262 57.4895 106.699L54.7883 107.697C53.5551 105.29 52.5568 102.823 51.8521 100.151C51.4998 98.8007 51.2062 97.4207 51.1475 95.8352C51.1475 95.0425 51.1475 94.191 51.4117 93.2221C51.4998 92.9578 51.5585 92.7229 51.676 92.4587L51.8521 92.0476L51.9109 91.9008L51.9696 91.7834L52.4394 90.9025C53.6432 88.5536 54.9057 86.2635 56.1976 84.032C57.5189 81.7712 58.8695 79.5397 60.3082 77.367L65.2702 80.5087Z" fill="#FF8B7B"/>
<path d="M80.8025 64.2132C80.6851 64.5068 80.7731 64.8004 80.9493 64.8885C81.1255 64.9766 81.3897 64.8004 81.4778 64.5068C81.5953 64.2132 81.5365 63.9196 81.331 63.8315C81.1548 63.7434 80.9199 63.9196 80.8025 64.2132Z" fill="#263238"/>
<path d="M80.7435 64.8004C80.7435 64.8004 80.7728 66.7676 81.1839 67.8833C80.4792 68.1475 79.7158 67.5603 79.7158 67.5603L80.7435 64.8004Z" fill="#FF5652"/>
<path d="M81.889 62.5101C81.8498 62.4906 81.8107 62.471 81.7715 62.4514C81.7715 62.4221 81.2724 61.9816 80.509 62.1872C80.3915 62.1872 80.3034 62.1284 80.2741 62.0404C80.2447 61.9523 80.3034 61.8348 80.4209 61.8348C81.3898 61.5706 82.0064 62.1578 82.0358 62.1872C82.0945 62.2459 82.0945 62.3633 82.0358 62.4514C82.0064 62.4808 81.9477 62.5101 81.889 62.5101Z" fill="#263238"/>
<path d="M70.0852 64.8004C69.7329 67.942 70.3201 71.9351 68.1768 73.5206C68.1768 73.5206 68.6172 76.4861 73.8141 77.2495C79.5396 78.101 76.8677 74.8125 76.8677 74.8125C73.8141 73.6087 74.1665 71.2892 74.9298 69.1752L70.0852 64.8004Z" fill="#FF8B7B"/>
<path d="M66.3275 75.5172C66.2394 74.0491 66.3275 71.8471 67.2377 71.5241C68.2066 71.2011 74.0495 71.6415 76.9856 74.3134C75.8699 76.3687 75.9873 78.5708 75.9873 78.5708L66.3275 75.5172Z" fill="#263238"/>
<path fill-rule="evenodd" clip-rule="evenodd" d="M48.4761 206.468C47.9769 206.468 47.2429 206.204 46.9786 206.057C46.9395 206.038 46.9199 206.009 46.9199 205.969C46.9199 205.93 46.9395 205.901 46.9786 205.881C47.0374 205.852 48.2118 205.412 48.7403 205.676C48.8578 205.734 48.9361 205.823 48.9752 205.94C49.0339 206.175 48.9458 206.322 48.8871 206.38C48.799 206.439 48.6522 206.468 48.4761 206.468ZM47.2429 205.969C47.8008 206.204 48.5642 206.41 48.7697 206.234C48.7697 206.204 48.8578 206.175 48.799 205.999C48.7795 205.92 48.7305 205.862 48.6522 205.823C48.3293 205.676 47.654 205.852 47.2429 205.969Z" fill="#EF6E0B"/>
<path fill-rule="evenodd" clip-rule="evenodd" d="M47.008 206.057C46.9884 206.057 46.9689 206.048 46.9493 206.028C46.9297 206.008 46.9199 205.979 46.9199 205.94C46.9493 205.881 47.2429 204.824 47.7714 204.56C47.9084 204.501 48.0454 204.501 48.1825 204.56C48.388 204.619 48.4173 204.795 48.4173 204.854C48.388 205.294 47.4484 205.94 47.0374 206.057C47.0374 206.057 47.0276 206.057 47.008 206.057ZM48.0063 204.707C47.9476 204.707 47.8986 204.717 47.8595 204.736C47.5365 204.883 47.2723 205.47 47.1548 205.822C47.5952 205.617 48.2118 205.118 48.2118 204.854C48.2118 204.824 48.2412 204.765 48.1237 204.736C48.0846 204.717 48.0454 204.707 48.0063 204.707Z" fill="#EF6E0B"/>
<path fill-rule="evenodd" clip-rule="evenodd" d="M78.0135 208.201C77.5437 208.201 77.074 208.142 76.8097 208.083C76.7803 208.083 76.751 208.054 76.751 207.995C76.751 207.966 76.751 207.936 76.7803 207.907C76.9859 207.79 78.6888 206.821 79.0999 207.496C79.2173 207.672 79.188 207.819 79.1292 207.907C78.9824 208.113 78.5127 208.201 78.0135 208.201ZM77.1033 207.936C77.8373 208.054 78.8063 208.025 78.9824 207.79C79.0118 207.76 79.0412 207.731 78.9531 207.584C78.7182 207.202 77.6905 207.643 77.1033 207.936Z" fill="#EF6E0B"/>
<path fill-rule="evenodd" clip-rule="evenodd" d="M76.8391 208.083C76.8195 208.083 76.7999 208.074 76.7803 208.054C76.7608 208.035 76.751 208.015 76.751 207.995C76.751 207.937 76.8097 206.909 77.2795 206.498C77.4361 206.381 77.6025 206.322 77.7786 206.322C78.0429 206.351 78.131 206.498 78.131 206.586C78.219 207.056 77.3382 207.849 76.8684 208.083C76.8684 208.083 76.8586 208.083 76.8391 208.083ZM77.7199 206.527C77.6025 206.527 77.4948 206.566 77.3969 206.645C77.1033 206.909 76.9859 207.526 76.9565 207.819C77.3969 207.555 78.0135 206.909 77.9548 206.615C77.9548 206.615 77.9548 206.527 77.7786 206.527C77.759 206.527 77.7395 206.527 77.7199 206.527Z" fill="#EF6E0B"/>
<path d="M72.5811 207.995H76.4567L76.4861 199.04H72.6104L72.5811 207.995Z" fill="#FF8B7B"/>
<path d="M42.6328 205.206L46.2736 206.057L49.2978 197.19L45.6864 196.368L42.6328 205.206Z" fill="#FF8B7B"/>
<path d="M46.8317 205.47L42.6037 204.413C42.4569 204.354 42.3101 204.443 42.2513 204.589L40.7833 207.76C40.6365 208.083 40.842 208.494 41.1943 208.553C42.6624 208.905 43.3964 208.994 45.2462 209.463C46.3913 209.757 48.7108 210.462 50.2963 210.873C51.8231 211.254 52.4103 209.728 51.7938 209.434C49.0338 208.054 48.1236 206.909 47.3896 205.852C47.2428 205.646 47.0372 205.5 46.8317 205.47Z" fill="#263238"/>
<path d="M76.3987 207.555H72.2001C72.0239 207.555 71.9065 207.643 71.8771 207.819L71.2312 211.254C71.1724 211.607 71.466 211.93 71.8184 211.93C73.3452 211.9 75.5473 211.812 77.4557 211.812C79.6872 211.812 79.7459 211.93 82.3591 211.93C83.9446 211.93 84.3263 210.344 83.651 210.197C80.5974 209.522 80.0395 209.463 77.3383 207.848C77.074 207.672 76.7511 207.555 76.3987 207.555Z" fill="#263238"/>
<path d="M63.6552 73.2564C59.9557 73.55 54.7881 82.7695 54.7881 82.7695L61.4531 88.7885C61.4531 88.7885 64.5947 85.3532 67.0905 81.3895C69.7036 77.1908 67.4134 72.9628 63.6552 73.2564Z" fill="#EF6E0B"/>
<path opacity="0.6" d="M63.6552 73.2564C59.9557 73.55 54.7881 82.7695 54.7881 82.7695L61.4531 88.7885C61.4531 88.7885 64.5947 85.3532 67.0905 81.3895C69.7036 77.1908 67.4134 72.9628 63.6552 73.2564Z" fill="white"/>
<path opacity="0.2" d="M65.535 79.892L61.1309 88.5242L61.4245 88.7885C61.4245 88.7885 63.1274 86.9387 65.0359 84.3843L65.535 79.892Z" fill="black"/>
<path d="M82.0649 93.9267C81.3895 98.1841 80.3619 103.469 78.747 109.958L58.2822 106.904C58.4584 103.998 61.6 90.9025 60.9835 76.8384C60.8954 74.8712 62.4809 73.227 64.4775 73.2564C65.4757 73.2857 66.5915 73.3445 67.6778 73.4325C70.3203 73.6968 74.108 74.1959 76.3688 74.7244C79.393 75.4585 82.1529 76.6916 82.1529 76.6916C82.1529 76.6916 83.621 78.835 82.8282 87.7902C82.6521 89.5812 82.4172 91.6072 82.0649 93.9267Z" fill="#EF6E0B"/>
<path opacity="0.6" d="M82.0649 93.9267C81.3895 98.1841 80.3619 103.469 78.747 109.958L58.2822 106.904C58.4584 103.998 61.6 90.9025 60.9835 76.8384C60.8954 74.8712 62.4809 73.227 64.4775 73.2564C65.4757 73.2857 66.5915 73.3445 67.6778 73.4325C70.3203 73.6968 74.108 74.1959 76.3688 74.7244C79.393 75.4585 82.1529 76.6916 82.1529 76.6916C82.1529 76.6916 83.621 78.835 82.8282 87.7902C82.6521 89.5812 82.4172 91.6072 82.0649 93.9267Z" fill="white"/>
<path opacity="0.2" d="M82.0652 93.9267C80.3916 92.8697 78.8354 88.0545 79.5401 85.5001L82.8286 87.7902C82.6524 89.5813 82.4175 91.6072 82.0652 93.9267Z" fill="black"/>
<path d="M77.4557 79.3048C76.3987 82.8282 82.7995 93.1927 82.7995 93.1927L90.4628 89.1996C90.4628 89.1996 88.7305 83.9733 85.9705 79.9508C82.8876 75.4585 78.6596 75.3117 77.4557 79.3048Z" fill="#EF6E0B"/>
<path opacity="0.6" d="M77.4557 79.3048C76.3987 82.8282 82.7995 93.1927 82.7995 93.1927L90.4628 89.1996C90.4628 89.1996 88.7305 83.9733 85.9705 79.9508C82.8876 75.4585 78.6596 75.3117 77.4557 79.3048Z" fill="white"/>
<path opacity="0.2" d="M76.486 199.04L76.4567 203.65H72.6104V199.04H76.486Z" fill="black"/>
<path opacity="0.2" d="M45.6861 196.368L49.2975 197.19L47.7414 201.771L44.1006 200.919L45.6861 196.368Z" fill="black"/>
<path d="M71.4361 59.6034C70.3204 63.2735 69.4689 65.3582 70.5846 67.942C72.2288 71.847 77.1909 72.0232 79.393 68.7934C81.3308 65.8867 82.8576 60.3374 79.9215 57.46C77.0441 54.6413 72.5518 55.9038 71.4361 59.6034Z" fill="#FF8B7B"/>
<path d="M77.338 63.6553C76.8976 65.5344 75.7525 68.9403 72.9338 69.322C71.3777 69.5275 68.7645 69.0871 68.5003 67.7952C68.2654 66.5326 69.2343 66.7088 68.9994 65.6812C68.7645 64.6242 67.4726 60.9834 68.9407 58.3996C66.8854 58.5757 68.2947 55.5809 71.9355 54.8762C70.8198 54.4358 71.3483 51.3529 76.9857 52.8209C79.5988 53.4962 81.566 54.5239 81.8009 55.9332C84.1792 56.9315 84.8251 59.486 83.3277 60.4255C81.889 61.3063 79.7163 60.3081 79.7163 60.3081C79.7163 60.3081 80.7145 65.7105 77.338 63.6553Z" fill="#263238"/>
<path d="M75.8116 63.3617C75.7529 64.2425 76.0758 65.1233 76.5456 65.7106C77.2503 66.5914 77.4852 66.6207 77.7788 65.6225C78.043 64.7123 78.6596 62.7157 77.7494 62.1872C76.8098 61.6587 75.8997 62.334 75.8116 63.3617Z" fill="#FF8B7B"/>
<path d="M71.4945 108.872C71.4945 108.872 68.2941 139.202 66.3269 150.271C64.1542 162.397 49.7084 201.389 49.7084 201.389L42.8379 199.657C46.3906 186.15 51.5875 160.988 54.7586 151.357C57.1662 136.735 54.7879 118.326 58.2819 106.904L71.4945 108.872Z" fill="#263238"/>
<path d="M51.3537 199.099C51.383 199.099 50.0912 201.594 50.0912 201.594L42.3691 199.627L42.9857 197.308L51.3537 199.099Z" fill="#EF6E0B"/>
<path opacity="0.2" d="M69.5277 120.704C69.7625 120.645 69.9779 120.636 70.1736 120.675C69.1753 129.747 67.7366 141.844 66.5915 148.774C65.6226 138.703 64.7418 121.644 69.5277 120.704Z" fill="black"/>
<path d="M78.7473 109.958C78.7473 109.958 80.3328 142.373 80.5677 154.147C80.8026 166.42 77.8664 202.769 77.8664 202.769H71.3189C71.3189 202.769 68.8525 169.062 70.1738 152.62C68.6176 140.083 65.2998 107.961 65.2998 107.961L78.7473 109.958Z" fill="#263238"/>
<path d="M102.383 104.145C101.443 104.056 100.181 104.203 99.2413 104.585L98.7715 105.378C98.3604 106.053 98.6834 106.904 99.4468 107.139L101.737 107.873L102.853 108.226C103.352 108.373 103.88 108.196 104.174 107.785L104.644 107.11C104.996 106.611 104.908 105.936 104.468 105.554L103.44 104.614C103.146 104.35 102.765 104.174 102.383 104.145Z" fill="#FF8B7B"/>
<path d="M79.0412 200.156C79.0706 200.156 78.7769 202.857 78.7769 202.857H70.7907L70.4971 200.449L79.0412 200.156Z" fill="#EF6E0B"/>
</svg>
