<svg width="253" height="105" viewBox="0 0 253 105" fill="none" xmlns="http://www.w3.org/2000/svg">
<path d="M0.294998 72.0553C0.294998 72.0553 0.370987 73.3094 0.561005 75.1336C1.09306 79.352 2.38521 86.5728 5.2735 87.2569C5.2735 87.2569 11.2401 88.549 12.3802 87.8649C12.3802 87.8649 11.9242 67.6848 28.4179 62.5163C38.2229 59.476 57.2248 59.362 59.9991 88.663C59.9991 88.663 171.692 85.9647 179.255 87.1808C179.255 87.1808 182.181 86.6488 181.573 82.0883C181.573 82.0883 181.535 81.1002 181.611 79.5041C181.991 73.3854 184.614 58.2219 200.955 54.7635C200.955 54.7635 224.328 49.405 229.306 75.6657C229.534 76.9198 229.724 78.2119 229.838 79.5801C229.99 80.9482 230.104 82.3924 230.18 83.9125C230.18 83.9125 239.149 86.0027 242.836 82.9624C242.836 82.9624 252.109 83.0004 252.261 82.5064L252.641 79.9221C252.641 79.9221 252.565 79.8081 252.413 79.6181C251.577 78.63 249.106 75.3236 251.234 75.0576C251.234 75.0576 252.983 67.4188 251.843 59.21C250.588 50.2411 245.952 40.7021 232.043 39.6C232.043 39.6 198.485 32.7973 189.326 28.0848C172.604 19.534 144.292 1.67214 102.791 3.99038C84.8916 4.97848 55.3246 4.59845 31.3441 11.0591C31.3441 11.0591 30.2421 12.5033 29.748 14.4795C29.748 14.4795 13.1783 32.0372 12.1902 32.9113C11.3922 33.6334 10.6321 34.3935 9.91 35.1155C8.73187 36.2557 7.70573 37.3958 6.83165 38.6119C4.05736 42.4503 3.0313 46.8967 5.91959 53.5854C5.91959 53.5854 -1.56718 66.0127 0.294998 72.0553Z" fill="#EF6E0B"/>
<path d="M224.445 84.9775L230.183 83.9134C230.183 83.9134 232.349 54.6124 206.051 54.1184C196.018 53.9663 179.144 60.655 181.5 85.7756C181.5 85.7756 183.704 90.032 188.303 90.7161C188.303 90.7161 175.268 68.1798 200.388 59.5149C209.243 56.4746 226.687 63.0493 224.445 84.9775Z" fill="#2A2B2A"/>
<path d="M56.4685 88.3598L60.1549 88.5498C60.1549 88.5498 62.1311 62.3652 37.0105 60.427C27.0155 59.6669 10.4078 68.0278 12.384 87.8658C12.384 87.8658 12.7641 85.8516 15.7664 86.8017C15.7664 86.8017 15.6144 72.9302 30.4739 66.8876C39.1768 63.3913 56.0885 66.7736 56.4685 88.3598Z" fill="#2A2B2A"/>
<path d="M184.083 79.6183C184.577 90.7914 194.344 99.4183 205.897 98.8863C217.413 98.3542 226.343 88.8532 225.811 77.6801C225.317 66.507 215.55 57.8801 203.997 58.4121C192.482 58.9822 183.551 68.4452 184.083 79.6183Z" fill="#3D4039"/>
<path d="M190.582 79.7323C190.962 87.9792 198.031 94.3258 206.354 93.9457C214.676 93.5277 221.137 86.573 220.719 78.3642C220.339 70.1173 213.308 63.7707 204.985 64.1507C196.663 64.5688 190.202 71.5235 190.582 79.7323Z" fill="#D6E3DD"/>
<path d="M195.065 79.1244C195.331 84.901 200.195 89.3854 205.934 89.1194C211.634 88.8534 216.081 83.9509 215.815 78.1743C215.511 72.3977 210.684 67.9512 204.946 68.2173C199.207 68.4833 194.799 73.3478 195.065 79.1244Z" fill="#3D4039"/>
<path d="M192.709 81.6325L192.291 77.6801L200.424 77.2621C200.474 77.1101 200.525 76.958 200.576 76.806L194.191 72.0555L196.661 68.9772L202.704 74.3358C202.856 74.2598 202.995 74.1837 203.122 74.1077L201.868 66.0889L205.82 65.6709L206.352 73.6897C206.58 73.715 206.783 73.7657 206.96 73.8417L211.939 67.3811L214.979 69.9653L209.659 75.7039C209.912 76.0586 210.115 76.4386 210.267 76.844L218.285 76.122L218.438 80.1124H210.381C210.355 80.239 210.317 80.353 210.267 80.4544L216.613 85.7369L213.915 88.6632L208.138 82.9246C207.91 83.0513 207.682 83.1653 207.454 83.2667L209.127 91.2095L205.212 91.9316L204.11 83.5327C203.958 83.482 203.819 83.4314 203.692 83.3807L203.768 83.4567L199.094 90.2594L195.863 87.9032L201.146 81.5185C200.918 81.2145 200.74 80.8851 200.614 80.5304L192.709 81.6325Z" fill="#D6E3DD"/>
<path d="M206.39 75.9698C206.39 76.6159 206.923 77.0719 207.569 77.0339C208.177 77.0339 208.671 76.5019 208.633 75.8558C208.595 75.2478 208.101 74.7537 207.455 74.7917C206.847 74.8297 206.352 75.3618 206.39 75.9698Z" fill="#C6C6C6"/>
<path d="M206.39 75.9698C206.39 76.6159 206.923 77.0719 207.569 77.0339C208.177 77.0339 208.671 76.5019 208.633 75.8558C208.595 75.2478 208.101 74.7537 207.455 74.7917C206.847 74.8297 206.352 75.3618 206.39 75.9698Z" stroke="#3D4039" stroke-width="0.4" stroke-miterlimit="10"/>
<path d="M201.526 76.7298C201.564 77.3759 202.096 77.832 202.704 77.832C203.35 77.794 203.845 77.2619 203.807 76.6538C203.769 76.0078 203.236 75.5137 202.628 75.5517C201.982 75.5897 201.488 76.1218 201.526 76.7298Z" fill="#C6C6C6"/>
<path d="M201.526 76.7298C201.564 77.3759 202.096 77.832 202.704 77.832C203.35 77.794 203.845 77.2619 203.807 76.6538C203.769 76.0078 203.236 75.5137 202.628 75.5517C201.982 75.5897 201.488 76.1218 201.526 76.7298Z" stroke="#3D4039" stroke-width="0.4" stroke-miterlimit="10"/>
<path d="M202.402 81.5184C202.44 82.1645 202.972 82.6585 203.58 82.6205C204.226 82.5825 204.682 82.0505 204.644 81.4424C204.644 80.7964 204.112 80.3023 203.466 80.3403C202.858 80.3783 202.364 80.9104 202.402 81.5184Z" fill="#C6C6C6"/>
<path d="M202.402 81.5184C202.44 82.1645 202.972 82.6585 203.58 82.6205C204.226 82.5825 204.682 82.0505 204.644 81.4424C204.644 80.7964 204.112 80.3023 203.466 80.3403C202.858 80.3783 202.364 80.9104 202.402 81.5184Z" stroke="#3D4039" stroke-width="0.4" stroke-miterlimit="10"/>
<path d="M207.303 80.7584C207.303 81.4045 207.835 81.8605 208.481 81.8225C209.089 81.8225 209.583 81.2905 209.545 80.6444C209.507 80.0363 209.013 79.5423 208.367 79.5803C207.759 79.6183 207.265 80.1504 207.303 80.7584Z" fill="#C6C6C6"/>
<path d="M207.303 80.7584C207.303 81.4045 207.835 81.8605 208.481 81.8225C209.089 81.8225 209.583 81.2905 209.545 80.6444C209.507 80.0363 209.013 79.5423 208.367 79.5803C207.759 79.6183 207.265 80.1504 207.303 80.7584Z" stroke="#3D4039" stroke-width="0.4" stroke-miterlimit="10"/>
<path d="M15.0041 85.5088C15.5362 96.6819 25.3032 105.309 36.8563 104.777C48.3715 104.245 57.3024 94.7437 56.7704 83.5706C56.2763 72.3975 46.4713 63.7706 34.9562 64.3026C23.441 64.8347 14.5101 74.3357 15.0041 85.5088Z" fill="#3D4039"/>
<path d="M21.5383 85.6231C21.9184 93.8699 28.9871 100.217 37.3099 99.8365C45.6328 99.4185 52.0554 92.4637 51.6754 84.2549C51.2953 76.0081 44.2646 69.6614 35.9418 70.0415C27.6189 70.4595 21.1583 77.4142 21.5383 85.6231Z" fill="#D6E3DD"/>
<path d="M26.0232 85.0149C26.2892 90.7915 31.1537 95.2759 36.8923 95.0099C42.5929 94.7439 47.0393 89.8414 46.7353 84.0648C46.4693 78.2882 41.6428 73.8417 35.9042 74.1078C30.1656 74.3738 25.7572 79.2383 26.0232 85.0149Z" fill="#3D4039"/>
<path d="M23.6679 87.5233L23.2498 83.5709L31.3827 83.1528C31.4333 83.0008 31.484 82.8488 31.5347 82.6968L25.15 77.9463L27.6203 74.868L33.6629 80.2265C33.8149 80.1505 33.9543 80.0745 34.0809 79.9985L32.8268 71.9797L36.7792 71.5616L37.3113 79.5805C37.5393 79.6058 37.742 79.6565 37.9193 79.7325L42.8978 73.2718L45.9381 75.8561L40.6176 81.5947C40.871 81.9494 41.0736 82.3294 41.2257 82.7348L49.2445 82.0127L49.3965 86.0031H41.3397C41.3143 86.1298 41.2763 86.2438 41.2257 86.3451L47.5723 91.6277L44.874 94.554L39.0974 88.8154C38.8694 88.9421 38.6414 89.0561 38.4134 89.1574L40.0855 97.1002L36.1711 97.8223L35.069 89.4235C34.917 89.3728 34.7777 89.3221 34.651 89.2714L34.727 89.3474L30.0525 96.1501L26.8222 93.7559L32.1047 87.4092C31.8767 87.1052 31.6994 86.7758 31.5727 86.4211L23.6679 87.5233Z" fill="#D6E3DD"/>
<path d="M37.3475 81.8608C37.3475 82.5069 37.8796 82.9629 38.5256 82.9249C39.1337 82.9249 39.6277 82.3929 39.5897 81.7468C39.5517 81.1388 39.0197 80.6447 38.4116 80.6827C37.8036 80.7207 37.3095 81.2528 37.3475 81.8608Z" fill="#C6C6C6"/>
<path d="M37.3475 81.8608C37.3475 82.5069 37.8796 82.9629 38.5256 82.9249C39.1337 82.9249 39.6277 82.3929 39.5897 81.7468C39.5517 81.1388 39.0197 80.6447 38.4116 80.6827C37.8036 80.7207 37.3095 81.2528 37.3475 81.8608Z" stroke="#3D4039" stroke-width="0.4" stroke-miterlimit="10"/>
<path d="M32.4834 82.6211C32.5214 83.2671 33.0535 83.7232 33.6616 83.7232C34.3076 83.6852 34.7637 83.1531 34.7637 82.5071C34.7257 81.899 34.1936 81.405 33.5856 81.443C32.9395 81.481 32.4454 82.013 32.4834 82.6211Z" fill="#C6C6C6"/>
<path d="M32.4834 82.6211C32.5214 83.2671 33.0535 83.7232 33.6616 83.7232C34.3076 83.6852 34.7637 83.1531 34.7637 82.5071C34.7257 81.899 34.1936 81.405 33.5856 81.443C32.9395 81.481 32.4454 82.013 32.4834 82.6211Z" stroke="#3D4039" stroke-width="0.4" stroke-miterlimit="10"/>
<path d="M33.3592 87.4092C33.3972 88.0552 33.9293 88.5113 34.5374 88.5113C35.1454 88.4733 35.6395 87.9412 35.6015 87.3332C35.6015 86.6871 35.0694 86.1931 34.4233 86.2311C33.8153 86.2691 33.3212 86.8011 33.3592 87.4092Z" fill="#C6C6C6"/>
<path d="M33.3592 87.4092C33.3972 88.0552 33.9293 88.5113 34.5374 88.5113C35.1454 88.4733 35.6395 87.9412 35.6015 87.3332C35.6015 86.6871 35.0694 86.1931 34.4233 86.2311C33.8153 86.2691 33.3212 86.8011 33.3592 87.4092Z" stroke="#3D4039" stroke-width="0.4" stroke-miterlimit="10"/>
<path d="M38.2596 86.6496C38.2596 87.2957 38.7917 87.7518 39.4377 87.7138C40.0458 87.7138 40.5399 87.1817 40.5019 86.5356C40.4638 85.9276 39.9318 85.4335 39.3237 85.4715C38.7157 85.5095 38.2216 86.0416 38.2596 86.6496Z" fill="#C6C6C6"/>
<path d="M38.2596 86.6496C38.2596 87.2957 38.7917 87.7518 39.4377 87.7138C40.0458 87.7138 40.5399 87.1817 40.5019 86.5356C40.4638 85.9276 39.9318 85.4335 39.3237 85.4715C38.7157 85.5095 38.2216 86.0416 38.2596 86.6496Z" stroke="#3D4039" stroke-width="0.4" stroke-miterlimit="10"/>
<path d="M9.91119 35.1157C9.91119 35.1157 9.92386 35.1157 9.94919 35.1157C12.4574 35.3817 21.5404 33.1395 21.5404 33.1395C26.6329 32.9874 32.7515 32.9495 39.5542 32.9875C77.5961 33.3295 138.364 36.6358 177.774 38.9921C200.577 40.3602 216.234 41.4243 216.234 41.4243C227.635 49.5951 251.768 59.2481 251.768 59.2481L251.844 59.2101C250.59 50.2412 245.953 40.7022 232.044 39.6001C232.044 39.6001 226.191 38.384 218.742 36.6738C208.291 34.2796 194.686 30.8212 189.327 28.085C172.606 19.5341 144.293 1.67226 102.793 3.9905C84.8928 4.9786 55.3258 4.59857 31.3454 11.0592C31.3454 11.0592 30.2432 12.5034 29.7492 14.4796C29.3311 14.9356 15.1937 29.8711 12.5715 32.5314C12.3941 32.7341 12.2674 32.8608 12.1914 32.9114C11.3933 33.6335 10.6333 34.3936 9.91119 35.1157Z" fill="#EF6E0B"/>
<path d="M107.581 43.2862C107.657 44.9964 111.267 46.1745 115.6 45.9845C119.97 45.7945 123.428 44.2363 123.352 42.5641C123.276 40.892 119.666 39.6759 115.333 39.8659C110.963 40.0939 107.505 41.6141 107.581 43.2862Z" fill="#F49211"/>
<path d="M45.1387 40.436C45.2147 42.1082 48.825 43.2863 53.1575 43.0963C57.5279 42.9063 60.9863 41.3861 60.8723 39.6759C60.7963 38.0038 57.2239 36.7876 52.8915 37.0157C48.521 37.2057 45.0626 38.7258 45.1387 40.436Z" fill="#F49211"/>
<path d="M21.5019 48.9873C21.6159 51.7616 23.9722 53.9278 26.7844 53.7758C29.5587 53.6618 31.7249 51.3056 31.6109 48.4933C31.4589 45.719 29.1027 43.5528 26.2904 43.7048C23.5161 43.8188 21.3499 46.1751 21.5019 48.9873Z" fill="#F49211"/>
<path d="M176.177 25.6907C176.177 25.6907 200.423 38.0799 190.314 38.574L177.773 38.992C177.773 38.992 178.305 31.5053 176.177 25.6907Z" fill="#EF6E0B"/>
<path d="M5.91927 53.5855C10.1377 53.9275 23.249 41.1962 23.249 41.1962C28.1895 34.6596 7.32539 38.536 7.32539 38.536L6.83135 38.612C4.05706 42.4504 3.03097 46.8968 5.91927 53.5855Z" fill="#D6E3DD"/>
<path d="M153.413 15.9617C147.295 13.8334 121.338 5.28258 104.236 7.98085C103.666 8.09486 103.324 8.62692 103.438 9.19698C104.35 13.0354 107.695 26.8688 109.595 32.7594C109.937 33.8235 110.887 34.5836 111.989 34.6216L155.96 37.0158L158.506 30.0611L155.2 17.7478C154.895 16.9118 154.249 16.2277 153.413 15.9617Z" fill="#D6E3DD"/>
<path d="M153.413 15.9617C147.295 13.8334 121.338 5.28258 104.236 7.98085C103.666 8.09486 103.324 8.62692 103.438 9.19698C104.35 13.0354 107.695 26.8688 109.595 32.7594C109.937 33.8235 110.887 34.5836 111.989 34.6216L155.96 37.0158L158.506 30.0611L155.2 17.7478C154.895 16.9118 154.249 16.2277 153.413 15.9617Z" fill="#D6E3DD"/>
<path d="M153.413 15.9617C147.295 13.8334 121.338 5.28258 104.236 7.98085C103.666 8.09486 103.324 8.62692 103.438 9.19698C104.35 13.0354 107.695 26.8688 109.595 32.7594C109.937 33.8235 110.887 34.5836 111.989 34.6216L155.96 37.0158L158.506 30.0611L155.2 17.7478C154.895 16.9118 154.249 16.2277 153.413 15.9617Z" fill="#D6E3DD"/>
<path d="M153.413 15.9617C147.295 13.8334 121.338 5.28258 104.236 7.98085C103.666 8.09486 103.324 8.62692 103.438 9.19698C104.35 13.0354 107.695 26.8688 109.595 32.7594C109.937 33.8235 110.887 34.5836 111.989 34.6216L155.96 37.0158L158.506 30.0611L155.2 17.7478C154.895 16.9118 154.249 16.2277 153.413 15.9617Z" fill="#D6E3DD"/>
<path d="M229.838 79.5801C229.99 80.9482 230.104 82.3923 230.18 83.9125C230.18 83.9125 239.149 86.0027 242.836 82.9624C242.836 82.9624 252.109 83.0004 252.261 82.5064L252.641 79.9221C252.641 79.9221 233.449 80.2261 230.256 79.618C230.104 79.5674 229.965 79.5547 229.838 79.5801Z" fill="#F49211"/>
<path d="M243.483 77.4901C243.483 77.4901 249.64 80.1123 252.414 79.6183C251.578 78.6302 249.108 75.3238 251.236 75.0578C251.236 75.0578 248.614 60.8824 242.647 60.0083C242.647 60.0083 238.657 77.3381 243.483 77.4901Z" fill="#F49211"/>
<path d="M243.482 77.4898C244.622 73.6894 242.646 60.0081 242.646 60.0081C242.646 60.0081 238.655 77.3378 243.482 77.4898Z" fill="#E27E05"/>
<path d="M58.0614 66.6588C60.6837 66.5448 62.0138 60.9582 62.0138 60.9582C61.4818 55.4476 67.0303 56.4738 69.1585 55.9037C103.172 46.7068 163.674 55.3336 176.481 55.5237C177.508 55.5617 186.514 58.982 186.514 59.172C192.215 52.3313 201.412 50.3931 207.189 50.8112C231.929 52.4453 229.497 75.5137 229.497 75.5137C229.497 75.5137 229.433 75.5644 229.307 75.6657C224.328 49.405 200.956 54.7636 200.956 54.7636C187.541 57.6139 181.156 69.053 181.612 79.5041C181.574 79.124 169.983 81.4423 168.729 81.1763L106.478 82.8104L72.3889 83.6845C72.3889 83.6845 66.8783 84.8246 63.8 77.3379C63.648 76.9832 63.5086 76.6031 63.382 76.1977C63.382 76.1977 60.9877 71.8653 57.7194 67.7229C57.7194 67.0388 57.8334 66.6588 58.0614 66.6588Z" fill="#EF6E0B"/>
<path d="M168.158 78.06C168.158 78.06 118.791 67.913 79.8752 74.8677L168.158 78.06Z" fill="#F7D877"/>
<path d="M236.338 52.4834C236.338 52.4834 218.172 62.4404 189.935 37.2058L216.234 41.4242C216.234 41.4242 227.445 48.3789 236.338 52.4834Z" fill="#EF6E0B"/>
<path d="M12.5684 32.5313C12.7964 32.43 13.0497 32.316 13.3284 32.1893C25.9457 26.1847 29.6321 14.8595 29.7461 14.4795C29.3281 14.9355 15.1906 29.8711 12.5684 32.5313Z" fill="#F49211"/>
<path d="M53.2715 7.0688C53.2715 7.0688 49.6611 4.1425 49.015 7.86688L53.2715 7.0688Z" fill="#111111"/>
<path d="M44.8356 0.228037L45.1396 0L50.0801 6.53667L49.7761 6.76471L44.8356 0.228037Z" fill="#111111"/>
<path d="M0.562668 75.1335C1.09473 79.3519 2.38687 86.5727 5.27516 87.2567C5.27516 87.2567 11.2418 88.5488 12.3819 87.8648C12.3819 87.8648 11.9258 67.6847 28.4195 62.5162C38.2245 59.4759 57.2264 59.3619 60.0007 88.6629C60.0007 88.6629 171.694 85.9646 179.257 87.1807C179.257 87.1807 182.183 86.6487 181.575 82.0882C181.575 82.0882 181.537 80.7961 181.651 79.1999C181.651 79.1999 81.0168 69.3189 63.8011 77.3377C63.8011 77.3377 54.0341 53.4333 29.8637 59.0579C29.8637 59.0579 20.2487 60.654 13.978 69.6229C13.978 69.6229 5.6552 77.1097 0.828705 75.1715C0.727356 75.1462 0.638672 75.1335 0.562668 75.1335Z" fill="#F49211"/>
<path d="M214.522 38.916C214.522 38.916 189.174 33.8615 182.447 29.035C182.447 29.035 198.675 38.574 190.39 38.0039C144.215 34.8496 39.3244 32.6454 39.3244 32.9114C39.0583 38.384 216.65 41.5003 216.65 41.5003C216.65 41.5003 213.876 40.7022 214.522 38.916Z" fill="#F7D877"/>
<path d="M31.3454 11.059C31.3454 11.059 38.1481 12.1231 39.8963 13.4533C40.3524 13.7953 40.9224 13.8713 41.4545 13.7193C45.2169 12.5792 57.4161 9.15883 70.1094 7.75269C70.1094 7.75269 48.8272 8.01872 31.3454 11.059Z" fill="#E27E05"/>
<path d="M216.231 41.4241L216.46 41.6901C216.561 41.7914 216.662 41.8801 216.764 41.9561C227.671 52.6732 243.632 51.5711 243.632 51.5711C243.632 51.5711 243.784 46.4406 238.996 42.5642C237.666 41.4621 235.879 40.474 233.637 39.7519C233.207 39.5999 232.776 39.4732 232.345 39.3719C232.345 39.3719 226.188 38.4218 218.74 36.6736L218.626 36.7116C218.626 36.7116 210.835 38.8018 216.231 41.4241Z" fill="#E0E9EF"/>
<path d="M63.7994 77.338C66.8777 84.8248 72.3883 83.6847 72.3883 83.6847L106.478 82.8106L168.728 81.1764C169.982 81.4424 171.046 81.4804 171.92 81.4044L175.303 78.6681C175.303 78.6681 86.0697 69.1292 64.3314 77.148C64.1794 77.224 63.9894 77.262 63.7994 77.338Z" fill="#E27E05"/>
<path d="M50.4583 61.034C52.9666 62.2882 55.5509 64.9484 57.7171 67.7227C60.9854 71.8651 63.3796 76.1976 63.3796 76.1976C63.5063 76.6029 63.6457 76.983 63.7977 77.3377C66.876 84.8244 72.3866 83.6843 72.3866 83.6843L106.476 82.8102L168.726 81.1761C169.98 81.4421 171.045 81.4801 171.919 81.4041C177.315 80.9861 176.327 75.5135 176.327 75.5135C178.759 69.6609 179.557 62.9342 179.595 56.8916C179.671 47.0486 177.771 38.9538 177.771 38.9538C170.094 37.5476 135.929 35.9895 103.474 34.8114C70.6004 33.5952 39.4752 32.7592 39.4752 32.7592C36.0169 51.4571 50.4583 61.034 50.4583 61.034Z" stroke="#E27E05" stroke-width="2" stroke-miterlimit="10"/>
<path d="M103.664 35.1155C103.664 35.1155 110.011 74.0314 106.628 82.2783" stroke="#E27E05" stroke-width="2" stroke-miterlimit="10"/>
<path d="M39.4745 32.7592C39.4745 32.8352 39.4999 32.9113 39.5506 32.9873C57.2984 33.1393 80.0247 33.9374 103.169 35.0015C129.658 36.1796 156.754 37.7377 177.771 38.9919V38.9538C177.771 38.9538 178.227 24.8544 173.172 22.4982C173.172 22.4982 138.779 3.00221 96.7844 5.8525C82.989 6.76459 43.655 8.13274 42.4388 15.9995C42.4388 15.9995 39.3985 29.7949 39.4745 32.7592Z" fill="#434443"/>
<path d="M91.7299 10.261C92.832 15.9236 96.1764 33.1014 96.1384 34.2795L54.2961 33.3294C54.2961 33.3294 45.9733 22.6883 47.7214 15.3156C47.9495 14.4035 75.3883 8.81691 89.5257 8.47487C90.5898 8.43687 91.5399 9.19693 91.7299 10.261Z" fill="#D6E3DD"/>
<path d="M171.122 24.4742C168.462 22.308 162.039 19.7237 158.695 18.5456C158.201 18.3556 157.669 18.7736 157.783 19.3437C158.315 22.232 159.873 30.2508 160.633 30.7448C160.633 30.7448 169.032 32.9871 172.224 31.0109C172.224 31.0109 173.022 26.0323 171.122 24.4742Z" fill="#D6E3DD"/>
<path d="M159.91 26.4506C159.91 26.4506 156.68 32.7593 159.796 35.3815C159.796 35.3815 168.917 36.5217 169.031 30.365C169.031 30.365 168.385 24.8545 159.91 26.4506Z" fill="#2A2B2A"/>
<mask id="mask0_203_2662" style="mask-type:luminance" maskUnits="userSpaceOnUse" x="47" y="8" width="50" height="27">
<path d="M91.7318 10.2492C92.8339 15.908 96.163 33.1161 96.1326 34.2677L54.2865 33.3214C54.2865 33.3214 45.9599 22.6993 47.7309 15.3227C47.9475 14.4182 75.3825 8.82788 89.5123 8.47445C90.5878 8.44784 91.5265 9.19271 91.7318 10.2492Z" fill="white"/>
</mask>
<g mask="url(#mask0_203_2662)">
<g opacity="0.6">
<path d="M91.8828 35.1537L88.8805 37.852L59.8836 5.39672L62.9239 2.73645L91.8828 35.1537Z" fill="white"/>
<path d="M83.75 37.7002L77.0233 43.7048L48.0644 11.2875L54.7911 5.24487L83.75 37.7002Z" fill="white"/>
</g>
</g>
<path d="M153.411 15.9617C147.293 13.8334 121.336 5.28258 104.234 7.98085C103.664 8.09486 103.322 8.62692 103.436 9.19698C104.348 13.0354 107.693 26.8688 109.593 32.7594C109.935 33.8235 110.885 34.5836 111.987 34.6216L155.958 37.0158L158.504 30.0611L155.198 17.7478C154.894 16.9118 154.247 16.2277 153.411 15.9617Z" fill="#D6E3DD"/>
<mask id="mask1_203_2662" style="mask-type:luminance" maskUnits="userSpaceOnUse" x="103" y="7" width="56" height="31">
<path d="M153.394 15.9544C147.276 13.8186 121.323 5.29809 104.217 7.99637C103.663 8.08378 103.309 8.63483 103.438 9.17828C104.354 13.0243 107.687 26.8843 109.587 32.7787C109.929 33.8352 110.891 34.5725 112.001 34.6295L155.941 37.0085L158.51 30.0538L155.192 17.7368C154.892 16.9007 154.234 16.247 153.394 15.9544Z" fill="white"/>
</mask>
<g mask="url(#mask1_203_2662)">
<g opacity="0.6">
<path d="M153.182 42.0702L150.331 44.3125L117.268 3.11629L120.08 0.83606L153.182 42.0702Z" fill="white"/>
<path d="M143.871 41.7282L132.85 50.5831L99.7866 9.38688L110.808 0.531982L143.871 41.7282Z" fill="white"/>
</g>
</g>
</svg>
