<svg width="28" height="28" viewBox="0 0 28 28" fill="none" xmlns="http://www.w3.org/2000/svg">
<path d="M26.046 27.185C26.736 27.875 27.801 26.81 27.111 26.135L21.486 20.495C23.4597 18.3121 24.5504 15.4729 24.546 12.53C24.546 5.94503 19.191 0.590027 12.606 0.590027C6.02102 0.590027 0.666016 5.94503 0.666016 12.53C0.666016 19.115 6.02102 24.47 12.606 24.47C15.576 24.47 18.321 23.375 20.421 21.56L26.046 27.185ZM2.16452 12.53C2.16452 6.77003 6.85952 2.09003 12.6045 2.09003C18.3645 2.09003 23.0445 6.77003 23.0445 12.53C23.0445 18.29 18.3645 22.97 12.6045 22.97C6.85952 22.97 2.16452 18.29 2.16452 12.53Z" fill="black"/>
</svg>
