<svg width="20" height="22" viewBox="0 0 20 22" fill="none" xmlns="http://www.w3.org/2000/svg">
<path d="M10.0121 8.15468C9.31131 8.15468 8.65506 8.42655 8.15819 8.92343C7.66366 9.4203 7.38944 10.0766 7.38944 10.7773C7.38944 11.4781 7.66366 12.1344 8.15819 12.6312C8.65506 13.1258 9.31131 13.4 10.0121 13.4C10.7129 13.4 11.3691 13.1258 11.866 12.6312C12.3605 12.1344 12.6348 11.4781 12.6348 10.7773C12.6348 10.0766 12.3605 9.4203 11.866 8.92343C11.6233 8.67887 11.3345 8.48498 11.0162 8.35301C10.6979 8.22104 10.3566 8.15362 10.0121 8.15468ZM19.6754 13.6742L18.1426 12.3641C18.2152 11.9187 18.2527 11.4641 18.2527 11.0117C18.2527 10.5594 18.2152 10.1023 18.1426 9.65936L19.6754 8.34921C19.7912 8.25008 19.874 8.11806 19.913 7.97069C19.9519 7.82332 19.9451 7.66759 19.8933 7.52421L19.8723 7.46327C19.4504 6.28364 18.8183 5.1902 18.0066 4.23593L17.9644 4.18671C17.8659 4.07081 17.7345 3.9875 17.5877 3.94776C17.4408 3.90801 17.2853 3.91369 17.1418 3.96405L15.2387 4.64139C14.5355 4.06483 13.7527 3.61014 12.9043 3.29374L12.5363 1.30389C12.5086 1.15399 12.4358 1.01609 12.3278 0.908498C12.2198 0.800909 12.0816 0.72873 11.9316 0.70155L11.8683 0.689832C10.6496 0.469519 9.36522 0.469519 8.14647 0.689832L8.08319 0.70155C7.93318 0.72873 7.79499 0.800909 7.68699 0.908498C7.57898 1.01609 7.50626 1.15399 7.4785 1.30389L7.10819 3.30311C6.26778 3.62203 5.48489 4.07561 4.79022 4.64608L2.87303 3.96405C2.72952 3.91329 2.57395 3.9074 2.42701 3.94717C2.28006 3.98695 2.1487 4.07049 2.05038 4.18671L2.00819 4.23593C1.19793 5.19121 0.565999 6.28438 0.142565 7.46327L0.121471 7.52421C0.0160025 7.81718 0.102721 8.1453 0.33944 8.34921L1.891 9.67343C1.81835 10.1141 1.78319 10.5641 1.78319 11.0094C1.78319 11.4594 1.81835 11.9094 1.891 12.3453L0.344128 13.6695C0.228336 13.7686 0.145463 13.9007 0.106527 14.048C0.067592 14.1954 0.0744392 14.3511 0.126159 14.4945L0.147253 14.5555C0.571471 15.7344 1.19725 16.8242 2.01288 17.7828L2.05506 17.832C2.15363 17.9479 2.285 18.0312 2.43185 18.071C2.57871 18.1107 2.73416 18.105 2.87772 18.0547L4.79491 17.3726C5.49335 17.9469 6.27147 18.4016 7.11288 18.7156L7.48319 20.7148C7.51095 20.8647 7.58367 21.0026 7.69167 21.1102C7.79968 21.2178 7.93787 21.29 8.08788 21.3172L8.15116 21.3289C9.3819 21.5504 10.6423 21.5504 11.873 21.3289L11.9363 21.3172C12.0863 21.29 12.2245 21.2178 12.3325 21.1102C12.4405 21.0026 12.5132 20.8647 12.541 20.7148L12.909 18.725C13.7574 18.4062 14.5402 17.9539 15.2433 17.3773L17.1465 18.0547C17.29 18.1054 17.4456 18.1113 17.5925 18.0716C17.7394 18.0318 17.8708 17.9482 17.9691 17.832L18.0113 17.7828C18.8269 16.8195 19.4527 15.7344 19.8769 14.5555L19.898 14.4945C19.9988 14.2039 19.9121 13.8781 19.6754 13.6742ZM10.0121 14.8976C7.73631 14.8976 5.89178 13.0531 5.89178 10.7773C5.89178 8.50155 7.73631 6.65702 10.0121 6.65702C12.2879 6.65702 14.1324 8.50155 14.1324 10.7773C14.1324 13.0531 12.2879 14.8976 10.0121 14.8976Z" fill="#EF6E0B"/>
</svg>
