<svg width="36" height="36" viewBox="0 0 36 36" fill="none" xmlns="http://www.w3.org/2000/svg">
<path d="M27 12C27 12.7956 26.6839 13.5587 26.1213 14.1213C25.5587 14.6839 24.7956 15 24 15C23.2044 15 22.4413 14.6839 21.8787 14.1213C21.3161 13.5587 21 12.7956 21 12C21 11.2044 21.3161 10.4413 21.8787 9.87868C22.4413 9.31607 23.2044 9 24 9C24.7956 9 25.5587 9.31607 26.1213 9.87868C26.6839 10.4413 27 11.2044 27 12Z" fill="#EF6E0B"/>
<path fill-rule="evenodd" clip-rule="evenodd" d="M17.9145 1.875H18.0855C21.549 1.875 24.2625 1.875 26.3805 2.16C28.5465 2.451 30.2565 3.06 31.599 4.401C32.9415 5.7435 33.549 7.4535 33.84 9.621C34.125 11.7375 34.125 14.451 34.125 17.9145V18.0465C34.125 20.91 34.125 23.253 33.969 25.161C33.813 27.081 33.4935 28.6815 32.7765 30.0135C32.4615 30.6 32.0715 31.1265 31.599 31.599C30.2565 32.9415 28.5465 33.549 26.379 33.84C24.2625 34.125 21.549 34.125 18.0855 34.125H17.9145C14.451 34.125 11.7375 34.125 9.6195 33.84C7.4535 33.549 5.7435 32.94 4.401 31.599C3.2115 30.4095 2.5965 28.929 2.271 27.09C1.9485 25.2855 1.89 23.04 1.878 20.253C1.875 19.5435 1.875 18.7935 1.875 18.0015V17.9145C1.875 14.451 1.875 11.7375 2.16 9.6195C2.451 7.4535 3.06 5.7435 4.401 4.401C5.7435 3.0585 7.4535 2.451 9.621 2.16C11.7375 1.875 14.451 1.875 17.9145 1.875ZM9.9195 4.389C8.0025 4.647 6.846 5.139 5.9925 5.9925C5.1375 6.8475 4.647 8.0025 4.389 9.921C4.128 11.871 4.125 14.433 4.125 18V19.266L5.6265 17.952C6.28511 17.3755 7.13823 17.0708 8.01305 17.0998C8.88787 17.1288 9.71897 17.4892 10.338 18.108L16.773 24.543C17.2724 25.0423 17.9318 25.3494 18.6353 25.4103C19.3388 25.4712 20.0413 25.282 20.619 24.876L21.066 24.561C21.8995 23.9753 22.9071 23.6898 23.924 23.7511C24.9409 23.8124 25.9069 24.2169 26.664 24.8985L30.909 28.719C31.338 27.822 31.5915 26.643 31.7265 24.9795C31.8735 23.172 31.875 20.919 31.875 18C31.875 14.433 31.872 11.871 31.611 9.921C31.353 8.0025 30.861 6.846 30.0075 5.991C29.1525 5.1375 27.9975 4.647 26.079 4.389C24.129 4.128 21.567 4.125 18 4.125C14.433 4.125 11.8695 4.128 9.9195 4.389Z" fill="#EF6E0B"/>
</svg>
