<svg width="24" height="24" viewBox="0 0 24 24" fill="none" xmlns="http://www.w3.org/2000/svg">
<g clip-path="url(#clip0_49_2893)">
<path d="M14.3147 9.09771C14.177 8.7076 13.9217 8.36981 13.584 8.13092C13.2462 7.89204 12.8427 7.76384 12.429 7.764H10.881C10.4393 7.76169 10.0125 7.92322 9.6831 8.21735C9.35366 8.51148 9.14498 8.91732 9.09743 9.35639C9.04988 9.79546 9.16682 10.2366 9.42565 10.5944C9.68448 10.9523 10.0668 11.2014 10.4987 11.2937L12.8558 11.808C13.3378 11.9135 13.7638 12.1934 14.0519 12.5939C14.3401 12.9944 14.4701 13.4873 14.4169 13.9778C14.3638 14.4683 14.1312 14.9219 13.764 15.2514C13.3967 15.5809 12.9206 15.763 12.4273 15.7629H11.0953C10.2244 15.7629 9.48383 15.2074 9.20954 14.4309M11.7621 7.764V5.76343M11.7621 17.7634V15.7646M3.42383 23.1394V18.8537H7.70954" stroke="white" stroke-linecap="round" stroke-linejoin="round"/>
<path d="M22.9502 9.94974C23.4053 12.3758 23.0419 14.8843 21.9172 17.0816C20.7924 19.2788 18.9699 21.0404 16.7357 22.0898C14.5015 23.1393 11.9821 23.4171 9.57285 22.8798C7.16365 22.3425 5.00104 21.0205 3.42446 19.1212M1.04846 14.0503C0.593361 11.6242 0.956706 9.11571 2.08147 6.91847C3.20623 4.72123 5.02874 2.95965 7.26295 1.91022C9.49715 0.860791 12.0166 0.58292 14.4258 1.12022C16.835 1.65752 18.9976 2.97958 20.5742 4.87889" stroke="white" stroke-linecap="round" stroke-linejoin="round"/>
<path d="M20.5748 0.860596V5.14631H16.2891" stroke="white" stroke-linecap="round" stroke-linejoin="round"/>
</g>
<defs>
<clipPath id="clip0_49_2893">
<rect width="24" height="24" fill="white"/>
</clipPath>
</defs>
</svg>
